<?xml version="1.0" encoding="UTF-8" standalone="no"?>
<!-- Created with Inkscape (http://www.inkscape.org/) -->

<svg
   width="1920px"
   height="720px"
   viewBox="0 0 1920 720"
   version="1.1"
   id="SVGRoot"
   sodipodi:docname="letreiro_pet_principal.svg"
   inkscape:version="1.2.2 (b0a8486541, 2022-12-01)"
   xmlns:inkscape="http://www.inkscape.org/namespaces/inkscape"
   xmlns:sodipodi="http://sodipodi.sourceforge.net/DTD/sodipodi-0.dtd"
   xmlns="http://www.w3.org/2000/svg"
   xmlns:svg="http://www.w3.org/2000/svg">
  <sodipodi:namedview
     id="namedview2344"
     pagecolor="#ffffff"
     bordercolor="#000000"
     borderopacity="0.25"
     inkscape:showpageshadow="2"
     inkscape:pageopacity="0.0"
     inkscape:pagecheckerboard="0"
     inkscape:deskcolor="#d1d1d1"
     inkscape:document-units="px"
     showgrid="false"
     inkscape:zoom="0.49798681"
     inkscape:cx="813.27455"
     inkscape:cy="352.41897"
     inkscape:window-width="1366"
     inkscape:window-height="734"
     inkscape:window-x="0"
     inkscape:window-y="0"
     inkscape:window-maximized="1"
     inkscape:current-layer="layer1" />
  <defs
     id="defs2339">
    <clipPath
       clipPathUnits="userSpaceOnUse"
       id="clipPath968">
      <path
         d="m 656.516,418.973 c -0.097,-0.094 -0.211,-0.118 -0.352,-0.072 v 0 c -0.141,0.049 -0.259,0.049 -0.354,0 v 0 c -0.237,0 -0.445,-0.01 -0.633,-0.034 v 0 c -0.188,-0.024 -0.4,-0.057 -0.635,-0.105 v 0 c -0.656,-0.141 -1.279,-0.27 -1.863,-0.387 v 0 c -0.59,-0.118 -1.165,-0.294 -1.726,-0.528 v 0 c -1.929,-0.799 -3.55,-1.796 -4.862,-2.993 v 0 c -1.314,-1.2 -2.488,-2.621 -3.521,-4.263 v 0 c -0.281,-0.516 -0.528,-1.046 -0.739,-1.585 v 0 c -0.214,-0.54 -0.435,-1.068 -0.673,-1.583 v 0 c -0.278,-0.658 -0.479,-1.363 -0.596,-2.113 v 0 c -0.116,-0.752 -0.27,-1.504 -0.456,-2.254 v 0 c -0.049,-0.235 -0.06,-0.483 -0.036,-0.739 v 0 c 0.023,-0.259 -0.013,-0.506 -0.105,-0.741 v 0 -0.775 c -0.049,-0.234 -0.061,-0.528 -0.036,-0.879 v 0 c 0.022,-0.354 0.058,-0.624 0.105,-0.811 v 0 -0.986 c 0.093,-0.423 0.164,-0.844 0.211,-1.267 v 0 c 0.047,-0.423 0.117,-0.822 0.212,-1.198 v 0 c 0.045,-0.235 0.072,-0.423 0.072,-0.564 v 0 c 0,-0.139 0.021,-0.307 0.069,-0.492 v 0 c 0.187,-0.564 0.339,-1.127 0.458,-1.692 v 0 c 0.117,-0.562 0.292,-1.102 0.527,-1.619 v 0 c 0.656,-1.596 1.469,-3.039 2.431,-4.331 v 0 c 0.963,-1.291 2.125,-2.384 3.487,-3.275 v 0 c 0.796,-0.47 1.547,-0.87 2.252,-1.2 v 0 c 0.187,-0.091 0.354,-0.152 0.493,-0.172 v 0 c 0.143,-0.027 0.303,-0.083 0.494,-0.179 v 0 c 0.375,-0.139 0.774,-0.27 1.196,-0.387 v 0 c 0.423,-0.117 0.846,-0.222 1.269,-0.316 v 0 c 0.235,-0.047 0.493,-0.08 0.776,-0.106 v 0 c 0.28,-0.024 0.538,-0.057 0.775,-0.107 v 0 c 0.186,-0.045 0.374,-0.069 0.564,-0.069 v 0 c 0.186,0 0.397,-0.023 0.631,-0.069 v 0 h 0.636 c 0.186,-0.047 0.433,-0.072 0.739,-0.072 v 0 c 0.304,0 0.575,0.025 0.81,0.072 v 0 h 0.704 c 0.234,0.046 0.456,0.069 0.668,0.069 v 0 c 0.211,0 0.435,0.024 0.668,0.069 v 0 c 0.518,0.096 1.011,0.177 1.481,0.249 v 0 c 0.468,0.069 0.938,0.199 1.41,0.387 v 0 c 1.83,0.609 3.344,1.395 4.542,2.358 v 0 c 1.195,0.963 2.261,2.195 3.205,3.699 v 0 c 0.609,0.987 1.102,2.113 1.476,3.38 v 0 c 0.237,0.751 0.118,1.292 -0.35,1.619 v 0 c -0.14,0.142 -0.399,0.237 -0.774,0.284 v 0 c -0.376,0.045 -0.775,0.081 -1.198,0.103 v 0 c -0.421,0.024 -0.844,0.014 -1.267,-0.034 v 0 c -0.423,-0.047 -0.729,-0.116 -0.915,-0.211 v 0 c -0.522,-0.236 -0.881,-0.611 -1.093,-1.126 v 0 c -0.211,-0.518 -0.46,-1.013 -0.738,-1.481 v 0 c -0.283,-0.515 -0.613,-0.996 -0.987,-1.444 v 0 c -0.378,-0.445 -0.822,-0.832 -1.34,-1.162 v 0 c -0.468,-0.328 -0.974,-0.599 -1.512,-0.81 v 0 c -0.541,-0.21 -1.142,-0.412 -1.798,-0.597 v 0 c -0.658,-0.188 -1.526,-0.283 -2.605,-0.283 v 0 c -1.081,0 -1.95,0.095 -2.608,0.283 v 0 c -0.328,0 -0.563,0.022 -0.702,0.069 v 0 c -0.33,0.096 -0.658,0.188 -0.986,0.282 v 0 c -0.33,0.094 -0.635,0.212 -0.915,0.354 v 0 c -2.491,1.079 -4.273,2.887 -5.354,5.421 v 0 c -0.188,0.376 -0.329,0.763 -0.423,1.164 v 0 c -0.094,0.399 -0.188,0.786 -0.282,1.162 v 0 c -0.045,0.188 -0.069,0.376 -0.069,0.561 v 0 c 0,0.188 -0.025,0.401 -0.072,0.636 v 0 c -0.094,0.233 -0.094,0.481 0,0.739 v 0 c 0.096,0.257 0.186,0.459 0.284,0.6 v 0 c 0.186,0.28 0.374,0.468 0.562,0.563 v 0 c 0.235,0.14 0.54,0.221 0.913,0.245 v 0 c 0.378,0.024 0.753,0.035 1.131,0.035 v 0 h 18.029 c 0.423,0 0.917,-0.011 1.48,-0.035 v 0 c 0.562,-0.024 1.126,-0.034 1.69,-0.034 v 0 c 0.563,0 1.067,0.034 1.514,0.105 v 0 c 0.447,0.072 0.786,0.2 1.022,0.387 v 0 c 0.233,0.236 0.387,0.646 0.457,1.234 v 0 c 0.072,0.584 0.056,1.113 -0.034,1.582 v 0 c -0.047,0.33 -0.083,0.659 -0.107,0.988 v 0 c -0.024,0.329 -0.058,0.656 -0.107,0.987 v 0 c -0.188,0.656 -0.338,1.312 -0.457,1.97 v 0 c -0.119,0.658 -0.294,1.292 -0.527,1.903 v 0 c -0.236,0.61 -0.447,1.221 -0.635,1.832 v 0 c -0.188,0.609 -0.447,1.171 -0.774,1.69 v 0 c -0.519,0.891 -1.151,1.831 -1.904,2.816 v 0 c -0.279,0.377 -0.621,0.75 -1.017,1.128 v 0 c -0.405,0.375 -0.789,0.703 -1.166,0.986 v 0 c -0.186,0.093 -0.352,0.221 -0.491,0.387 v 0 c -0.141,0.165 -0.329,0.293 -0.564,0.388 v 0 c -1.175,0.749 -2.489,1.349 -3.944,1.796 v 0 c -1.32,0.404 -2.852,0.604 -4.594,0.604 v 0 c -0.181,0 -0.364,-0.002 -0.547,-0.006 m -0.565,-5.211 h 1.198 c 0.422,0 0.821,-0.047 1.197,-0.143 v 0 c 0.375,-0.094 0.728,-0.175 1.057,-0.245 v 0 c 0.329,-0.071 0.654,-0.153 0.987,-0.246 v 0 c 1.267,-0.519 2.299,-1.15 3.098,-1.902 v 0 c 0.797,-0.752 1.525,-1.667 2.184,-2.748 v 0 c 0.516,-0.891 0.914,-1.854 1.198,-2.887 v 0 c 0.092,-0.328 0.092,-0.646 0,-0.95 v 0 c -0.096,-0.307 -0.214,-0.554 -0.352,-0.741 v 0 c -0.33,-0.376 -0.989,-0.551 -1.973,-0.528 v 0 c -0.986,0.024 -1.831,0.035 -2.537,0.035 v 0 h -10.705 c -0.656,0 -1.445,-0.011 -2.362,-0.035 v 0 c -0.913,-0.023 -1.558,0.107 -1.934,0.387 v 0 c -0.282,0.188 -0.447,0.47 -0.493,0.846 v 0 c -0.047,0.376 -0.026,0.774 0.072,1.197 v 0 c 0.092,0.423 0.206,0.811 0.351,1.162 v 0 c 0.141,0.354 0.279,0.647 0.423,0.882 v 0 c 0.656,1.267 1.395,2.322 2.219,3.168 v 0 c 0.818,0.845 1.911,1.55 3.271,2.114 v 0 c 0.33,0.093 0.672,0.175 1.024,0.246 v 0 c 0.352,0.07 0.717,0.151 1.09,0.245 v 0 c 0.141,0.049 0.305,0.06 0.493,0.035 v 0 c 0.04,-0.003 0.077,-0.005 0.113,-0.005 v 0 c 0.139,0 0.269,0.038 0.381,0.113"
         id="path966" />
    </clipPath>
    <clipPath
       clipPathUnits="userSpaceOnUse"
       id="clipPath956">
      <path
         d="M 0,595.276 H 841.89 V 0 H 0 Z"
         id="path954" />
    </clipPath>
    <clipPath
       clipPathUnits="userSpaceOnUse"
       id="clipPath944">
      <path
         d="m 628.625,432.003 c -0.094,0 -0.21,-0.012 -0.351,-0.034 v 0 c -0.141,-0.027 -0.261,-0.036 -0.352,-0.036 v 0 c -0.375,-0.094 -0.658,-0.307 -0.846,-0.633 v 0 c -0.235,-0.378 -0.351,-0.976 -0.351,-1.796 v 0 -2.22 -8.099 c 0,-0.518 0.011,-1.104 0.033,-1.761 v 0 c 0.024,-0.658 -0.033,-1.197 -0.174,-1.62 v 0 c -0.047,-0.188 -0.107,-0.33 -0.177,-0.423 v 0 c -0.072,-0.095 -0.155,-0.211 -0.246,-0.352 v 0 c -0.519,-0.094 -0.927,-0.011 -1.232,0.248 v 0 c -0.308,0.256 -0.599,0.502 -0.882,0.739 v 0 c -0.563,0.423 -1.162,0.796 -1.797,1.126 v 0 c -0.634,0.327 -1.302,0.633 -2.005,0.915 v 0 c -0.473,0.233 -0.965,0.387 -1.48,0.457 v 0 c -0.517,0.071 -1.034,0.179 -1.549,0.318 v 0 c -0.329,0 -0.59,0.023 -0.776,0.069 v 0 c -0.375,0.097 -0.927,0.143 -1.655,0.143 v 0 c -0.728,0 -1.277,-0.046 -1.654,-0.143 v 0 h -0.703 c -0.331,-0.091 -0.647,-0.163 -0.951,-0.208 v 0 c -0.309,-0.049 -0.625,-0.098 -0.953,-0.144 v 0 c -1.032,-0.279 -1.985,-0.61 -2.85,-0.984 v 0 c -0.872,-0.376 -1.708,-0.846 -2.502,-1.409 v 0 c -1.364,-0.941 -2.523,-2.125 -3.486,-3.556 v 0 c -0.964,-1.434 -1.75,-3.041 -2.361,-4.825 v 0 c -0.141,-0.423 -0.257,-0.858 -0.352,-1.304 v 0 c -0.093,-0.447 -0.21,-0.906 -0.352,-1.374 v 0 c -0.048,-0.235 -0.069,-0.445 -0.069,-0.632 v 0 c 0,-0.19 -0.026,-0.402 -0.071,-0.635 v 0 c -0.094,-0.329 -0.129,-0.669 -0.107,-1.022 v 0 c 0.024,-0.352 -0.012,-0.694 -0.105,-1.019 v 0 -0.775 c -0.095,-0.237 -0.14,-0.539 -0.14,-0.917 v 0 c 0,-0.376 0.045,-0.681 0.14,-0.914 v 0 -0.707 c 0.048,-0.235 0.06,-0.481 0.035,-0.739 v 0 c -0.023,-0.259 0.013,-0.505 0.105,-0.738 v 0 c 0.046,-0.235 0.072,-0.471 0.072,-0.706 v 0 c 0,-0.234 0.023,-0.469 0.071,-0.704 v 0 c 0.14,-0.468 0.245,-0.927 0.316,-1.373 v 0 c 0.072,-0.445 0.2,-0.881 0.387,-1.304 v 0 c 0.844,-2.629 2.02,-4.824 3.522,-6.583 v 0 c 1.502,-1.76 3.476,-3.161 5.916,-4.193 v 0 c 0.844,-0.376 1.831,-0.645 2.959,-0.809 v 0 c 1.127,-0.164 2.265,-0.235 3.415,-0.209 v 0 c 1.151,0.022 2.279,0.129 3.381,0.315 v 0 c 1.103,0.188 2.079,0.468 2.923,0.846 v 0 c 0.938,0.374 1.878,0.916 2.818,1.619 v 0 c 0.281,0.235 0.551,0.468 0.81,0.704 v 0 c 0.255,0.235 0.622,0.328 1.09,0.282 v 0 c 0.094,-0.095 0.177,-0.176 0.246,-0.247 v 0 c 0.072,-0.068 0.131,-0.153 0.178,-0.247 v 0 c 0.142,-0.329 0.223,-0.658 0.245,-0.985 v 0 c 0.024,-0.329 0.13,-0.611 0.318,-0.846 v 0 c 0.141,-0.28 0.423,-0.468 0.846,-0.562 v 0 c 0.186,-0.096 0.41,-0.131 0.666,-0.105 v 0 c 0.259,0.022 0.53,0.036 0.812,0.036 v 0 c 0.564,0 1.117,0.009 1.656,0.033 v 0 c 0.54,0.022 0.927,0.2 1.162,0.526 v 0 c 0.233,0.377 0.351,0.86 0.351,1.447 v 0 1.794 42.543 1.76 c 0,0.563 -0.118,1.033 -0.351,1.407 v 0 c -0.282,0.377 -0.788,0.575 -1.515,0.601 v 0 c -0.243,0.007 -0.482,0.01 -0.716,0.01 v 0 c -0.469,0 -0.922,-0.015 -1.362,-0.046 m -15.283,-45.569 c -0.518,0.14 -0.986,0.282 -1.409,0.423 v 0 c -0.423,0.14 -0.846,0.327 -1.267,0.561 v 0 c -1.362,0.753 -2.49,1.715 -3.381,2.889 v 0 c -0.894,1.174 -1.597,2.583 -2.113,4.227 v 0 c -0.095,0.327 -0.178,0.656 -0.247,0.985 v 0 c -0.069,0.329 -0.154,0.657 -0.246,0.987 v 0 c 0,0.327 -0.025,0.562 -0.07,0.704 v 0 c -0.097,0.423 -0.142,0.879 -0.142,1.373 v 0 1.514 c 0,0.235 -0.012,0.494 -0.038,0.774 v 0 c -0.02,0.282 0.013,0.54 0.109,0.775 v 0 c 0,0.188 0.009,0.364 0.036,0.53 v 0 c 0.023,0.164 0.035,0.34 0.035,0.528 v 0 c 0.093,0.515 0.173,1.043 0.247,1.583 v 0 c 0.069,0.539 0.197,1.068 0.385,1.585 v 0 c 0.564,1.643 1.301,3.089 2.218,4.331 v 0 c 0.918,1.245 2.126,2.196 3.628,2.854 v 0 c 0.377,0.139 0.764,0.257 1.162,0.352 v 0 c 0.401,0.093 0.788,0.188 1.162,0.281 v 0 c 0.235,0 0.446,0.012 0.636,0.036 v 0 c 0.186,0.023 0.396,0.058 0.633,0.106 v 0 h 1.302 c 0.447,0 0.858,-0.048 1.234,-0.142 v 0 c 0.56,-0.093 1.092,-0.199 1.585,-0.316 v 0 c 0.493,-0.118 0.971,-0.295 1.444,-0.53 v 0 c 1.361,-0.611 2.487,-1.455 3.381,-2.534 v 0 c 0.889,-1.081 1.619,-2.323 2.184,-3.733 v 0 c 0.138,-0.33 0.243,-0.658 0.315,-0.986 v 0 c 0.072,-0.328 0.153,-0.682 0.246,-1.055 v 0 c 0.142,-0.377 0.235,-0.789 0.284,-1.234 v 0 c 0.046,-0.446 0.117,-0.881 0.207,-1.304 v 0 -1.055 c 0.098,-0.237 0.145,-0.553 0.145,-0.952 v 0 c 0,-0.398 -0.047,-0.716 -0.145,-0.951 v 0 c -0.045,-0.28 -0.056,-0.564 -0.034,-0.844 v 0 c 0.025,-0.282 0.013,-0.563 -0.036,-0.846 v 0 c -0.045,-0.188 -0.067,-0.363 -0.067,-0.528 v 0 c 0,-0.166 -0.05,-0.342 -0.141,-0.529 v 0 c -0.142,-0.516 -0.26,-1.031 -0.351,-1.548 v 0 c -0.099,-0.517 -0.261,-1.035 -0.495,-1.549 v 0 c -0.658,-1.551 -1.467,-2.83 -2.431,-3.839 v 0 c -0.962,-1.012 -2.216,-1.844 -3.768,-2.5 v 0 c -0.328,-0.141 -0.68,-0.247 -1.056,-0.318 v 0 c -0.376,-0.07 -0.752,-0.153 -1.128,-0.246 v 0 c -0.327,0 -0.562,-0.025 -0.703,-0.07 v 0 h -0.634 -0.597 c -0.213,0 -0.414,0.023 -0.6,0.07 v 0 c -0.235,0.093 -0.481,0.116 -0.738,0.069 v 0 c -0.087,-0.014 -0.171,-0.023 -0.256,-0.023 v 0 c -0.167,0 -0.329,0.033 -0.485,0.095"
         id="path942" />
    </clipPath>
    <clipPath
       clipPathUnits="userSpaceOnUse"
       id="clipPath932">
      <path
         d="M 0,595.276 H 841.89 V 0 H 0 Z"
         id="path930" />
    </clipPath>
    <clipPath
       clipPathUnits="userSpaceOnUse"
       id="clipPath920">
      <path
         d="m 587.07,418.198 c -0.374,-0.096 -0.696,-0.176 -0.95,-0.246 v 0 c -0.259,-0.069 -0.483,-0.223 -0.671,-0.458 v 0 c -0.235,-0.376 -0.34,-0.88 -0.316,-1.514 v 0 c 0.024,-0.635 0.036,-1.233 0.036,-1.797 v 0 -7.465 -5.494 c 0,-0.423 0.021,-0.881 0.069,-1.374 v 0 c 0.048,-0.494 0.024,-0.926 -0.069,-1.302 v 0 -1.48 c -0.097,-0.235 -0.131,-0.447 -0.105,-0.633 v 0 c 0.022,-0.188 0.008,-0.399 -0.036,-0.634 v 0 c -0.094,-0.421 -0.165,-0.823 -0.213,-1.197 v 0 c -0.046,-0.376 -0.14,-0.752 -0.281,-1.127 v 0 c -0.517,-1.644 -1.231,-2.97 -2.149,-3.98 v 0 c -0.914,-1.01 -2.147,-1.844 -3.696,-2.5 v 0 c -0.893,-0.378 -2.068,-0.623 -3.521,-0.739 v 0 c -1.457,-0.117 -2.701,0.035 -3.736,0.458 v 0 c -2.063,0.846 -3.474,2.323 -4.223,4.437 v 0 c -0.237,0.796 -0.354,1.747 -0.354,2.853 v 0 3.204 10.636 6.69 c 0,0.562 -0.011,1.128 -0.033,1.691 v 0 c -0.025,0.563 -0.155,1.031 -0.388,1.407 v 0 c -0.282,0.376 -0.774,0.564 -1.48,0.564 v 0 h -2.043 c -0.094,-0.046 -0.19,-0.06 -0.28,-0.035 v 0 c -0.096,0.024 -0.188,0.011 -0.284,-0.037 v 0 c -0.517,-0.14 -0.867,-0.375 -1.055,-0.702 v 0 c -0.189,-0.282 -0.282,-0.634 -0.282,-1.057 v 0 -1.269 -4.507 -12.958 -2.819 c 0,-0.235 -0.015,-0.481 -0.033,-0.738 v 0 c -0.027,-0.26 -0.015,-0.484 0.033,-0.67 v 0 -0.703 c 0.047,-0.143 0.07,-0.295 0.07,-0.459 v 0 c 0,-0.165 0.023,-0.295 0.072,-0.387 v 0 c 0.093,-0.331 0.129,-0.623 0.105,-0.88 v 0 c -0.024,-0.259 0.009,-0.53 0.105,-0.81 v 0 c 0.094,-0.47 0.188,-0.929 0.282,-1.374 v 0 c 0.094,-0.448 0.233,-0.88 0.421,-1.302 v 0 c 0.519,-1.223 1.188,-2.266 2.008,-3.137 v 0 c 0.822,-0.868 1.844,-1.56 3.065,-2.075 v 0 c 0.373,-0.188 0.74,-0.331 1.091,-0.423 v 0 c 0.352,-0.096 0.717,-0.188 1.091,-0.282 v 0 c 0.237,-0.094 0.436,-0.13 0.6,-0.105 v 0 c 0.162,0.022 0.34,-0.011 0.528,-0.106 v 0 c 0.235,-0.047 0.504,-0.071 0.81,-0.071 v 0 c 0.304,0 0.575,-0.045 0.81,-0.141 v 0 h 0.704 c 0.375,-0.094 0.798,-0.094 1.266,0 v 0 c 0.238,0.096 0.483,0.119 0.743,0.069 v 0 c 0.256,-0.045 0.503,-0.045 0.738,0 v 0 c 0.565,0.143 1.115,0.249 1.655,0.318 v 0 c 0.538,0.07 1.068,0.222 1.586,0.459 v 0 c 1.315,0.562 2.486,1.22 3.52,1.972 v 0 c 0.329,0.233 0.681,0.573 1.059,1.02 v 0 c 0.373,0.446 0.749,0.715 1.125,0.811 v 0 c 0.282,0.045 0.493,-0.024 0.634,-0.212 v 0 c 0.14,-0.188 0.235,-0.435 0.28,-0.739 v 0 c 0.047,-0.307 0.083,-0.623 0.107,-0.951 v 0 c 0.024,-0.328 0.06,-0.587 0.107,-0.775 v 0 c 0.187,-0.423 0.397,-0.727 0.63,-0.916 v 0 c 0.19,-0.141 0.485,-0.234 0.884,-0.279 v 0 c 0.398,-0.049 0.821,-0.062 1.264,-0.036 v 0 c 0.448,0.022 0.86,0.069 1.236,0.141 v 0 c 0.372,0.069 0.658,0.174 0.844,0.318 v 0 c 0.329,0.233 0.505,0.595 0.526,1.088 v 0 c 0.027,0.495 0.038,1.022 0.038,1.586 v 0 6.34 18.945 4.788 1.374 c 0,0.446 -0.116,0.786 -0.351,1.022 v 0 c -0.236,0.375 -0.576,0.587 -1.024,0.632 v 0 c -0.443,0.048 -0.949,0.072 -1.511,0.072 v 0 z"
         id="path918" />
    </clipPath>
    <clipPath
       clipPathUnits="userSpaceOnUse"
       id="clipPath908">
      <path
         d="M 0,595.276 H 841.89 V 0 H 0 Z"
         id="path906" />
    </clipPath>
    <clipPath
       clipPathUnits="userSpaceOnUse"
       id="clipPath896">
      <path
         d="m 580.415,433.236 c -0.493,-0.025 -0.906,-0.036 -1.232,-0.036 v 0 c -0.095,0 -0.202,-0.011 -0.321,-0.035 v 0 c -0.114,-0.023 -0.244,-0.036 -0.387,-0.036 v 0 c -0.325,-0.14 -0.656,-0.327 -0.985,-0.561 v 0 c -0.327,-0.237 -0.586,-0.529 -0.773,-0.881 v 0 c -0.19,-0.354 -0.378,-0.694 -0.564,-1.021 v 0 c -0.421,-0.659 -0.844,-1.341 -1.269,-2.044 v 0 c -0.423,-0.704 -0.821,-1.385 -1.199,-2.043 v 0 c -0.231,-0.282 -0.442,-0.575 -0.63,-0.88 v 0 c -0.188,-0.304 -0.331,-0.644 -0.423,-1.021 v 0 c -0.095,-0.281 -0.083,-0.528 0.036,-0.738 v 0 c 0.116,-0.213 0.246,-0.365 0.387,-0.459 v 0 c 0.421,-0.235 0.997,-0.294 1.726,-0.177 v 0 c 0.728,0.116 1.254,0.271 1.583,0.459 v 0 c 0.235,0.141 0.459,0.329 0.671,0.564 v 0 c 0.211,0.233 0.409,0.468 0.598,0.703 v 0 c 0.141,0.141 0.293,0.282 0.457,0.423 v 0 c 0.164,0.141 0.293,0.305 0.385,0.493 v 0 c 0.19,0.235 0.378,0.433 0.566,0.599 v 0 c 0.188,0.164 0.376,0.363 0.563,0.598 v 0 c 0.095,0.047 0.154,0.094 0.176,0.141 v 0 c 0.024,0.047 0.08,0.116 0.178,0.211 v 0 c 0.186,0.234 0.385,0.433 0.596,0.599 v 0 c 0.212,0.164 0.39,0.363 0.528,0.6 v 0 c 0.235,0.28 0.459,0.551 0.672,0.81 v 0 c 0.21,0.256 0.432,0.503 0.667,0.739 v 0 c 0.234,0.233 0.495,0.493 0.773,0.774 v 0 c 0.285,0.283 0.471,0.564 0.568,0.844 v 0 c 0.091,0.33 0.116,0.589 0.069,0.775 v 0 c -0.141,0.188 -0.401,0.329 -0.775,0.423 v 0 c -0.375,0.094 -0.788,0.152 -1.235,0.177 v 0 c -0.221,0.011 -0.451,0.019 -0.684,0.019 v 0 c -0.235,0 -0.476,-0.008 -0.722,-0.019"
         id="path894" />
    </clipPath>
    <clipPath
       clipPathUnits="userSpaceOnUse"
       id="clipPath884">
      <path
         d="M 0,595.276 H 841.89 V 0 H 0 Z"
         id="path882" />
    </clipPath>
    <clipPath
       clipPathUnits="userSpaceOnUse"
       id="clipPath872">
      <path
         d="m 536.995,419.114 c -0.095,-0.096 -0.352,-0.132 -0.775,-0.106 v 0 c -0.423,0.025 -0.729,0.01 -0.915,-0.035 v 0 c -0.517,-0.094 -1.023,-0.163 -1.515,-0.211 v 0 c -0.493,-0.049 -0.977,-0.118 -1.443,-0.213 v 0 c -2.02,-0.563 -3.71,-1.302 -5.071,-2.217 v 0 c -1.363,-0.916 -2.49,-2.196 -3.382,-3.84 v 0 c -0.235,-0.514 -0.434,-1.044 -0.598,-1.582 v 0 c -0.167,-0.542 -0.318,-1.117 -0.459,-1.726 v 0 c -0.094,-0.378 -0.094,-0.729 0,-1.058 v 0 c 0.094,-0.327 0.235,-0.564 0.423,-0.703 v 0 c 0.188,-0.142 0.504,-0.249 0.951,-0.318 v 0 c 0.446,-0.069 0.903,-0.105 1.373,-0.105 v 0 c 0.47,0 0.929,0.036 1.374,0.105 v 0 c 0.446,0.069 0.76,0.176 0.951,0.318 v 0 c 0.327,0.233 0.549,0.564 0.669,0.984 v 0 c 0.117,0.423 0.247,0.822 0.388,1.2 v 0 c 0.233,0.515 0.504,0.996 0.81,1.442 v 0 c 0.304,0.445 0.644,0.81 1.019,1.093 v 0 c 0.752,0.514 1.524,0.915 2.325,1.197 v 0 c 0.565,0.186 1.245,0.329 2.042,0.423 v 0 c 0.799,0.094 1.62,0.141 2.468,0.141 v 0 c 0.844,0 1.653,-0.047 2.428,-0.141 v 0 c 0.774,-0.094 1.445,-0.26 2.007,-0.495 v 0 c 0.987,-0.376 1.75,-0.891 2.29,-1.548 v 0 c 0.539,-0.657 0.95,-1.551 1.229,-2.678 v 0 c 0.19,-0.703 0.19,-1.349 0,-1.936 v 0 c -0.188,-0.589 -0.419,-1.067 -0.701,-1.444 v 0 c -0.611,-0.844 -1.432,-1.374 -2.466,-1.584 v 0 c -1.033,-0.211 -2.136,-0.458 -3.309,-0.739 v 0 c -0.378,-0.097 -0.73,-0.154 -1.057,-0.177 v 0 c -0.329,-0.024 -0.659,-0.083 -0.987,-0.177 v 0 c -0.376,-0.094 -0.716,-0.14 -1.02,-0.14 v 0 c -0.306,0 -0.622,-0.048 -0.952,-0.14 v 0 c -0.703,-0.141 -1.407,-0.259 -2.115,-0.354 v 0 c -0.701,-0.093 -1.383,-0.236 -2.039,-0.423 v 0 c -1.739,-0.516 -3.336,-1.101 -4.79,-1.759 v 0 c -1.455,-0.658 -2.605,-1.667 -3.451,-3.029 v 0 c -0.281,-0.423 -0.518,-0.892 -0.704,-1.407 v 0 c -0.19,-0.52 -0.377,-1.034 -0.564,-1.551 v 0 c -0.046,-0.283 -0.082,-0.553 -0.107,-0.811 v 0 c -0.022,-0.257 -0.058,-0.504 -0.105,-0.739 v 0 -1.478 c 0,-1.456 0.212,-2.7 0.635,-3.735 v 0 c 0.564,-1.407 1.277,-2.498 2.147,-3.272 v 0 c 0.868,-0.777 2.008,-1.47 3.415,-2.08 v 0 c 0.33,-0.138 0.682,-0.246 1.059,-0.317 v 0 c 0.374,-0.07 0.749,-0.151 1.127,-0.246 v 0 c 0.14,-0.045 0.268,-0.059 0.387,-0.034 v 0 c 0.114,0.022 0.269,0.011 0.456,-0.036 v 0 c 0.188,-0.094 0.4,-0.141 0.635,-0.141 v 0 c 0.236,0 0.469,-0.022 0.704,-0.072 v 0 h 0.635 c 0.468,-0.092 0.963,-0.092 1.478,0 v 0 h 0.528 c 0.163,0 0.365,0.027 0.6,0.072 v 0 c 0.515,0.094 1.043,0.166 1.585,0.211 v 0 c 0.537,0.048 1.043,0.14 1.513,0.281 v 0 c 0.799,0.235 1.551,0.504 2.254,0.81 v 0 c 0.705,0.306 1.363,0.646 1.972,1.022 v 0 c 0.425,0.282 0.855,0.61 1.304,0.986 v 0 c 0.444,0.375 0.927,0.634 1.44,0.775 v 0 c 0.19,0.047 0.342,0.023 0.461,-0.07 v 0 c 0.115,-0.095 0.222,-0.187 0.316,-0.282 v 0 c 0.282,-0.283 0.517,-0.646 0.705,-1.091 v 0 c 0.188,-0.448 0.398,-0.836 0.633,-1.162 v 0 c 0.376,-0.519 1.067,-0.952 2.079,-1.303 v 0 c 1.008,-0.351 2.031,-0.412 3.063,-0.177 v 0 c 0.283,0.094 0.553,0.141 0.812,0.141 v 0 c 0.255,0 0.502,0.047 0.739,0.141 v 0 c 0.468,0.237 0.844,0.598 1.124,1.093 v 0 c 0.284,0.492 0.353,1.112 0.214,1.866 v 0 c -0.047,0.233 -0.071,0.423 -0.071,0.562 v 0 c 0,0.141 -0.047,0.282 -0.143,0.421 v 0 c -0.188,0.376 -0.468,0.6 -0.843,0.671 v 0 c -0.375,0.071 -0.774,0.199 -1.198,0.387 v 0 c -0.378,0.142 -0.683,0.377 -0.916,0.704 v 0 c -0.235,0.375 -0.376,0.869 -0.421,1.479 v 0 c -0.047,0.611 -0.074,1.243 -0.074,1.902 v 0 15.566 c 0,1.362 -0.033,2.664 -0.103,3.909 v 0 c -0.07,1.244 -0.32,2.334 -0.74,3.275 v 0 c -0.986,2.255 -2.7,3.78 -5.144,4.577 v 0 c -2.303,0.753 -4.984,1.131 -8.04,1.131 v 0 c -0.183,0 -0.365,-0.001 -0.549,-0.003 m -2.572,-32.856 c -0.493,0.021 -0.906,0.081 -1.232,0.176 v 0 c -0.234,0.047 -0.469,0.069 -0.704,0.069 v 0 c -0.237,0 -0.47,0.024 -0.705,0.071 v 0 c -0.704,0.233 -1.362,0.529 -1.97,0.88 v 0 c -0.613,0.351 -1.106,0.786 -1.481,1.303 v 0 c -0.235,0.329 -0.435,0.694 -0.599,1.092 v 0 c -0.165,0.399 -0.246,0.833 -0.246,1.304 v 0 c -0.046,1.031 0.044,1.911 0.282,2.64 v 0 c 0.235,0.728 0.587,1.35 1.057,1.867 v 0 c 0.468,0.516 1.032,0.951 1.69,1.303 v 0 c 0.654,0.352 1.363,0.644 2.113,0.879 v 0 c 0.374,0.095 0.716,0.178 1.021,0.247 v 0 c 0.306,0.072 0.644,0.152 1.02,0.248 v 0 c 0.708,0.187 1.468,0.292 2.29,0.316 v 0 c 0.822,0.024 1.583,0.128 2.289,0.316 v 0 c 0.187,0 0.361,0.011 0.529,0.035 v 0 c 0.164,0.025 0.316,0.036 0.457,0.036 v 0 c 0.47,0.094 0.938,0.188 1.406,0.284 v 0 c 0.472,0.092 0.895,0.186 1.269,0.28 v 0 c 0.186,0.094 0.4,0.141 0.635,0.141 v 0 c 0.235,0 0.397,0.048 0.495,0.141 v 0 c 0.515,0 0.844,-0.047 0.985,-0.141 v 0 c 0.329,-0.235 0.517,-0.562 0.56,-0.985 v 0 c 0.049,-0.423 0.073,-0.893 0.073,-1.41 v 0 c 0,-0.938 -0.01,-1.842 -0.036,-2.713 v 0 c -0.024,-0.866 -0.176,-1.629 -0.456,-2.287 v 0 c -0.517,-1.363 -1.258,-2.442 -2.218,-3.239 v 0 c -0.965,-0.801 -2.126,-1.48 -3.49,-2.043 v 0 c -0.326,-0.142 -0.667,-0.236 -1.019,-0.283 v 0 c -0.353,-0.047 -0.716,-0.118 -1.091,-0.211 v 0 c -0.283,-0.093 -0.565,-0.129 -0.846,-0.105 v 0 c -0.281,0.022 -0.563,-0.013 -0.844,-0.107 v 0 c -0.262,-0.073 -0.572,-0.113 -0.937,-0.113 v 0 c -0.094,0 -0.194,0.004 -0.297,0.009"
         id="path870" />
    </clipPath>
    <clipPath
       clipPathUnits="userSpaceOnUse"
       id="clipPath860">
      <path
         d="M 0,595.276 H 841.89 V 0 H 0 Z"
         id="path858" />
    </clipPath>
    <clipPath
       clipPathUnits="userSpaceOnUse"
       id="clipPath848">
      <path
         d="m 494.524,433.129 c -0.094,-0.092 -0.282,-0.117 -0.564,-0.07 v 0 c -0.284,0.047 -0.491,0.047 -0.633,0 v 0 c -0.376,-0.094 -0.789,-0.139 -1.234,-0.139 v 0 c -0.449,0 -0.857,-0.047 -1.231,-0.143 v 0 c -0.376,-0.094 -0.729,-0.175 -1.057,-0.244 v 0 c -0.328,-0.072 -0.682,-0.154 -1.056,-0.249 v 0 c -1.363,-0.376 -2.561,-0.821 -3.592,-1.338 v 0 c -0.097,-0.094 -0.213,-0.152 -0.352,-0.175 v 0 c -0.143,-0.025 -0.259,-0.082 -0.354,-0.177 v 0 c -1.269,-0.801 -2.419,-1.678 -3.451,-2.64 v 0 c -1.032,-0.963 -1.878,-2.15 -2.536,-3.557 v 0 c -0.188,-0.423 -0.34,-0.869 -0.457,-1.338 v 0 c -0.119,-0.471 -0.247,-0.964 -0.389,-1.48 v 0 c -0.137,-0.469 -0.255,-1.14 -0.35,-2.006 v 0 c -0.093,-0.871 -0.071,-1.587 0.069,-2.149 v 0 c 0,-0.141 0.01,-0.282 0.037,-0.423 v 0 c 0.022,-0.141 0.035,-0.306 0.035,-0.493 v 0 c 0.139,-0.519 0.258,-1.022 0.351,-1.515 v 0 c 0.095,-0.493 0.261,-0.951 0.495,-1.374 v 0 c 0.513,-1.22 1.22,-2.216 2.111,-2.993 v 0 c 0.889,-0.774 1.878,-1.489 2.959,-2.148 v 0 c 0.423,-0.28 0.869,-0.516 1.337,-0.703 v 0 c 0.468,-0.188 0.94,-0.377 1.412,-0.565 v 0 c 0.092,-0.046 0.162,-0.071 0.207,-0.071 v 0 c 0.048,0 0.118,-0.022 0.214,-0.068 v 0 c 0.658,-0.284 1.361,-0.508 2.113,-0.671 v 0 c 0.75,-0.163 1.502,-0.362 2.254,-0.598 v 0 c 1.314,-0.375 2.675,-0.705 4.085,-0.985 v 0 c 1.408,-0.281 2.782,-0.577 4.121,-0.882 v 0 c 1.337,-0.306 2.616,-0.668 3.838,-1.091 v 0 c 1.221,-0.423 2.322,-0.986 3.309,-1.691 v 0 c 0.656,-0.469 1.222,-0.973 1.688,-1.513 v 0 c 0.472,-0.54 0.846,-1.211 1.13,-2.007 v 0 c 0.092,-0.189 0.139,-0.366 0.139,-0.529 v 0 c 0,-0.165 0.049,-0.365 0.142,-0.598 v 0 c 0.095,-0.33 0.142,-0.753 0.142,-1.269 v 0 c 0,-0.517 -0.047,-0.962 -0.142,-1.339 v 0 c -0.093,-0.376 -0.189,-0.749 -0.281,-1.125 v 0 c -0.097,-0.377 -0.213,-0.753 -0.353,-1.128 v 0 c -0.517,-1.174 -1.256,-2.103 -2.217,-2.781 v 0 c -0.964,-0.682 -2.054,-1.282 -3.277,-1.796 v 0 c -0.378,-0.142 -0.774,-0.247 -1.197,-0.316 v 0 c -0.421,-0.072 -0.821,-0.153 -1.196,-0.249 v 0 c -0.188,-0.094 -0.342,-0.129 -0.458,-0.105 v 0 c -0.119,0.022 -0.248,0.011 -0.388,-0.036 v 0 c -0.235,-0.047 -0.471,-0.069 -0.706,-0.069 v 0 c -0.235,0 -0.468,-0.025 -0.701,-0.07 v 0 h -0.495 c -0.235,-0.096 -0.53,-0.141 -0.88,-0.141 v 0 c -0.351,0 -0.622,0.022 -0.81,0.069 v 0 c -0.235,0.095 -0.483,0.117 -0.739,0.072 v 0 c -0.26,-0.047 -0.483,-0.047 -0.669,0 v 0 c -0.141,0 -0.282,0.009 -0.423,0.035 v 0 c -0.141,0.021 -0.259,0.035 -0.352,0.035 v 0 c -0.379,0.046 -0.751,0.093 -1.128,0.141 v 0 c -0.376,0.047 -0.751,0.116 -1.126,0.211 v 0 c -1.081,0.326 -2.09,0.682 -3.028,1.055 v 0 c -0.94,0.376 -1.808,0.869 -2.609,1.48 v 0 c -1.595,1.175 -2.792,2.769 -3.589,4.79 v 0 c -0.141,0.327 -0.248,0.657 -0.318,0.987 v 0 c -0.069,0.327 -0.154,0.656 -0.246,0.984 v 0 c -0.096,0.283 -0.153,0.552 -0.179,0.81 v 0 c -0.021,0.257 -0.103,0.505 -0.244,0.74 v 0 c -0.094,0.188 -0.305,0.376 -0.635,0.562 v 0 c -0.188,0.096 -0.35,0.132 -0.493,0.108 v 0 c -0.139,-0.025 -0.327,-0.012 -0.562,0.035 v 0 c -0.141,0.045 -0.318,0.069 -0.528,0.069 v 0 h -0.6 c -0.517,0 -1.046,-0.024 -1.585,-0.069 v 0 c -0.54,-0.047 -0.927,-0.237 -1.16,-0.563 v 0 c -0.236,-0.238 -0.353,-0.625 -0.353,-1.162 v 0 c 0,-0.542 0.046,-1.024 0.141,-1.447 v 0 c 0.093,-0.235 0.148,-0.49 0.176,-0.774 v 0 c 0.023,-0.28 0.081,-0.562 0.175,-0.844 v 0 c 0.236,-0.75 0.481,-1.457 0.741,-2.113 v 0 c 0.258,-0.658 0.576,-1.293 0.949,-1.903 v 0 c 1.129,-1.877 2.476,-3.404 4.052,-4.577 v 0 c 1.571,-1.175 3.509,-2.137 5.81,-2.885 v 0 c 0.468,-0.188 0.927,-0.33 1.375,-0.425 v 0 c 0.443,-0.095 0.925,-0.187 1.441,-0.283 v 0 c 0.234,-0.045 0.446,-0.08 0.636,-0.102 v 0 c 0.188,-0.026 0.374,-0.061 0.562,-0.108 v 0 c 0.423,-0.094 0.869,-0.141 1.337,-0.141 v 0 c 0.471,0 0.939,-0.045 1.409,-0.141 v 0 h 0.775 c 0.235,-0.047 0.575,-0.069 1.023,-0.069 v 0 c 0.445,0 0.783,0.022 1.02,0.069 v 0 c 0.283,0 0.564,0.013 0.846,0.034 v 0 c 0.283,0.026 0.563,0.035 0.844,0.035 v 0 c 0.235,0.05 0.482,0.072 0.741,0.072 v 0 c 0.257,0 0.504,0.024 0.739,0.07 v 0 c 0.564,0.143 1.128,0.246 1.69,0.317 v 0 c 0.564,0.071 1.104,0.202 1.621,0.387 v 0 c 0.517,0.141 0.998,0.285 1.444,0.423 v 0 c 0.445,0.141 0.903,0.305 1.374,0.493 v 0 c 1.407,0.658 2.721,1.41 3.944,2.254 v 0 c 1.219,0.846 2.227,1.878 3.028,3.1 v 0 c 0.423,0.564 0.774,1.173 1.057,1.831 v 0 c 0.282,0.656 0.539,1.338 0.774,2.041 v 0 c 0.139,0.376 0.222,0.763 0.246,1.162 v 0 c 0.023,0.401 0.081,0.788 0.177,1.164 v 0 0.562 c 0,0.188 0.02,0.377 0.07,0.564 v 0 0.635 0.775 c -0.095,0.28 -0.141,0.573 -0.141,0.88 v 0 c 0,0.304 -0.047,0.575 -0.142,0.81 v 0 c -0.093,0.468 -0.188,0.916 -0.281,1.339 v 0 c -0.094,0.421 -0.235,0.844 -0.421,1.267 v 0 c -0.519,1.171 -1.187,2.194 -2.008,3.064 v 0 c -0.824,0.867 -1.75,1.63 -2.782,2.288 v 0 c -0.8,0.517 -1.645,0.962 -2.535,1.338 v 0 c -0.894,0.377 -1.808,0.728 -2.748,1.057 v 0 c -0.423,0.14 -0.846,0.271 -1.269,0.387 v 0 c -0.421,0.117 -0.844,0.224 -1.267,0.316 v 0 c -0.188,0.047 -0.352,0.083 -0.493,0.107 v 0 c -0.14,0.024 -0.306,0.059 -0.494,0.107 v 0 c -0.658,0.233 -1.35,0.408 -2.077,0.527 v 0 c -0.727,0.118 -1.421,0.27 -2.076,0.457 v 0 c -0.424,0.142 -0.846,0.236 -1.268,0.283 v 0 c -0.423,0.045 -0.846,0.116 -1.268,0.211 v 0 c -1.366,0.374 -2.676,0.727 -3.945,1.057 v 0 c -1.268,0.326 -2.418,0.818 -3.45,1.477 v 0 c -0.893,0.517 -1.585,1.059 -2.077,1.622 v 0 c -0.495,0.563 -0.907,1.384 -1.234,2.465 v 0 c -0.095,0.329 -0.154,0.727 -0.177,1.195 v 0 c -0.024,0.47 0.01,0.893 0.106,1.269 v 0 c 0.094,0.47 0.173,0.905 0.246,1.304 v 0 c 0.071,0.397 0.199,0.785 0.387,1.162 v 0 c 0.377,0.939 0.94,1.727 1.689,2.358 v 0 c 0.753,0.636 1.597,1.14 2.538,1.515 v 0 c 1.642,0.751 3.686,1.127 6.128,1.127 v 0 h 1.126 c 0.374,0 0.749,-0.048 1.128,-0.141 v 0 h 0.564 c 0.28,-0.095 0.562,-0.153 0.844,-0.175 v 0 c 0.282,-0.025 0.564,-0.083 0.846,-0.177 v 0 c 1.5,-0.376 2.794,-0.938 3.873,-1.69 v 0 c 1.455,-0.938 2.579,-2.348 3.382,-4.226 v 0 c 0.231,-0.47 0.409,-1.01 0.528,-1.619 v 0 c 0.116,-0.61 0.315,-1.128 0.598,-1.551 v 0 c 0.093,-0.093 0.186,-0.174 0.281,-0.246 v 0 c 0.095,-0.07 0.189,-0.132 0.282,-0.177 v 0 c 0.187,-0.093 0.364,-0.14 0.528,-0.14 v 0 c 0.163,0 0.363,-0.025 0.599,-0.07 v 0 c 0.185,-0.047 0.374,-0.07 0.56,-0.07 v 0 h 0.639 c 0.562,0 1.101,0.023 1.619,0.07 v 0 c 0.516,0.045 0.889,0.235 1.126,0.562 v 0 c 0.14,0.235 0.219,0.575 0.248,1.022 v 0 c 0.021,0.446 -0.013,0.855 -0.108,1.232 v 0 c -0.235,0.891 -0.47,1.75 -0.703,2.572 v 0 c -0.236,0.822 -0.563,1.56 -0.986,2.218 v 0 c -0.143,0.235 -0.271,0.479 -0.388,0.738 v 0 c -0.118,0.261 -0.27,0.506 -0.458,0.741 v 0 c -0.188,0.235 -0.376,0.468 -0.566,0.706 v 0 c -0.186,0.233 -0.373,0.468 -0.558,0.703 v 0 c -0.098,0.141 -0.213,0.271 -0.356,0.387 v 0 c -0.139,0.118 -0.257,0.222 -0.353,0.317 v 0 c -0.092,0.093 -0.189,0.175 -0.278,0.247 v 0 c -0.099,0.069 -0.19,0.152 -0.284,0.247 v 0 c -0.235,0.234 -0.482,0.422 -0.739,0.563 v 0 c -0.257,0.141 -0.528,0.304 -0.811,0.492 v 0 c -1.596,1.032 -3.426,1.807 -5.492,2.326 v 0 c -1.746,0.436 -3.711,0.654 -5.892,0.654 v 0 c -0.4,0 -0.806,-0.007 -1.222,-0.022"
         id="path846" />
    </clipPath>
    <clipPath
       clipPathUnits="userSpaceOnUse"
       id="clipPath836">
      <path
         d="M 0,595.276 H 841.89 V 0 H 0 Z"
         id="path834" />
    </clipPath>
    <clipPath
       clipPathUnits="userSpaceOnUse"
       id="clipPath824">
      <path
         d="m 457.896,411.444 c -1.365,0 -2.476,-1.107 -2.476,-2.474 v 0 -3.724 c 0,-1.365 1.111,-2.471 2.476,-2.471 v 0 h 10.946 c 1.366,0 2.474,1.106 2.474,2.471 v 0 3.724 c 0,1.367 -1.108,2.474 -2.474,2.474 v 0 z"
         id="path822" />
    </clipPath>
    <clipPath
       clipPathUnits="userSpaceOnUse"
       id="clipPath812">
      <path
         d="M 0,595.276 H 841.89 V 0 H 0 Z"
         id="path810" />
    </clipPath>
    <clipPath
       clipPathUnits="userSpaceOnUse"
       id="clipPath800">
      <path
         d="m 449.209,439.289 h -32.985 -0.413 c -0.439,-0.109 -0.744,-0.22 -0.907,-0.328 v 0 c -0.443,-0.278 -0.701,-0.689 -0.783,-1.238 v 0 c -0.085,-0.551 -0.123,-1.183 -0.123,-1.897 v 0 -4.039 c 0,-0.44 0.011,-0.881 0.038,-1.319 v 0 c 0.03,-0.442 0.126,-0.798 0.287,-1.073 v 0 c 0.221,-0.329 0.553,-0.577 0.995,-0.742 v 0 c 0.438,-0.11 1.03,-0.153 1.773,-0.124 v 0 c 0.74,0.028 1.412,0.041 2.018,0.041 v 0 h 7.666 c 1.157,0 2.16,-0.041 3.013,-0.124 v 0 c 0.851,-0.081 1.415,-0.591 1.689,-1.525 v 0 c 0.112,-0.22 0.138,-0.442 0.085,-0.659 v 0 c -0.056,-0.221 -0.056,-0.467 0,-0.743 v 0 c 0.11,-0.329 0.151,-0.699 0.12,-1.113 v 0 c -0.026,-0.414 -0.039,-0.81 -0.039,-1.194 v 0 -7.01 -22.924 -8.247 -2.104 c 0,-0.685 0.137,-1.25 0.412,-1.69 v 0 c 0.274,-0.328 0.675,-0.522 1.197,-0.575 v 0 c 0.521,-0.057 1.084,-0.084 1.69,-0.084 v 0 h 5.606 1.402 c 0.493,0 0.933,0.055 1.32,0.167 v 0 c 0.604,0.273 0.949,0.727 1.032,1.359 v 0 c 0.083,0.632 0.121,1.388 0.121,2.267 v 0 7.751 23.749 7.341 c 0,0.327 -0.014,0.7 -0.038,1.113 v 0 c -0.03,0.41 -0.015,0.782 0.038,1.111 v 0 c 0.112,0.277 0.135,0.522 0.082,0.743 v 0 c -0.053,0.219 -0.053,0.468 0,0.742 v 0 c 0.277,0.934 0.812,1.444 1.61,1.525 v 0 c 0.796,0.083 1.744,0.124 2.842,0.124 v 0 h 8.414 c 1.155,0 2.144,0.026 2.969,0.083 v 0 c 0.825,0.054 1.374,0.549 1.648,1.483 v 0 c 0.11,0.332 0.149,0.672 0.124,1.031 v 0 c -0.028,0.358 -0.043,0.729 -0.043,1.114 v 0 3.215 0.827 c 0,0.272 -0.026,0.52 -0.081,0.74 v 0 0.412 c -0.056,0.274 -0.122,0.538 -0.206,0.784 v 0 c -0.083,0.248 -0.205,0.424 -0.371,0.536 v 0 c -0.442,0.274 -1.003,0.425 -1.694,0.454 v 0 c -0.684,0.027 -1.385,0.04 -2.099,0.04 v 0 z"
         id="path798" />
    </clipPath>
    <clipPath
       clipPathUnits="userSpaceOnUse"
       id="clipPath788">
      <path
         d="M 0,595.276 H 841.89 V 0 H 0 Z"
         id="path786" />
    </clipPath>
    <clipPath
       clipPathUnits="userSpaceOnUse"
       id="clipPath776">
      <path
         d="m 398.164,439.289 h -30.84 c -0.11,-0.055 -0.22,-0.069 -0.329,-0.04 v 0 c -0.113,0.027 -0.22,0.014 -0.331,-0.041 v 0 c -0.605,-0.166 -1.017,-0.442 -1.237,-0.825 v 0 c -0.22,-0.276 -0.329,-0.66 -0.329,-1.154 v 0 -1.483 -5.114 -17.978 -22.427 -5.939 -1.524 c 0,-0.522 0.109,-0.95 0.329,-1.278 v 0 c 0.276,-0.44 0.701,-0.701 1.278,-0.784 v 0 c 0.58,-0.081 1.25,-0.124 2.021,-0.124 v 0 h 6.514 24.409 6.181 1.692 c 0.525,0 0.947,0.137 1.28,0.414 v 0 c 0.44,0.274 0.686,0.701 0.743,1.276 v 0 c 0.054,0.578 0.083,1.197 0.083,1.857 v 0 3.794 c 0,0.437 -0.016,0.849 -0.042,1.236 v 0 c -0.028,0.384 -0.098,0.713 -0.207,0.99 v 0 c -0.165,0.438 -0.469,0.74 -0.91,0.906 v 0 c -0.327,0.165 -0.697,0.247 -1.111,0.247 v 0 h -1.276 -4.371 -15.504 -3.462 c -0.276,0 -0.577,-0.012 -0.908,-0.041 v 0 c -0.33,-0.028 -0.632,-0.014 -0.907,0.041 v 0 h -0.823 c -0.276,0.11 -0.537,0.178 -0.784,0.207 v 0 c -0.247,0.026 -0.453,0.123 -0.618,0.288 v 0 c -0.387,0.275 -0.622,0.674 -0.701,1.196 v 0 c -0.083,0.523 -0.125,1.113 -0.125,1.773 v 0 4.617 3.133 0.867 c 0,0.301 0.028,0.59 0.083,0.867 v 0 c 0.166,0.492 0.425,0.865 0.782,1.112 v 0 c 0.358,0.247 0.798,0.412 1.318,0.495 v 0 c 0.525,0.083 1.086,0.109 1.692,0.083 v 0 c 0.606,-0.031 1.235,-0.041 1.897,-0.041 v 0 h 16.08 c 0.384,0 0.867,-0.016 1.444,-0.042 v 0 c 0.575,-0.03 1.153,-0.041 1.732,-0.041 v 0 c 0.576,0 1.096,0.026 1.566,0.083 v 0 c 0.466,0.054 0.837,0.162 1.115,0.33 v 0 c 0.326,0.273 0.547,0.63 0.658,1.07 v 0 c 0.108,0.274 0.165,0.606 0.165,0.991 v 0 1.154 c 0,0.44 0.013,0.963 0.042,1.566 v 0 c 0.026,0.605 0.026,1.196 0,1.773 v 0 c -0.029,0.577 -0.099,1.112 -0.207,1.607 v 0 c -0.111,0.496 -0.303,0.825 -0.577,0.993 v 0 c -0.221,0.163 -0.566,0.272 -1.031,0.327 v 0 c -0.468,0.056 -0.975,0.096 -1.526,0.125 v 0 c -0.549,0.027 -1.113,0.027 -1.69,0 v 0 c -0.577,-0.029 -1.059,-0.043 -1.446,-0.043 v 0 h -14.18 -4.453 c -0.495,0 -0.962,0.014 -1.402,0.043 v 0 c -0.441,0.027 -0.827,0.151 -1.153,0.371 v 0 c -0.277,0.163 -0.47,0.396 -0.579,0.7 v 0 c -0.112,0.302 -0.221,0.674 -0.33,1.112 v 0 2.391 4.702 c 0,0.66 0.042,1.25 0.125,1.773 v 0 c 0.079,0.523 0.314,0.919 0.701,1.195 v 0 c 0.217,0.166 0.577,0.29 1.07,0.371 v 0 c 0.496,0.083 1.031,0.137 1.607,0.165 v 0 c 0.579,0.028 1.156,0.028 1.733,0 v 0 c 0.579,-0.028 1.087,-0.041 1.526,-0.041 v 0 h 14.925 5.689 1.569 c 0.493,0 0.907,0.109 1.235,0.33 v 0 c 0.384,0.219 0.662,0.658 0.825,1.319 v 0 c 0,0.551 0.026,0.962 0.081,1.237 v 0 c 0.057,0.385 0.071,0.783 0.044,1.197 v 0 c -0.028,0.412 -0.044,0.837 -0.044,1.277 v 0 c 0,0.383 0.016,0.796 0.044,1.238 v 0 c 0.027,0.438 0.013,0.852 -0.044,1.236 v 0 0.908 c -0.108,0.218 -0.176,0.437 -0.204,0.658 v 0 c -0.029,0.219 -0.096,0.413 -0.207,0.578 v 0 c -0.274,0.384 -0.714,0.603 -1.32,0.66 v 0 c -0.605,0.055 -1.237,0.081 -1.895,0.081 v 0 z"
         id="path774" />
    </clipPath>
    <clipPath
       clipPathUnits="userSpaceOnUse"
       id="clipPath764">
      <path
         d="M 0,595.276 H 841.89 V 0 H 0 Z"
         id="path762" />
    </clipPath>
    <clipPath
       clipPathUnits="userSpaceOnUse"
       id="clipPath752">
      <path
         d="m 337.723,439.332 c -0.497,-0.028 -0.991,-0.043 -1.484,-0.043 v 0 h -23.833 c -0.109,-0.055 -0.233,-0.069 -0.371,-0.04 v 0 c -0.14,0.027 -0.261,0.014 -0.371,-0.041 v 0 c -0.604,-0.221 -1.017,-0.496 -1.236,-0.825 v 0 c -0.276,-0.44 -0.398,-1.183 -0.372,-2.228 v 0 c 0.026,-1.043 0.043,-1.949 0.043,-2.72 v 0 -49.31 c 0,-0.605 0.025,-1.198 0.081,-1.773 v 0 c 0.054,-0.577 0.248,-1.004 0.577,-1.279 v 0 c 0.33,-0.276 0.756,-0.426 1.278,-0.452 v 0 c 0.521,-0.028 1.086,-0.043 1.691,-0.043 v 0 h 4.782 c 0.44,0 0.88,-0.028 1.321,-0.081 v 0 c 0.439,-0.054 0.851,-0.027 1.234,0.081 v 0 c 0.772,0.219 1.268,0.522 1.487,0.908 v 0 c 0.273,0.44 0.397,1.043 0.373,1.814 v 0 c -0.031,0.769 -0.044,1.485 -0.044,2.145 v 0 10.883 2.844 c 0,0.963 0.274,1.638 0.823,2.023 v 0 c 0.44,0.326 1.058,0.494 1.858,0.494 v 0 h 2.267 6.925 3.382 c 0.332,0.053 0.66,0.083 0.99,0.083 v 0 c 0.33,0 0.659,0.026 0.99,0.081 v 0 c 0.66,0.165 1.32,0.276 1.98,0.33 v 0 c 0.659,0.053 1.289,0.193 1.894,0.412 v 0 c 1.98,0.66 3.753,1.47 5.319,2.433 v 0 c 1.568,0.96 2.901,2.212 4.001,3.752 v 0 c 0.274,0.331 0.507,0.673 0.699,1.032 v 0 c 0.193,0.356 0.4,0.727 0.62,1.113 v 0 c 0.109,0.218 0.207,0.424 0.287,0.616 v 0 c 0.083,0.195 0.179,0.399 0.29,0.621 v 0 c 0.383,0.878 0.713,1.827 0.989,2.844 v 0 c 0.274,1.015 0.468,2.131 0.577,3.339 v 0 c 0.165,3.023 -0.04,5.608 -0.618,7.751 v 0 c -0.577,2.145 -1.499,4.096 -2.763,5.855 v 0 c -0.441,0.661 -0.989,1.321 -1.649,1.979 v 0 l -0.493,0.496 c -0.277,0.218 -0.51,0.424 -0.701,0.616 v 0 c -0.194,0.194 -0.429,0.373 -0.703,0.538 v 0 c -0.33,0.273 -0.66,0.494 -0.99,0.66 v 0 c -0.33,0.164 -0.633,0.355 -0.906,0.577 v 0 c -0.77,0.438 -1.595,0.782 -2.473,1.03 v 0 c -0.88,0.249 -1.759,0.508 -2.64,0.782 v 0 c -0.274,0.111 -0.523,0.166 -0.74,0.166 v 0 c -0.22,0 -0.472,0.028 -0.743,0.085 v 0 c -0.274,0.107 -0.577,0.162 -0.908,0.162 v 0 c -0.329,0 -0.632,0.055 -0.906,0.166 v 0 h -0.413 c -0.354,0.086 -0.724,0.132 -1.114,0.132 v 0 c -0.095,0 -0.191,-0.002 -0.287,-0.008 m -11.956,-27.791 c -0.553,0.029 -1.048,0.124 -1.485,0.29 v 0 c -0.442,0.166 -0.772,0.414 -0.991,0.741 v 0 c -0.275,0.44 -0.412,1.06 -0.412,1.857 v 0 2.185 7.833 2.021 c 0,0.74 0.109,1.331 0.331,1.773 v 0 c 0.165,0.438 0.521,0.768 1.072,0.989 v 0 c 0.165,0 0.316,0.012 0.452,0.041 v 0 c 0.136,0.028 0.288,0.068 0.456,0.124 v 0 c 1.319,0 2.72,0.013 4.203,0.042 v 0 c 1.483,0.026 2.928,0.012 4.328,-0.042 v 0 c 1.402,-0.056 2.706,-0.207 3.919,-0.453 v 0 c 1.209,-0.248 2.226,-0.62 3.051,-1.113 v 0 c 0.989,-0.605 1.732,-1.267 2.226,-1.98 v 0 c 0.496,-0.714 0.908,-1.676 1.237,-2.887 v 0 c 0.165,-0.605 0.26,-1.359 0.289,-2.267 v 0 c 0.027,-0.906 -0.015,-1.662 -0.124,-2.267 v 0 c -0.219,-0.715 -0.442,-1.362 -0.659,-1.937 v 0 c -0.22,-0.578 -0.499,-1.112 -0.826,-1.609 v 0 c -1.265,-1.651 -3.107,-2.613 -5.525,-2.885 v 0 c -2.421,-0.277 -5.085,-0.412 -7.999,-0.412 v 0 c -0.549,0 -1.141,-0.015 -1.77,-0.044 v 0 c -0.318,-0.012 -0.623,-0.02 -0.92,-0.02 v 0 c -0.295,0 -0.581,0.008 -0.853,0.02"
         id="path750" />
    </clipPath>
    <clipPath
       clipPathUnits="userSpaceOnUse"
       id="clipPath734">
      <path
         d="M 0,595.276 H 841.89 V 0 H 0 Z"
         id="path732" />
    </clipPath>
    <clipPath
       clipPathUnits="userSpaceOnUse"
       id="clipPath722">
      <path
         d="m 258.071,384.72 v -32.502 c 1.416,-0.454 2.449,-1.765 2.449,-3.331 v 0 c 0,-1.941 -1.572,-3.513 -3.512,-3.513 v 0 c -1.94,0 -3.511,1.572 -3.511,3.513 v 0 c 0,1.541 0.999,2.837 2.381,3.309 v 0 31.365 c -4.984,-2.813 -9.393,-6.491 -12.625,-11.29 v 0 c -0.11,-0.152 -0.188,-0.329 -0.406,-0.596 v 0 c -0.4,0.216 -0.354,0.2 -0.627,0.358 v 0 c -2.33,1.345 -4.711,2.416 -7.109,3.269 v 0 -22.633 c 1.417,-0.452 2.449,-1.764 2.449,-3.33 v 0 c 0,-1.94 -1.572,-3.513 -3.512,-3.513 v 0 c -1.94,0 -3.512,1.573 -3.512,3.513 v 0 c 0,1.541 1,2.837 2.381,3.31 v 0 23.374 c -13.95,4.154 -28.261,1.063 -37.208,-1.931 v 0 c 1.251,-3.615 4.689,-6.233 8.717,-6.233 v 0 h 19.417 V 348.44 c 0,-5.075 4.152,-9.227 9.228,-9.227 v 0 h 11.556 v 18.714 c -1.383,0.473 -2.382,1.769 -2.382,3.31 v 0 c 0,1.94 1.572,3.512 3.513,3.512 v 0 c 1.939,0 3.511,-1.572 3.511,-3.512 v 0 c 0,-1.566 -1.032,-2.878 -2.449,-3.33 v 0 -18.694 h 10.475 c 5.076,0 9.227,4.152 9.227,9.227 v 0 19.419 h 19.418 c 5.076,0 9.228,4.152 9.228,9.227 v 0 0.373 h -22.113 c -0.453,-1.416 -1.764,-2.45 -3.331,-2.45 v 0 c -1.94,0 -3.512,1.573 -3.512,3.514 v 0 c 0,1.939 1.572,3.511 3.512,3.511 v 0 c 1.542,0 2.837,-0.999 3.31,-2.382 v 0 h 22.134 v 12.833 c -9.619,-0.186 -24.761,-1.593 -37.097,-7.765"
         id="path720" />
    </clipPath>
    <clipPath
       clipPathUnits="userSpaceOnUse"
       id="clipPath710">
      <path
         d="M 0,595.276 H 841.89 V 0 H 0 Z"
         id="path708" />
    </clipPath>
    <clipPath
       clipPathUnits="userSpaceOnUse"
       id="clipPath698">
      <path
         d="m 224.228,427.674 c -0.481,-0.366 -1.019,-0.474 -1.604,-0.475 v 0 c -2.844,-0.004 -5.688,-0.012 -8.531,-0.024 v 0 c -0.115,-0.001 -0.232,-0.002 -0.348,-0.003 v 0 c -0.982,-2.197 -1.597,-4.601 -1.718,-7.151 v 0 c -0.522,-10.957 7.938,-20.263 18.896,-20.785 v 0 c 10.957,-0.522 20.263,7.937 20.785,18.895 v 0 c 0.439,9.205 -5.472,17.222 -13.868,19.868 v 0 c -4.539,-3.439 -9.077,-6.88 -13.612,-10.325"
         id="path696" />
    </clipPath>
    <clipPath
       clipPathUnits="userSpaceOnUse"
       id="clipPath678">
      <path
         d="M 0,595.276 H 841.89 V 0 H 0 Z"
         id="path676" />
    </clipPath>
  </defs>
  <g
     inkscape:label="Camada 1"
     inkscape:groupmode="layer"
     id="layer1">
    <g
       id="g672"
       transform="matrix(3.75,0,0,-3.7499999,-651.74754,1815.1375)">
      <g
         id="g674"
         clip-path="url(#clipPath678)">
        <g
           id="g680"
           transform="translate(285.94,410.5381)">
          <path
             d="m 0,0 h -19.417 v 19.417 c 0,5.076 -4.153,9.229 -9.229,9.229 h -14.556 c 7.175,-3.977 12.036,-11.618 12.036,-20.401 0,-12.877 -10.439,-23.316 -23.316,-23.316 -9.97,0 -18.454,6.27 -21.787,15.071 h -5.245 c -5.076,0 -9.228,-4.152 -9.228,-9.228 v -13.183 c 10.826,1.588 30.532,1.76 46.701,-13.116 8.132,20.809 32.047,31.044 45.838,35.347 C 1.216,-0.064 0.615,0 0,0"
             style="fill:#459fd8;fill-opacity:1;fill-rule:nonzero;stroke:none"
             id="path682" />
        </g>
        <g
           id="g684"
           transform="translate(203.6951,407.935)">
          <path
             d="M 0,0 C 0.246,0.607 0.39,1.054 0.6,1.466 1.785,3.798 2.081,6.279 1.87,8.847 1.85,9.081 1.817,9.313 1.787,9.546 c -0.08,0.625 -0.28,1.049 -1.007,1.278 -1.423,0.449 -1.936,2.365 -1.031,3.599 0.247,0.339 0.281,0.632 0.189,1.02 -0.374,1.589 -0.588,3.197 -0.349,4.831 0.076,0.524 0.232,1.037 0.372,1.643 -0.573,0.011 -1.118,0.037 -1.663,0.029 -1.004,-0.013 -2.007,-0.053 -3.011,-0.065 -0.333,-0.004 -0.667,0.033 -1,0.067 -0.42,0.044 -0.799,0.265 -0.851,0.663 -0.04,0.298 0.095,0.739 0.316,0.933 0.802,0.704 1.666,1.339 2.518,1.985 5.305,4.019 10.63,8.011 15.901,12.074 0.988,0.762 1.959,1.131 3.202,1.129 7.093,-0.008 14.186,0.041 21.278,0.072 0.552,0.002 1.105,0.045 1.656,0.024 0.534,-0.019 1.067,-0.129 1.258,-0.726 0.186,-0.584 -0.194,-0.956 -0.603,-1.268 -1.477,-1.123 -2.969,-2.229 -4.448,-3.35 -4.84,-3.666 -9.678,-7.335 -14.512,-11.008 -0.481,-0.365 -1.019,-0.473 -1.604,-0.474 -2.844,-0.004 -5.689,-0.013 -8.532,-0.024 -1.355,-0.005 -2.708,-0.017 -4.17,-0.027 0.228,0.228 0.383,0.412 0.565,0.563 3.218,2.668 6.442,5.332 9.661,8.001 0.295,0.245 0.599,0.491 0.841,0.784 0.398,0.479 0.37,1.053 -0.012,1.526 -0.301,0.372 -0.787,0.483 -1.321,0.146 C 14.614,32.455 13.815,31.895 13.074,31.277 10.185,28.862 7.307,26.433 4.459,23.969 3.808,23.406 3.226,22.731 2.731,22.025 1.736,20.602 1.728,18.977 1.953,17.331 1.985,17.099 2.04,16.869 2.057,16.636 2.107,15.958 2.34,15.495 3.039,15.171 4.164,14.652 4.587,13.333 4.109,12.166 3.921,11.706 3.95,11.352 4.171,10.898 5.039,9.121 5.919,7.342 6.299,5.375 6.637,3.626 6.437,1.969 5.414,0.467 4.923,-0.252 4.251,-0.635 3.357,-0.507 2.284,-0.354 1.214,-0.184 0,0"
             style="fill:#e9521e;fill-opacity:1;fill-rule:nonzero;stroke:none"
             id="path686" />
        </g>
        <g
           id="g688"
           transform="translate(224.2278,427.6734)">
          <path
             d="m 0,0 c -0.481,-0.365 -1.019,-0.473 -1.604,-0.474 -2.844,-0.004 -5.687,-0.013 -8.531,-0.024 -0.115,-0.001 -0.232,-0.002 -0.348,-0.003 -0.982,-2.197 -1.597,-4.601 -1.718,-7.152 -0.521,-10.956 7.938,-20.262 18.896,-20.784 C 17.653,-28.96 26.958,-20.5 27.48,-9.542 27.919,-0.337 22.007,7.68 13.613,10.325 9.073,6.886 4.535,3.445 0,0"
             style="fill:#e9521e;fill-opacity:1;fill-rule:nonzero;stroke:none"
             id="path690" />
        </g>
      </g>
    </g>
    <g
       id="g692"
       transform="matrix(3.75,0,0,-3.7499999,-651.74754,1815.1375)">
      <g
         id="g694"
         clip-path="url(#clipPath698)">
        <g
           id="g700"
           transform="translate(264.3743,402.9841)">
          <path
             d="M 0,0 -16.646,47.665 -65.097,30.744 -48.451,-16.92 Z"
             style="fill:#e9521e;fill-opacity:1;fill-rule:nonzero;stroke:none"
             id="path702" />
        </g>
      </g>
    </g>
    <g
       id="g704"
       transform="matrix(3.75,0,0,-3.7499999,-651.74754,1815.1375)">
      <g
         id="g706"
         clip-path="url(#clipPath710)">
        <g
           id="g712"
           transform="translate(258.0712,384.7205)">
          <path
             d="m 0,0 v -32.503 c 1.416,-0.453 2.449,-1.765 2.449,-3.331 0,-1.94 -1.572,-3.513 -3.512,-3.513 -1.94,0 -3.512,1.573 -3.512,3.513 0,1.542 1,2.837 2.382,3.31 v 31.365 c -4.984,-2.814 -9.394,-6.491 -12.625,-11.291 -0.111,-0.151 -0.188,-0.328 -0.407,-0.596 -0.4,0.216 -0.353,0.201 -0.627,0.358 -2.33,1.345 -4.71,2.417 -7.109,3.269 v -22.632 c 1.417,-0.453 2.45,-1.764 2.45,-3.331 0,-1.939 -1.572,-3.512 -3.512,-3.512 -1.94,0 -3.513,1.573 -3.513,3.512 0,1.542 1,2.838 2.382,3.31 v 23.374 c -13.95,4.155 -28.261,1.063 -37.209,-1.93 1.252,-3.616 4.69,-6.234 8.717,-6.234 h 19.418 V -36.28 c 0,-5.075 4.152,-9.228 9.228,-9.228 h 11.556 v 18.715 c -1.383,0.472 -2.382,1.768 -2.382,3.31 0,1.939 1.572,3.511 3.512,3.511 1.94,0 3.512,-1.572 3.512,-3.511 0,-1.567 -1.032,-2.878 -2.449,-3.331 v -18.694 h 10.475 c 5.076,0 9.227,4.153 9.227,9.228 v 19.418 h 19.418 c 5.075,0 9.228,4.153 9.228,9.227 v 0.374 H 14.984 c -0.453,-1.416 -1.764,-2.45 -3.331,-2.45 -1.94,0 -3.512,1.573 -3.512,3.513 0,1.94 1.572,3.512 3.512,3.512 1.542,0 2.838,-1 3.31,-2.382 H 37.097 V 7.764 C 27.478,7.579 12.335,6.172 0,0"
             style="fill:#153a60;fill-opacity:1;fill-rule:nonzero;stroke:none"
             id="path714" />
        </g>
      </g>
    </g>
    <g
       id="g716"
       transform="matrix(3.75,0,0,-3.7499999,-651.74754,1815.1375)">
      <g
         id="g718"
         clip-path="url(#clipPath722)">
        <g
           id="g724"
           transform="translate(171.2178,376.3203)">
          <path
             d="m 0,0 54.669,-82.833 93.772,61.89 -54.67,82.832 z"
             style="fill:#153a60;fill-opacity:1;fill-rule:nonzero;stroke:none"
             id="path726" />
        </g>
      </g>
    </g>
    <g
       id="g728"
       transform="matrix(3.75,0,0,-3.7499999,-651.74754,1815.1375)">
      <g
         id="g730"
         clip-path="url(#clipPath734)">
        <g
           id="g736"
           transform="translate(304.6714,307.3257)">
          <path
             d="m 0,0 h -99.019 c -15.285,0 -27.72,12.386 -27.72,27.609 v 38.54 h -1.932 v -38.54 c 0,-16.289 13.301,-29.541 29.652,-29.541 H 0 Z"
             style="fill:#b0aeae;fill-opacity:1;fill-rule:nonzero;stroke:none"
             id="path738" />
        </g>
        <path
           d="M 301.452,305.394 H 685 v 1.932 H 301.452 Z"
           style="fill:#b0aeae;fill-opacity:1;fill-rule:nonzero;stroke:none"
           id="path740" />
        <g
           id="g742"
           transform="translate(337.7228,439.3323)">
          <path
             d="m 0,0 c -0.496,-0.028 -0.991,-0.043 -1.483,-0.043 h -23.834 c -0.109,-0.055 -0.233,-0.07 -0.37,-0.04 -0.141,0.027 -0.261,0.013 -0.372,-0.041 -0.604,-0.222 -1.017,-0.496 -1.235,-0.825 -0.277,-0.44 -0.399,-1.183 -0.373,-2.228 0.027,-1.043 0.044,-1.95 0.044,-2.72 v -49.31 c 0,-0.606 0.024,-1.198 0.08,-1.773 0.055,-0.577 0.249,-1.004 0.578,-1.278 0.329,-0.277 0.755,-0.427 1.278,-0.453 0.521,-0.029 1.085,-0.044 1.69,-0.044 h 4.782 c 0.44,0 0.88,-0.028 1.322,-0.08 0.438,-0.055 0.85,-0.027 1.233,0.08 0.773,0.22 1.267,0.523 1.487,0.908 0.273,0.44 0.397,1.044 0.372,1.814 -0.03,0.769 -0.043,1.486 -0.043,2.145 v 10.883 2.845 c 0,0.962 0.275,1.637 0.824,2.022 0.44,0.327 1.058,0.495 1.857,0.495 h 2.267 6.926 3.382 c 0.331,0.052 0.66,0.082 0.989,0.082 0.33,0 0.659,0.027 0.99,0.081 0.66,0.166 1.32,0.277 1.98,0.331 0.66,0.053 1.289,0.192 1.895,0.412 1.979,0.66 3.752,1.47 5.318,2.432 1.568,0.961 2.901,2.213 4,3.753 0.275,0.331 0.508,0.673 0.7,1.032 0.193,0.355 0.4,0.727 0.62,1.113 0.109,0.218 0.207,0.425 0.288,0.616 0.082,0.194 0.178,0.399 0.289,0.621 0.384,0.878 0.713,1.827 0.989,2.844 0.275,1.015 0.468,2.13 0.577,3.339 0.166,3.023 -0.039,5.607 -0.618,7.751 -0.577,2.145 -1.499,4.096 -2.762,5.856 -0.442,0.659 -0.991,1.319 -1.65,1.977 l -0.493,0.496 c -0.276,0.218 -0.509,0.425 -0.701,0.617 -0.194,0.194 -0.429,0.372 -0.703,0.538 -0.329,0.272 -0.66,0.494 -0.989,0.66 -0.331,0.163 -0.634,0.355 -0.906,0.577 -0.771,0.438 -1.596,0.782 -2.474,1.03 -0.88,0.248 -1.76,0.507 -2.64,0.782 -0.274,0.111 -0.522,0.165 -0.74,0.165 -0.22,0 -0.472,0.029 -0.743,0.085 -0.274,0.107 -0.577,0.163 -0.908,0.163 -0.329,0 -0.631,0.055 -0.906,0.166 H 1.401 C 1.047,-0.038 0.677,0.008 0.288,0.008 0.192,0.008 0.096,0.006 0,0 m -11.956,-27.791 c -0.553,0.029 -1.047,0.124 -1.485,0.29 -0.442,0.165 -0.771,0.413 -0.991,0.741 -0.275,0.439 -0.412,1.06 -0.412,1.857 v 2.184 7.834 2.021 c 0,0.74 0.109,1.331 0.331,1.773 0.166,0.438 0.521,0.768 1.072,0.988 0.165,0 0.315,0.014 0.453,0.042 0.135,0.028 0.287,0.067 0.455,0.124 1.319,0 2.72,0.013 4.203,0.041 1.483,0.026 2.929,0.013 4.328,-0.041 1.402,-0.057 2.707,-0.207 3.919,-0.453 1.209,-0.248 2.226,-0.621 3.051,-1.113 0.989,-0.605 1.732,-1.267 2.226,-1.98 0.496,-0.714 0.908,-1.677 1.237,-2.887 0.166,-0.606 0.26,-1.359 0.29,-2.267 0.026,-0.907 -0.015,-1.662 -0.124,-2.268 -0.22,-0.714 -0.442,-1.361 -0.66,-1.936 -0.22,-0.579 -0.498,-1.113 -0.826,-1.609 -1.265,-1.651 -3.107,-2.613 -5.525,-2.886 -2.421,-0.276 -5.085,-0.411 -7.999,-0.411 -0.549,0 -1.141,-0.015 -1.77,-0.044 -0.318,-0.013 -0.623,-0.02 -0.92,-0.02 -0.295,0 -0.581,0.007 -0.853,0.02"
             style="fill:#e9521e;fill-opacity:1;fill-rule:nonzero;stroke:none"
             id="path744" />
        </g>
      </g>
    </g>
    <g
       id="g746"
       transform="matrix(3.75,0,0,-3.7499999,-651.74754,1815.1375)">
      <g
         id="g748"
         clip-path="url(#clipPath752)">
        <g
           id="g754"
           transform="translate(356.9296,379.9211)">
          <path
             d="M 0,0 0.66,59.411 -46.894,59.94 -47.554,0.528 Z"
             style="fill:#e9521e;fill-opacity:1;fill-rule:nonzero;stroke:none"
             id="path756" />
        </g>
      </g>
    </g>
    <g
       id="g758"
       transform="matrix(3.75,0,0,-3.7499999,-651.74754,1815.1375)">
      <g
         id="g760"
         clip-path="url(#clipPath764)">
        <g
           id="g766"
           transform="translate(398.1637,439.2891)">
          <path
             d="m 0,0 h -30.84 c -0.109,-0.055 -0.22,-0.07 -0.329,-0.039 -0.113,0.026 -0.22,0.013 -0.331,-0.042 -0.605,-0.165 -1.017,-0.442 -1.237,-0.825 -0.22,-0.276 -0.329,-0.66 -0.329,-1.154 V -3.544 -8.657 -26.635 -49.062 -55 -56.525 c 0,-0.523 0.109,-0.949 0.329,-1.278 0.277,-0.44 0.702,-0.702 1.279,-0.784 0.579,-0.081 1.25,-0.124 2.021,-0.124 h 6.513 24.409 6.181 1.692 c 0.525,0 0.948,0.137 1.28,0.413 0.44,0.275 0.687,0.701 0.743,1.277 0.054,0.579 0.083,1.197 0.083,1.857 v 3.794 c 0,0.438 -0.015,0.849 -0.042,1.237 -0.028,0.383 -0.097,0.712 -0.206,0.988 -0.166,0.438 -0.47,0.741 -0.91,0.907 -0.327,0.165 -0.698,0.248 -1.111,0.248 H 7.918 3.547 -11.956 -15.419 c -0.276,0 -0.577,-0.013 -0.908,-0.042 -0.329,-0.028 -0.632,-0.015 -0.906,0.042 h -0.824 c -0.276,0.109 -0.537,0.176 -0.783,0.206 -0.249,0.027 -0.453,0.123 -0.619,0.288 -0.387,0.275 -0.622,0.673 -0.701,1.196 -0.083,0.522 -0.124,1.113 -0.124,1.773 v 4.617 3.133 0.867 c 0,0.301 0.028,0.59 0.083,0.867 0.165,0.492 0.424,0.864 0.782,1.113 0.357,0.246 0.797,0.411 1.317,0.494 0.525,0.083 1.087,0.109 1.692,0.083 0.606,-0.03 1.235,-0.042 1.897,-0.042 H 1.568 c 0.383,0 0.866,-0.015 1.444,-0.041 0.575,-0.03 1.152,-0.041 1.731,-0.041 0.577,0 1.096,0.026 1.566,0.082 0.466,0.055 0.837,0.164 1.115,0.331 0.327,0.273 0.547,0.63 0.658,1.07 0.109,0.274 0.165,0.605 0.165,0.991 v 1.154 c 0,0.44 0.013,0.962 0.042,1.566 0.026,0.605 0.026,1.195 0,1.773 -0.029,0.577 -0.098,1.112 -0.207,1.607 -0.111,0.496 -0.303,0.825 -0.577,0.992 -0.22,0.164 -0.566,0.273 -1.031,0.328 -0.468,0.056 -0.975,0.095 -1.526,0.126 -0.549,0.026 -1.113,0.026 -1.69,0 -0.577,-0.031 -1.059,-0.044 -1.446,-0.044 h -14.18 -4.453 c -0.495,0 -0.961,0.013 -1.401,0.044 -0.442,0.026 -0.827,0.15 -1.154,0.37 -0.277,0.163 -0.47,0.396 -0.579,0.699 -0.111,0.303 -0.22,0.675 -0.329,1.113 v 2.391 4.702 c 0,0.66 0.041,1.25 0.124,1.773 0.079,0.522 0.314,0.919 0.701,1.195 0.218,0.166 0.577,0.29 1.07,0.371 0.496,0.082 1.032,0.137 1.607,0.165 0.579,0.028 1.156,0.028 1.733,0 0.579,-0.028 1.087,-0.041 1.527,-0.041 h 14.924 5.689 1.57 c 0.492,0 0.906,0.109 1.235,0.331 0.383,0.218 0.662,0.658 0.825,1.317 0,0.551 0.025,0.963 0.081,1.237 0.056,0.386 0.069,0.784 0.043,1.198 -0.028,0.412 -0.043,0.837 -0.043,1.276 0,0.384 0.015,0.797 0.043,1.239 0.026,0.438 0.013,0.852 -0.043,1.235 v 0.908 c -0.109,0.218 -0.177,0.438 -0.205,0.658 -0.028,0.22 -0.096,0.414 -0.207,0.579 -0.274,0.384 -0.714,0.604 -1.319,0.66 C 8.465,-0.026 7.834,0 7.176,0 Z"
             style="fill:#e9521e;fill-opacity:1;fill-rule:nonzero;stroke:none"
             id="path768" />
        </g>
      </g>
    </g>
    <g
       id="g770"
       transform="matrix(3.75,0,0,-3.7499999,-651.74754,1815.1375)">
      <g
         id="g772"
         clip-path="url(#clipPath776)">
        <g
           id="g778"
           transform="translate(409.6218,380.0829)">
          <path
             d="M 0,0 0.658,59.199 -44.518,59.701 -45.176,0.502 Z"
             style="fill:#e9521e;fill-opacity:1;fill-rule:nonzero;stroke:none"
             id="path780" />
        </g>
      </g>
    </g>
    <g
       id="g782"
       transform="matrix(3.75,0,0,-3.7499999,-651.74754,1815.1375)">
      <g
         id="g784"
         clip-path="url(#clipPath788)">
        <g
           id="g790"
           transform="translate(449.2088,439.2891)">
          <path
             d="m 0,0 h -32.985 -0.413 c -0.438,-0.109 -0.743,-0.22 -0.907,-0.327 -0.443,-0.278 -0.701,-0.69 -0.784,-1.239 -0.084,-0.551 -0.122,-1.182 -0.122,-1.897 v -4.04 c 0,-0.44 0.012,-0.879 0.038,-1.318 0.03,-0.441 0.126,-0.799 0.288,-1.073 0.22,-0.329 0.552,-0.577 0.994,-0.743 0.438,-0.109 1.03,-0.152 1.773,-0.124 0.74,0.029 1.412,0.042 2.019,0.042 h 7.666 c 1.156,0 2.16,-0.042 3.012,-0.124 0.851,-0.081 1.415,-0.591 1.69,-1.525 0.111,-0.22 0.137,-0.442 0.084,-0.66 -0.056,-0.22 -0.056,-0.466 0,-0.742 0.109,-0.329 0.151,-0.7 0.121,-1.113 -0.027,-0.414 -0.04,-0.81 -0.04,-1.194 v -7.01 -22.924 -8.247 -2.103 c 0,-0.687 0.137,-1.251 0.412,-1.691 0.274,-0.329 0.675,-0.522 1.197,-0.575 0.521,-0.056 1.085,-0.084 1.69,-0.084 h 5.606 1.403 c 0.492,0 0.932,0.054 1.319,0.167 0.604,0.272 0.95,0.727 1.032,1.359 0.083,0.632 0.121,1.387 0.121,2.267 v 7.751 23.749 7.341 c 0,0.327 -0.013,0.699 -0.038,1.113 -0.03,0.41 -0.015,0.782 0.038,1.111 0.113,0.276 0.135,0.523 0.082,0.743 -0.052,0.219 -0.052,0.468 0,0.742 0.277,0.934 0.813,1.444 1.61,1.525 0.797,0.082 1.744,0.124 2.842,0.124 h 8.415 c 1.154,0 2.143,0.026 2.968,0.082 0.825,0.055 1.374,0.549 1.649,1.484 0.109,0.332 0.148,0.673 0.124,1.032 -0.029,0.357 -0.044,0.727 -0.044,1.113 v 3.214 0.827 c 0,0.273 -0.026,0.521 -0.08,0.741 v 0.412 c -0.057,0.274 -0.123,0.538 -0.207,0.784 -0.083,0.248 -0.205,0.425 -0.371,0.536 -0.441,0.274 -1.003,0.424 -1.693,0.455 C 9.824,-0.013 9.123,0 8.409,0 Z"
             style="fill:#e9521e;fill-opacity:1;fill-rule:nonzero;stroke:none"
             id="path792" />
        </g>
      </g>
    </g>
    <g
       id="g794"
       transform="matrix(3.75,0,0,-3.7499999,-651.74754,1815.1375)">
      <g
         id="g796"
         clip-path="url(#clipPath800)">
        <g
           id="g802"
           transform="translate(462.131,380.0428)">
          <path
             d="M 0,0 0.658,59.239 -48.127,59.781 -48.785,0.542 Z"
             style="fill:#e9521e;fill-opacity:1;fill-rule:nonzero;stroke:none"
             id="path804" />
        </g>
      </g>
    </g>
    <g
       id="g806"
       transform="matrix(3.75,0,0,-3.7499999,-651.74754,1815.1375)">
      <g
         id="g808"
         clip-path="url(#clipPath812)">
        <g
           id="g814"
           transform="translate(457.8958,411.4438)">
          <path
             d="m 0,0 c -1.365,0 -2.476,-1.107 -2.476,-2.474 v -3.724 c 0,-1.365 1.111,-2.47 2.476,-2.47 h 10.947 c 1.365,0 2.474,1.105 2.474,2.47 v 3.724 C 13.421,-1.107 12.312,0 10.947,0 Z"
             style="fill:#e9521e;fill-opacity:1;fill-rule:nonzero;stroke:none"
             id="path816" />
        </g>
      </g>
    </g>
    <g
       id="g818"
       transform="matrix(3.75,0,0,-3.7499999,-651.74754,1815.1375)">
      <g
         id="g820"
         clip-path="url(#clipPath824)">
        <g
           id="g826"
           transform="translate(471.3146,402.599)">
          <path
             d="M 0,0 0.098,8.844 -15.893,9.021 -15.991,0.178 Z"
             style="fill:#e9521e;fill-opacity:1;fill-rule:nonzero;stroke:none"
             id="path828" />
        </g>
      </g>
    </g>
    <g
       id="g830"
       transform="matrix(3.75,0,0,-3.7499999,-651.74754,1815.1375)">
      <g
         id="g832"
         clip-path="url(#clipPath836)">
        <g
           id="g838"
           transform="translate(494.524,433.1286)">
          <path
             d="m 0,0 c -0.094,-0.092 -0.282,-0.117 -0.564,-0.07 -0.284,0.047 -0.491,0.047 -0.634,0 -0.375,-0.093 -0.787,-0.139 -1.233,-0.139 -0.449,0 -0.857,-0.047 -1.231,-0.143 -0.376,-0.094 -0.729,-0.174 -1.057,-0.244 -0.329,-0.071 -0.682,-0.154 -1.056,-0.248 -1.363,-0.376 -2.561,-0.822 -3.593,-1.339 -0.095,-0.094 -0.212,-0.152 -0.351,-0.174 -0.143,-0.025 -0.26,-0.083 -0.354,-0.177 -1.268,-0.801 -2.419,-1.679 -3.451,-2.641 -1.032,-0.963 -1.878,-2.149 -2.536,-3.557 -0.188,-0.423 -0.34,-0.869 -0.457,-1.337 -0.118,-0.472 -0.246,-0.964 -0.389,-1.481 -0.137,-0.468 -0.256,-1.139 -0.35,-2.006 -0.094,-0.87 -0.071,-1.587 0.07,-2.149 0,-0.141 0.009,-0.282 0.036,-0.423 0.022,-0.141 0.035,-0.306 0.035,-0.492 0.139,-0.519 0.258,-1.023 0.352,-1.515 0.094,-0.493 0.259,-0.952 0.494,-1.375 0.514,-1.22 1.22,-2.216 2.111,-2.992 0.89,-0.775 1.878,-1.489 2.959,-2.149 0.423,-0.28 0.869,-0.515 1.337,-0.703 0.468,-0.188 0.94,-0.376 1.412,-0.564 0.092,-0.047 0.161,-0.072 0.207,-0.072 0.048,0 0.118,-0.022 0.214,-0.067 0.658,-0.284 1.361,-0.508 2.113,-0.671 0.75,-0.164 1.502,-0.363 2.254,-0.598 1.314,-0.376 2.675,-0.705 4.085,-0.985 1.408,-0.282 2.782,-0.578 4.121,-0.882 1.336,-0.306 2.617,-0.669 3.839,-1.092 1.22,-0.423 2.321,-0.985 3.308,-1.69 0.656,-0.47 1.222,-0.974 1.688,-1.514 0.472,-0.539 0.846,-1.21 1.13,-2.007 0.092,-0.188 0.139,-0.365 0.139,-0.529 0,-0.165 0.049,-0.364 0.141,-0.597 0.096,-0.331 0.143,-0.754 0.143,-1.269 0,-0.517 -0.047,-0.963 -0.143,-1.339 -0.092,-0.376 -0.188,-0.75 -0.28,-1.126 -0.098,-0.376 -0.212,-0.752 -0.353,-1.128 -0.517,-1.173 -1.256,-2.102 -2.217,-2.78 -0.964,-0.683 -2.054,-1.282 -3.276,-1.797 -0.378,-0.141 -0.775,-0.247 -1.198,-0.316 -0.421,-0.072 -0.821,-0.153 -1.196,-0.248 -0.187,-0.094 -0.342,-0.13 -0.458,-0.106 -0.119,0.023 -0.248,0.012 -0.387,-0.035 -0.235,-0.047 -0.472,-0.07 -0.707,-0.07 -0.235,0 -0.468,-0.024 -0.702,-0.07 H 3.521 c -0.235,-0.095 -0.53,-0.141 -0.88,-0.141 -0.351,0 -0.622,0.023 -0.81,0.07 -0.235,0.094 -0.483,0.117 -0.739,0.071 -0.259,-0.047 -0.483,-0.047 -0.669,0 -0.141,0 -0.282,0.01 -0.423,0.036 -0.141,0.021 -0.259,0.034 -0.352,0.034 -0.379,0.047 -0.752,0.094 -1.127,0.141 -0.376,0.047 -0.752,0.117 -1.127,0.211 -1.08,0.327 -2.09,0.682 -3.028,1.056 -0.94,0.376 -1.809,0.869 -2.609,1.48 -1.595,1.175 -2.792,2.769 -3.589,4.79 -0.141,0.327 -0.248,0.656 -0.318,0.986 -0.069,0.328 -0.154,0.657 -0.246,0.984 -0.096,0.284 -0.152,0.552 -0.179,0.81 -0.02,0.257 -0.103,0.506 -0.244,0.741 -0.094,0.188 -0.305,0.376 -0.635,0.562 -0.188,0.096 -0.35,0.131 -0.493,0.107 -0.139,-0.025 -0.327,-0.011 -0.562,0.036 -0.141,0.045 -0.318,0.069 -0.528,0.069 h -0.6 c -0.517,0 -1.045,-0.024 -1.585,-0.069 -0.539,-0.047 -0.927,-0.237 -1.16,-0.564 -0.237,-0.237 -0.353,-0.625 -0.353,-1.162 0,-0.542 0.047,-1.023 0.141,-1.446 0.094,-0.235 0.148,-0.49 0.177,-0.774 0.022,-0.28 0.08,-0.562 0.174,-0.844 0.235,-0.751 0.482,-1.457 0.741,-2.113 0.258,-0.658 0.575,-1.294 0.949,-1.903 1.128,-1.878 2.476,-3.404 4.052,-4.577 1.571,-1.175 3.509,-2.138 5.81,-2.886 0.468,-0.188 0.927,-0.329 1.375,-0.425 0.443,-0.094 0.925,-0.186 1.441,-0.282 0.234,-0.045 0.446,-0.081 0.636,-0.103 0.188,-0.025 0.374,-0.061 0.562,-0.108 0.423,-0.094 0.869,-0.14 1.337,-0.14 0.471,0 0.94,-0.046 1.41,-0.142 h 0.774 c 0.235,-0.047 0.575,-0.069 1.023,-0.069 0.445,0 0.784,0.022 1.021,0.069 0.282,0 0.564,0.014 0.845,0.034 0.282,0.027 0.563,0.036 0.845,0.036 0.235,0.049 0.481,0.072 0.74,0.072 0.258,0 0.504,0.024 0.739,0.069 0.564,0.143 1.128,0.246 1.69,0.318 0.564,0.071 1.104,0.201 1.621,0.387 0.517,0.141 0.998,0.284 1.443,0.423 0.446,0.141 0.905,0.305 1.375,0.493 1.408,0.658 2.722,1.409 3.944,2.254 1.22,0.846 2.227,1.878 3.028,3.099 0.423,0.564 0.775,1.174 1.057,1.832 0.282,0.656 0.539,1.338 0.774,2.041 0.139,0.376 0.222,0.763 0.246,1.162 0.023,0.4 0.081,0.788 0.177,1.164 v 0.562 c 0,0.188 0.021,0.376 0.07,0.564 v 0.635 0.775 c -0.094,0.28 -0.141,0.573 -0.141,0.879 0,0.305 -0.047,0.576 -0.141,0.811 -0.094,0.468 -0.188,0.915 -0.282,1.338 -0.094,0.421 -0.235,0.844 -0.421,1.267 -0.519,1.171 -1.187,2.194 -2.008,3.064 -0.824,0.867 -1.75,1.63 -2.782,2.288 -0.799,0.517 -1.645,0.963 -2.534,1.339 -0.895,0.376 -1.809,0.727 -2.749,1.056 -0.423,0.141 -0.846,0.271 -1.269,0.388 -0.421,0.116 -0.844,0.223 -1.267,0.315 -0.188,0.047 -0.351,0.083 -0.492,0.107 -0.141,0.025 -0.307,0.059 -0.495,0.108 -0.658,0.233 -1.35,0.408 -2.077,0.526 -0.728,0.118 -1.421,0.271 -2.076,0.457 -0.424,0.143 -0.846,0.237 -1.269,0.284 -0.423,0.045 -0.845,0.116 -1.267,0.21 -1.366,0.374 -2.677,0.728 -3.946,1.057 -1.267,0.327 -2.417,0.819 -3.449,1.477 -0.893,0.517 -1.585,1.059 -2.077,1.623 -0.495,0.562 -0.907,1.383 -1.234,2.464 -0.096,0.329 -0.154,0.728 -0.176,1.196 -0.025,0.47 0.009,0.893 0.105,1.269 0.094,0.47 0.173,0.904 0.246,1.303 0.072,0.398 0.199,0.785 0.387,1.163 0.376,0.938 0.94,1.726 1.689,2.358 0.753,0.635 1.598,1.139 2.537,1.515 1.644,0.75 3.687,1.126 6.129,1.126 h 1.126 c 0.374,0 0.748,-0.047 1.128,-0.141 h 0.564 c 0.28,-0.094 0.562,-0.152 0.844,-0.175 0.282,-0.024 0.564,-0.083 0.846,-0.177 1.5,-0.376 2.794,-0.938 3.873,-1.69 1.455,-0.938 2.579,-2.348 3.382,-4.226 0.231,-0.47 0.409,-1.009 0.528,-1.618 0.116,-0.611 0.316,-1.128 0.598,-1.551 0.094,-0.094 0.186,-0.175 0.282,-0.246 0.094,-0.07 0.188,-0.132 0.282,-0.177 0.186,-0.094 0.362,-0.141 0.528,-0.141 0.162,0 0.363,-0.025 0.598,-0.07 0.186,-0.047 0.374,-0.069 0.56,-0.069 h 0.639 c 0.562,0 1.102,0.022 1.619,0.069 0.517,0.045 0.889,0.235 1.126,0.562 0.141,0.235 0.22,0.576 0.248,1.023 0.021,0.446 -0.013,0.855 -0.107,1.231 -0.235,0.891 -0.47,1.751 -0.703,2.572 -0.237,0.822 -0.564,1.56 -0.987,2.218 -0.143,0.235 -0.271,0.48 -0.388,0.739 -0.118,0.26 -0.27,0.506 -0.458,0.741 -0.188,0.235 -0.376,0.468 -0.566,0.705 -0.186,0.233 -0.372,0.468 -0.558,0.703 -0.098,0.141 -0.213,0.271 -0.356,0.387 -0.139,0.119 -0.257,0.222 -0.353,0.318 -0.092,0.092 -0.188,0.175 -0.278,0.246 -0.098,0.07 -0.19,0.152 -0.284,0.248 -0.235,0.233 -0.482,0.421 -0.739,0.562 -0.258,0.141 -0.528,0.305 -0.81,0.493 C 11.011,-1.925 9.18,-1.15 7.114,-0.632 5.367,-0.195 3.403,0.023 1.222,0.023 0.822,0.023 0.415,0.015 0,0"
             style="fill:#459fd8;fill-opacity:1;fill-rule:nonzero;stroke:none"
             id="path840" />
        </g>
      </g>
    </g>
    <g
       id="g842"
       transform="matrix(3.75,0,0,-3.7499999,-651.74754,1815.1375)">
      <g
         id="g844"
         clip-path="url(#clipPath848)">
        <g
           id="g850"
           transform="translate(516.0002,380.1909)">
          <path
             d="M 0,0 0.616,52.953 -40.206,53.428 -40.822,0.475 Z"
             style="fill:#459fd8;fill-opacity:1;fill-rule:nonzero;stroke:none"
             id="path852" />
        </g>
      </g>
    </g>
    <g
       id="g854"
       transform="matrix(3.75,0,0,-3.7499999,-651.74754,1815.1375)">
      <g
         id="g856"
         clip-path="url(#clipPath860)">
        <g
           id="g862"
           transform="translate(536.9948,419.1139)">
          <path
             d="m 0,0 c -0.094,-0.096 -0.352,-0.132 -0.774,-0.105 -0.423,0.024 -0.73,0.009 -0.916,-0.036 -0.517,-0.094 -1.023,-0.164 -1.515,-0.211 -0.493,-0.048 -0.976,-0.118 -1.442,-0.212 -2.021,-0.564 -3.711,-1.303 -5.072,-2.218 -1.363,-0.916 -2.489,-2.196 -3.382,-3.839 -0.235,-0.515 -0.434,-1.045 -0.598,-1.583 -0.167,-0.541 -0.318,-1.117 -0.459,-1.726 -0.094,-0.378 -0.094,-0.729 0,-1.058 0.094,-0.327 0.235,-0.564 0.423,-0.703 0.188,-0.141 0.504,-0.248 0.952,-0.318 0.445,-0.069 0.902,-0.105 1.372,-0.105 0.47,0 0.929,0.036 1.374,0.105 0.446,0.07 0.76,0.177 0.951,0.318 0.328,0.233 0.549,0.564 0.67,0.985 0.116,0.423 0.246,0.821 0.387,1.199 0.233,0.515 0.504,0.997 0.81,1.442 0.305,0.446 0.645,0.81 1.019,1.092 0.752,0.516 1.525,0.916 2.326,1.198 0.564,0.186 1.244,0.329 2.041,0.423 0.799,0.094 1.621,0.141 2.468,0.141 0.844,0 1.653,-0.047 2.427,-0.141 0.775,-0.094 1.446,-0.26 2.008,-0.495 0.987,-0.375 1.75,-0.891 2.29,-1.549 0.539,-0.656 0.951,-1.55 1.229,-2.677 0.19,-0.703 0.19,-1.349 0,-1.936 -0.188,-0.588 -0.419,-1.068 -0.701,-1.444 -0.611,-0.844 -1.432,-1.374 -2.466,-1.584 -1.032,-0.211 -2.136,-0.457 -3.309,-0.739 -0.378,-0.096 -0.729,-0.154 -1.056,-0.177 -0.329,-0.024 -0.66,-0.083 -0.987,-0.177 -0.376,-0.094 -0.717,-0.141 -1.021,-0.141 -0.307,0 -0.622,-0.047 -0.951,-0.139 -0.704,-0.141 -1.408,-0.259 -2.115,-0.353 -0.702,-0.094 -1.384,-0.237 -2.04,-0.423 -1.739,-0.517 -3.335,-1.102 -4.79,-1.76 -1.455,-0.658 -2.606,-1.667 -3.452,-3.028 -0.28,-0.423 -0.516,-0.893 -0.703,-1.408 -0.189,-0.519 -0.378,-1.034 -0.564,-1.551 -0.047,-0.282 -0.082,-0.553 -0.107,-0.81 -0.022,-0.258 -0.058,-0.504 -0.105,-0.739 v -1.48 c 0,-1.455 0.212,-2.699 0.635,-3.733 0.564,-1.408 1.277,-2.499 2.147,-3.273 0.869,-0.777 2.008,-1.47 3.416,-2.079 0.329,-0.139 0.681,-0.247 1.058,-0.318 0.375,-0.07 0.749,-0.15 1.126,-0.246 0.141,-0.045 0.269,-0.059 0.388,-0.034 0.114,0.022 0.269,0.011 0.457,-0.036 0.188,-0.094 0.4,-0.141 0.635,-0.141 0.235,0 0.468,-0.022 0.703,-0.071 h 0.635 c 0.469,-0.092 0.963,-0.092 1.478,0 h 0.528 c 0.164,0 0.365,0.026 0.6,0.071 0.515,0.094 1.043,0.166 1.585,0.211 0.537,0.049 1.043,0.141 1.513,0.282 0.799,0.235 1.551,0.504 2.254,0.81 0.705,0.304 1.363,0.645 1.972,1.021 0.425,0.282 0.855,0.611 1.305,0.987 0.443,0.374 0.927,0.633 1.44,0.774 0.19,0.047 0.342,0.023 0.46,-0.069 0.115,-0.096 0.222,-0.188 0.316,-0.282 0.282,-0.284 0.517,-0.647 0.705,-1.093 0.188,-0.447 0.399,-0.834 0.634,-1.161 0.376,-0.519 1.066,-0.952 2.079,-1.303 1.008,-0.352 2.03,-0.412 3.062,-0.177 0.284,0.094 0.553,0.141 0.812,0.141 0.256,0 0.502,0.047 0.739,0.141 0.468,0.237 0.844,0.598 1.124,1.092 0.284,0.493 0.354,1.113 0.215,1.867 -0.047,0.233 -0.072,0.423 -0.072,0.562 0,0.141 -0.047,0.282 -0.143,0.421 -0.188,0.376 -0.468,0.6 -0.844,0.671 -0.374,0.072 -0.772,0.2 -1.197,0.388 -0.378,0.141 -0.683,0.376 -0.916,0.703 -0.235,0.376 -0.376,0.868 -0.421,1.479 -0.047,0.611 -0.073,1.243 -0.073,1.903 v 15.565 c 0,1.361 -0.034,2.664 -0.104,3.909 -0.069,1.244 -0.319,2.335 -0.74,3.274 -0.985,2.256 -2.7,3.781 -5.144,4.578 C 6.286,-0.374 3.606,0.004 0.549,0.004 0.367,0.004 0.184,0.002 0,0 m -2.572,-32.855 c -0.492,0.021 -0.906,0.081 -1.231,0.175 -0.235,0.047 -0.47,0.069 -0.705,0.069 -0.237,0 -0.47,0.025 -0.705,0.072 -0.703,0.233 -1.361,0.528 -1.97,0.879 -0.613,0.352 -1.105,0.786 -1.481,1.303 -0.235,0.329 -0.435,0.694 -0.598,1.092 -0.166,0.399 -0.247,0.833 -0.247,1.303 -0.047,1.032 0.044,1.912 0.282,2.642 0.235,0.727 0.587,1.349 1.057,1.866 0.468,0.515 1.032,0.951 1.69,1.303 0.654,0.352 1.363,0.645 2.113,0.88 0.374,0.094 0.716,0.177 1.021,0.246 0.306,0.072 0.645,0.152 1.021,0.248 0.706,0.186 1.468,0.292 2.289,0.316 0.822,0.025 1.583,0.128 2.29,0.316 0.186,0 0.361,0.011 0.528,0.036 0.164,0.024 0.316,0.035 0.457,0.035 0.47,0.094 0.938,0.188 1.406,0.284 0.472,0.092 0.895,0.186 1.269,0.28 0.186,0.094 0.401,0.141 0.636,0.141 0.235,0 0.396,0.047 0.494,0.141 0.515,0 0.844,-0.047 0.985,-0.141 0.329,-0.235 0.517,-0.562 0.56,-0.985 0.049,-0.423 0.074,-0.893 0.074,-1.41 0,-0.938 -0.012,-1.842 -0.036,-2.712 -0.025,-0.867 -0.177,-1.63 -0.457,-2.288 -0.517,-1.363 -1.258,-2.442 -2.218,-3.239 -0.965,-0.801 -2.126,-1.48 -3.489,-2.044 -0.327,-0.141 -0.668,-0.235 -1.019,-0.282 -0.354,-0.047 -0.716,-0.118 -1.092,-0.21 -0.282,-0.094 -0.564,-0.13 -0.846,-0.106 -0.28,0.023 -0.562,-0.013 -0.844,-0.107 -0.262,-0.073 -0.572,-0.113 -0.937,-0.113 -0.094,0 -0.193,0.004 -0.297,0.01"
             style="fill:#459fd8;fill-opacity:1;fill-rule:nonzero;stroke:none"
             id="path864" />
        </g>
      </g>
    </g>
    <g
       id="g866"
       transform="matrix(3.75,0,0,-3.7499999,-651.74754,1815.1375)">
      <g
         id="g868"
         clip-path="url(#clipPath872)">
        <g
           id="g874"
           transform="translate(555.3719,380.66)">
          <path
             d="M 0,0 0.447,38.452 -34.151,38.855 -34.598,0.402 Z"
             style="fill:#459fd8;fill-opacity:1;fill-rule:nonzero;stroke:none"
             id="path876" />
        </g>
      </g>
    </g>
    <g
       id="g878"
       transform="matrix(3.75,0,0,-3.7499999,-651.74754,1815.1375)">
      <g
         id="g880"
         clip-path="url(#clipPath884)">
        <g
           id="g886"
           transform="translate(580.415,433.2357)">
          <path
             d="m 0,0 c -0.492,-0.024 -0.906,-0.036 -1.231,-0.036 -0.096,0 -0.203,-0.011 -0.322,-0.035 -0.114,-0.023 -0.244,-0.036 -0.387,-0.036 -0.325,-0.139 -0.656,-0.327 -0.985,-0.56 -0.327,-0.237 -0.587,-0.53 -0.773,-0.882 -0.19,-0.353 -0.378,-0.694 -0.564,-1.021 -0.421,-0.66 -0.844,-1.34 -1.269,-2.043 -0.423,-0.705 -0.821,-1.386 -1.199,-2.044 -0.231,-0.282 -0.442,-0.575 -0.63,-0.88 -0.188,-0.304 -0.331,-0.644 -0.423,-1.02 -0.096,-0.282 -0.082,-0.529 0.036,-0.739 0.117,-0.213 0.246,-0.365 0.387,-0.459 0.421,-0.235 0.997,-0.293 1.726,-0.177 0.727,0.117 1.254,0.271 1.583,0.459 0.235,0.141 0.459,0.329 0.671,0.564 0.211,0.233 0.41,0.468 0.598,0.703 0.141,0.141 0.293,0.282 0.457,0.423 0.163,0.141 0.293,0.305 0.385,0.493 0.19,0.235 0.378,0.434 0.566,0.599 0.188,0.164 0.376,0.363 0.564,0.598 0.094,0.047 0.152,0.094 0.175,0.141 0.024,0.047 0.08,0.117 0.178,0.211 0.186,0.235 0.386,0.434 0.596,0.599 0.213,0.164 0.389,0.363 0.528,0.6 0.235,0.28 0.459,0.551 0.672,0.81 0.21,0.256 0.432,0.502 0.667,0.739 0.235,0.233 0.494,0.493 0.773,0.775 0.285,0.282 0.471,0.564 0.567,0.844 0.092,0.329 0.117,0.588 0.07,0.774 C 3.275,-0.412 3.015,-0.271 2.641,-0.177 2.265,-0.083 1.854,-0.024 1.406,0 1.184,0.011 0.955,0.019 0.722,0.019 0.487,0.019 0.246,0.011 0,0"
             style="fill:#459fd8;fill-opacity:1;fill-rule:nonzero;stroke:none"
             id="path888" />
        </g>
      </g>
    </g>
    <g
       id="g890"
       transform="matrix(3.75,0,0,-3.7499999,-651.74754,1815.1375)">
      <g
         id="g892"
         clip-path="url(#clipPath896)">
        <g
           id="g898"
           transform="translate(583.8763,423.0558)">
          <path
             d="M 0,0 0.119,10.197 -11.338,10.331 -11.457,0.133 Z"
             style="fill:#459fd8;fill-opacity:1;fill-rule:nonzero;stroke:none"
             id="path900" />
        </g>
      </g>
    </g>
    <g
       id="g902"
       transform="matrix(3.75,0,0,-3.7499999,-651.74754,1815.1375)">
      <g
         id="g904"
         clip-path="url(#clipPath908)">
        <g
           id="g910"
           transform="translate(587.0699,418.1984)">
          <path
             d="m 0,0 c -0.374,-0.096 -0.696,-0.177 -0.949,-0.246 -0.26,-0.07 -0.483,-0.224 -0.671,-0.459 -0.235,-0.376 -0.341,-0.88 -0.316,-1.513 0.022,-0.636 0.035,-1.234 0.035,-1.798 v -7.465 -5.493 c 0,-0.423 0.021,-0.881 0.07,-1.374 0.047,-0.494 0.023,-0.927 -0.07,-1.303 v -1.479 c -0.097,-0.235 -0.131,-0.448 -0.105,-0.634 0.023,-0.188 0.008,-0.398 -0.036,-0.633 -0.094,-0.421 -0.165,-0.824 -0.212,-1.198 -0.047,-0.376 -0.141,-0.752 -0.282,-1.126 -0.517,-1.645 -1.231,-2.97 -2.149,-3.98 -0.913,-1.011 -2.147,-1.844 -3.696,-2.5 -0.893,-0.378 -2.068,-0.624 -3.521,-0.739 -1.457,-0.118 -2.701,0.034 -3.735,0.457 -2.064,0.846 -3.474,2.324 -4.224,4.437 -0.237,0.797 -0.354,1.748 -0.354,2.853 v 3.204 10.636 6.691 c 0,0.562 -0.011,1.128 -0.034,1.69 -0.024,0.564 -0.154,1.032 -0.387,1.408 C -20.918,-0.188 -21.41,0 -22.115,0 h -2.044 c -0.094,-0.047 -0.19,-0.06 -0.28,-0.036 -0.096,0.025 -0.188,0.012 -0.284,-0.035 -0.517,-0.141 -0.866,-0.376 -1.054,-0.704 -0.19,-0.282 -0.282,-0.633 -0.282,-1.056 V -3.1 -7.608 -20.566 -23.384 c 0,-0.235 -0.015,-0.481 -0.034,-0.739 -0.026,-0.259 -0.015,-0.483 0.034,-0.669 v -0.703 c 0.047,-0.143 0.069,-0.295 0.069,-0.459 0,-0.165 0.023,-0.295 0.072,-0.387 0.094,-0.331 0.129,-0.623 0.105,-0.88 -0.024,-0.26 0.009,-0.53 0.105,-0.81 0.094,-0.47 0.188,-0.929 0.282,-1.375 0.094,-0.447 0.233,-0.879 0.421,-1.302 0.519,-1.222 1.188,-2.266 2.008,-3.136 0.822,-0.868 1.844,-1.56 3.064,-2.075 0.374,-0.188 0.741,-0.331 1.093,-0.423 0.351,-0.096 0.716,-0.188 1.09,-0.282 0.237,-0.094 0.436,-0.13 0.6,-0.106 0.161,0.023 0.34,-0.011 0.528,-0.105 0.235,-0.047 0.504,-0.071 0.81,-0.071 0.305,0 0.575,-0.045 0.81,-0.141 h 0.703 c 0.376,-0.094 0.799,-0.094 1.267,0 0.237,0.096 0.484,0.118 0.743,0.069 0.256,-0.045 0.504,-0.045 0.739,0 0.564,0.143 1.115,0.248 1.654,0.318 0.538,0.069 1.068,0.222 1.587,0.459 1.314,0.562 2.485,1.22 3.519,1.972 0.329,0.233 0.681,0.573 1.058,1.02 0.374,0.446 0.75,0.715 1.126,0.811 0.282,0.045 0.493,-0.025 0.634,-0.213 0.141,-0.188 0.235,-0.434 0.28,-0.739 0.047,-0.306 0.083,-0.622 0.107,-0.951 0.025,-0.327 0.06,-0.586 0.107,-0.774 0.186,-0.423 0.397,-0.728 0.63,-0.916 0.19,-0.141 0.485,-0.235 0.884,-0.28 0.398,-0.049 0.821,-0.062 1.265,-0.036 0.447,0.023 0.859,0.07 1.235,0.141 0.372,0.07 0.658,0.175 0.844,0.318 0.329,0.233 0.506,0.596 0.526,1.089 0.027,0.494 0.038,1.022 0.038,1.586 v 6.339 18.946 4.788 1.374 c 0,0.446 -0.117,0.786 -0.352,1.021 C 3.357,-0.329 3.017,-0.117 2.57,-0.071 2.126,-0.024 1.62,0 1.058,0 Z"
             style="fill:#459fd8;fill-opacity:1;fill-rule:nonzero;stroke:none"
             id="path912" />
        </g>
      </g>
    </g>
    <g
       id="g914"
       transform="matrix(3.75,0,0,-3.7499999,-651.74754,1815.1375)">
      <g
         id="g916"
         clip-path="url(#clipPath920)">
        <g
           id="g922"
           transform="translate(591.0099,380.7075)">
          <path
             d="M 0,0 0.436,37.486 -30.055,37.84 -30.491,0.355 Z"
             style="fill:#459fd8;fill-opacity:1;fill-rule:nonzero;stroke:none"
             id="path924" />
        </g>
      </g>
    </g>
    <g
       id="g926"
       transform="matrix(3.75,0,0,-3.7499999,-651.74754,1815.1375)">
      <g
         id="g928"
         clip-path="url(#clipPath932)">
        <g
           id="g934"
           transform="translate(628.6252,432.0025)">
          <path
             d="M 0,0 C -0.094,0 -0.211,-0.011 -0.352,-0.034 -0.492,-0.06 -0.613,-0.07 -0.703,-0.07 -1.079,-0.164 -1.361,-0.376 -1.549,-0.703 -1.784,-1.081 -1.901,-1.679 -1.901,-2.498 v -2.221 -8.098 c 0,-0.519 0.012,-1.104 0.034,-1.762 0.025,-0.658 -0.034,-1.197 -0.175,-1.62 -0.047,-0.188 -0.107,-0.329 -0.176,-0.423 -0.072,-0.094 -0.154,-0.211 -0.246,-0.352 -0.519,-0.094 -0.927,-0.011 -1.232,0.248 -0.308,0.256 -0.6,0.502 -0.882,0.739 -0.563,0.423 -1.161,0.797 -1.797,1.126 -0.633,0.327 -1.302,0.634 -2.006,0.916 -0.471,0.233 -0.964,0.387 -1.479,0.457 -0.517,0.071 -1.034,0.178 -1.549,0.317 -0.329,0 -0.59,0.023 -0.777,0.07 -0.374,0.096 -0.926,0.143 -1.654,0.143 -0.727,0 -1.278,-0.047 -1.654,-0.143 h -0.703 c -0.331,-0.092 -0.647,-0.164 -0.951,-0.209 -0.309,-0.049 -0.625,-0.097 -0.954,-0.143 -1.032,-0.28 -1.985,-0.611 -2.85,-0.985 -0.872,-0.376 -1.707,-0.846 -2.502,-1.408 -1.363,-0.942 -2.523,-2.126 -3.485,-3.556 -0.964,-1.435 -1.75,-3.042 -2.361,-4.826 -0.141,-0.423 -0.258,-0.857 -0.352,-1.303 -0.094,-0.447 -0.21,-0.906 -0.351,-1.374 -0.049,-0.235 -0.07,-0.446 -0.07,-0.632 0,-0.19 -0.026,-0.402 -0.071,-0.635 -0.094,-0.329 -0.13,-0.669 -0.107,-1.023 0.024,-0.351 -0.012,-0.694 -0.106,-1.019 v -0.774 c -0.094,-0.237 -0.139,-0.54 -0.139,-0.918 0,-0.376 0.045,-0.68 0.139,-0.913 v -0.707 c 0.049,-0.235 0.06,-0.482 0.036,-0.739 -0.023,-0.259 0.013,-0.506 0.105,-0.739 0.045,-0.235 0.072,-0.47 0.072,-0.705 0,-0.235 0.022,-0.47 0.071,-0.705 0.139,-0.468 0.245,-0.927 0.316,-1.372 0.071,-0.446 0.199,-0.882 0.387,-1.305 0.844,-2.628 2.019,-4.824 3.521,-6.583 1.502,-1.76 3.476,-3.16 5.916,-4.192 0.844,-0.376 1.831,-0.645 2.959,-0.809 1.128,-0.165 2.266,-0.235 3.416,-0.21 1.151,0.022 2.279,0.129 3.38,0.316 1.104,0.188 2.079,0.468 2.923,0.845 0.939,0.375 1.878,0.916 2.818,1.619 0.282,0.235 0.551,0.468 0.811,0.705 0.255,0.235 0.622,0.327 1.09,0.282 0.094,-0.096 0.177,-0.177 0.246,-0.248 0.072,-0.068 0.13,-0.152 0.177,-0.246 0.143,-0.329 0.224,-0.658 0.246,-0.985 0.025,-0.329 0.13,-0.611 0.318,-0.846 0.141,-0.281 0.423,-0.468 0.846,-0.562 0.186,-0.096 0.41,-0.132 0.665,-0.106 0.26,0.023 0.531,0.036 0.813,0.036 0.564,0 1.116,0.009 1.656,0.034 0.539,0.022 0.927,0.199 1.162,0.526 0.233,0.376 0.351,0.859 0.351,1.446 v 1.795 42.542 1.76 c 0,0.564 -0.118,1.034 -0.351,1.408 C 3.311,-0.188 2.805,0.011 2.077,0.036 1.835,0.043 1.596,0.047 1.361,0.047 0.893,0.047 0.44,0.032 0,0 m -15.284,-45.569 c -0.517,0.141 -0.985,0.282 -1.408,0.423 -0.423,0.141 -0.846,0.327 -1.267,0.562 -1.363,0.752 -2.491,1.715 -3.382,2.888 -0.893,1.175 -1.596,2.583 -2.113,4.228 -0.094,0.327 -0.176,0.656 -0.246,0.985 -0.07,0.329 -0.154,0.656 -0.246,0.987 0,0.327 -0.025,0.562 -0.07,0.703 -0.098,0.423 -0.143,0.88 -0.143,1.374 v 1.513 c 0,0.235 -0.011,0.495 -0.037,0.775 -0.021,0.282 0.013,0.539 0.109,0.774 0,0.188 0.009,0.365 0.035,0.53 0.023,0.164 0.036,0.341 0.036,0.529 0.092,0.515 0.173,1.043 0.246,1.583 0.07,0.539 0.198,1.067 0.386,1.584 0.564,1.643 1.301,3.089 2.218,4.332 0.918,1.244 2.126,2.195 3.628,2.853 0.376,0.139 0.764,0.258 1.162,0.352 0.401,0.094 0.788,0.188 1.162,0.282 0.235,0 0.446,0.011 0.635,0.036 0.186,0.022 0.397,0.058 0.634,0.105 h 1.303 c 0.445,0 0.857,-0.047 1.233,-0.141 0.56,-0.094 1.092,-0.199 1.585,-0.316 0.492,-0.118 0.972,-0.295 1.443,-0.53 1.361,-0.611 2.488,-1.455 3.382,-2.534 0.89,-1.081 1.619,-2.324 2.183,-3.734 0.139,-0.329 0.244,-0.658 0.316,-0.985 0.071,-0.329 0.152,-0.682 0.246,-1.056 0.141,-0.376 0.235,-0.788 0.284,-1.234 0.045,-0.445 0.116,-0.881 0.207,-1.304 v -1.055 c 0.097,-0.237 0.144,-0.552 0.144,-0.951 0,-0.399 -0.047,-0.716 -0.144,-0.951 -0.045,-0.28 -0.057,-0.564 -0.034,-0.844 0.024,-0.282 0.013,-0.564 -0.036,-0.846 -0.045,-0.188 -0.068,-0.363 -0.068,-0.529 0,-0.165 -0.048,-0.342 -0.141,-0.528 -0.14,-0.517 -0.259,-1.032 -0.351,-1.549 -0.098,-0.517 -0.26,-1.034 -0.495,-1.549 -0.657,-1.551 -1.466,-2.829 -2.43,-3.839 -0.963,-1.011 -2.217,-1.844 -3.768,-2.5 -0.329,-0.141 -0.68,-0.246 -1.056,-0.318 -0.376,-0.069 -0.752,-0.152 -1.128,-0.246 -0.327,0 -0.562,-0.024 -0.703,-0.069 h -0.634 -0.597 c -0.213,0 -0.414,0.022 -0.6,0.069 -0.235,0.094 -0.481,0.117 -0.739,0.07 -0.086,-0.015 -0.171,-0.023 -0.256,-0.023 -0.167,0 -0.329,0.032 -0.485,0.094"
             style="fill:#459fd8;fill-opacity:1;fill-rule:nonzero;stroke:none"
             id="path936" />
        </g>
      </g>
    </g>
    <g
       id="g938"
       transform="matrix(3.75,0,0,-3.7499999,-651.74754,1815.1375)">
      <g
         id="g940"
         clip-path="url(#clipPath944)">
        <g
           id="g946"
           transform="translate(632.5646,380.6923)">
          <path
             d="M 0,0 0.597,51.35 -34.431,51.758 -35.028,0.407 Z"
             style="fill:#459fd8;fill-opacity:1;fill-rule:nonzero;stroke:none"
             id="path948" />
        </g>
      </g>
    </g>
    <g
       id="g950"
       transform="matrix(3.75,0,0,-3.7499999,-651.74754,1815.1375)">
      <g
         id="g952"
         clip-path="url(#clipPath956)">
        <g
           id="g958"
           transform="translate(656.5156,418.9729)">
          <path
             d="m 0,0 c -0.096,-0.094 -0.211,-0.118 -0.352,-0.071 -0.141,0.048 -0.259,0.048 -0.353,0 -0.237,0 -0.446,-0.012 -0.633,-0.034 -0.188,-0.025 -0.401,-0.059 -0.636,-0.106 -0.656,-0.141 -1.278,-0.27 -1.863,-0.387 -0.59,-0.118 -1.165,-0.293 -1.726,-0.528 -1.928,-0.799 -3.549,-1.795 -4.861,-2.993 -1.314,-1.199 -2.489,-2.62 -3.521,-4.263 -0.282,-0.516 -0.528,-1.046 -0.739,-1.585 -0.214,-0.54 -0.436,-1.068 -0.673,-1.583 -0.278,-0.658 -0.479,-1.363 -0.596,-2.113 -0.116,-0.752 -0.271,-1.504 -0.457,-2.254 -0.049,-0.235 -0.06,-0.483 -0.035,-0.739 0.022,-0.259 -0.014,-0.506 -0.106,-0.741 v -0.774 c -0.049,-0.235 -0.06,-0.528 -0.035,-0.88 0.022,-0.353 0.058,-0.624 0.105,-0.81 v -0.987 c 0.092,-0.423 0.163,-0.844 0.21,-1.267 0.047,-0.423 0.117,-0.822 0.213,-1.198 0.045,-0.235 0.071,-0.423 0.071,-0.564 0,-0.139 0.021,-0.306 0.07,-0.492 0.186,-0.564 0.338,-1.126 0.457,-1.692 0.118,-0.562 0.293,-1.102 0.528,-1.619 0.656,-1.596 1.468,-3.04 2.431,-4.331 0.962,-1.292 2.124,-2.384 3.487,-3.275 0.795,-0.47 1.547,-0.87 2.252,-1.199 0.186,-0.092 0.353,-0.152 0.493,-0.173 0.142,-0.026 0.302,-0.083 0.494,-0.179 0.374,-0.139 0.773,-0.27 1.196,-0.387 0.423,-0.117 0.845,-0.222 1.269,-0.316 0.234,-0.047 0.492,-0.081 0.776,-0.105 0.28,-0.025 0.538,-0.058 0.774,-0.107 0.187,-0.045 0.375,-0.07 0.564,-0.07 0.186,0 0.397,-0.022 0.632,-0.069 h 0.635 c 0.187,-0.047 0.433,-0.072 0.739,-0.072 0.305,0 0.575,0.025 0.81,0.072 h 0.704 c 0.235,0.047 0.456,0.069 0.669,0.069 0.21,0 0.434,0.025 0.667,0.07 0.519,0.096 1.012,0.176 1.482,0.248 0.468,0.069 0.938,0.199 1.41,0.387 1.829,0.609 3.344,1.395 4.541,2.358 1.196,0.964 2.262,2.195 3.206,3.699 0.609,0.987 1.101,2.113 1.475,3.38 0.237,0.75 0.119,1.292 -0.349,1.619 -0.141,0.143 -0.399,0.237 -0.775,0.284 -0.376,0.045 -0.774,0.081 -1.197,0.103 -0.422,0.025 -0.844,0.013 -1.267,-0.034 -0.423,-0.047 -0.73,-0.116 -0.916,-0.21 -0.521,-0.237 -0.88,-0.611 -1.092,-1.126 -0.211,-0.519 -0.461,-1.014 -0.739,-1.482 -0.282,-0.515 -0.613,-0.996 -0.987,-1.443 -0.378,-0.446 -0.821,-0.833 -1.34,-1.162 -0.468,-0.329 -0.974,-0.6 -1.512,-0.81 -0.541,-0.211 -1.141,-0.412 -1.797,-0.598 -0.658,-0.188 -1.526,-0.282 -2.605,-0.282 -1.081,0 -1.95,0.094 -2.608,0.282 -0.329,0 -0.564,0.022 -0.703,0.069 -0.329,0.096 -0.658,0.188 -0.985,0.282 -0.331,0.094 -0.636,0.213 -0.916,0.354 -2.49,1.079 -4.273,2.887 -5.354,5.421 -0.188,0.376 -0.329,0.764 -0.423,1.164 -0.094,0.399 -0.188,0.786 -0.282,1.162 -0.045,0.188 -0.069,0.376 -0.069,0.562 0,0.188 -0.025,0.4 -0.072,0.635 -0.093,0.233 -0.093,0.482 0,0.739 0.096,0.258 0.187,0.459 0.284,0.6 0.186,0.28 0.374,0.468 0.562,0.564 0.235,0.139 0.54,0.22 0.914,0.244 0.378,0.025 0.752,0.036 1.13,0.036 h 18.03 c 0.423,0 0.916,-0.011 1.48,-0.036 0.562,-0.024 1.126,-0.034 1.69,-0.034 0.562,0 1.067,0.034 1.513,0.106 0.447,0.071 0.786,0.199 1.023,0.387 0.233,0.235 0.387,0.645 0.456,1.233 0.072,0.585 0.057,1.113 -0.033,1.583 -0.047,0.329 -0.083,0.658 -0.108,0.987 -0.024,0.329 -0.058,0.656 -0.107,0.987 -0.188,0.656 -0.338,1.312 -0.457,1.97 -0.118,0.658 -0.293,1.291 -0.526,1.902 -0.237,0.611 -0.447,1.222 -0.635,1.833 -0.188,0.609 -0.448,1.172 -0.775,1.69 -0.519,0.891 -1.15,1.831 -1.904,2.816 -0.278,0.376 -0.621,0.751 -1.017,1.128 C 10.902,-3.78 10.518,-3.452 10.14,-3.17 9.954,-3.076 9.789,-2.948 9.65,-2.782 9.509,-2.617 9.321,-2.489 9.086,-2.393 7.911,-1.645 6.597,-1.045 5.142,-0.598 3.822,-0.194 2.29,0.006 0.547,0.006 0.367,0.006 0.184,0.004 0,0 m -0.564,-5.211 h 1.198 c 0.421,0 0.821,-0.047 1.197,-0.143 0.374,-0.094 0.728,-0.175 1.057,-0.244 0.329,-0.072 0.654,-0.155 0.987,-0.247 1.267,-0.518 2.299,-1.15 3.098,-1.902 0.797,-0.752 1.524,-1.668 2.184,-2.748 0.515,-0.892 0.914,-1.854 1.198,-2.886 0.092,-0.329 0.092,-0.647 0,-0.951 -0.096,-0.307 -0.215,-0.553 -0.352,-0.741 -0.331,-0.376 -0.989,-0.551 -1.974,-0.528 -0.985,0.024 -1.831,0.035 -2.536,0.035 H -5.213 c -0.656,0 -1.444,-0.011 -2.361,-0.035 -0.914,-0.023 -1.559,0.107 -1.935,0.387 -0.282,0.188 -0.447,0.47 -0.492,0.846 -0.047,0.376 -0.026,0.774 0.071,1.197 0.092,0.423 0.207,0.811 0.352,1.162 0.141,0.354 0.278,0.647 0.423,0.882 0.656,1.267 1.395,2.322 2.218,3.168 0.818,0.845 1.912,1.55 3.271,2.114 0.331,0.092 0.673,0.175 1.025,0.247 0.351,0.069 0.716,0.15 1.09,0.244 0.141,0.049 0.305,0.06 0.493,0.036 0.039,-0.004 0.077,-0.006 0.112,-0.006 0.14,0 0.269,0.038 0.382,0.113"
             style="fill:#459fd8;fill-opacity:1;fill-rule:nonzero;stroke:none"
             id="path960" />
        </g>
      </g>
    </g>
    <g
       id="g962"
       transform="matrix(3.75,0,0,-3.7499999,-651.74754,1815.1375)">
      <g
         id="g964"
         clip-path="url(#clipPath968)">
        <g
           id="g970"
           transform="translate(673.4509,380.6199)">
          <path
             d="M 0,0 0.446,38.354 -33.542,38.749 -33.988,0.395 Z"
             style="fill:#459fd8;fill-opacity:1;fill-rule:nonzero;stroke:none"
             id="path972" />
        </g>
      </g>
    </g>
    <text
       xml:space="preserve"
       style="font-variant:normal;font-weight:normal;font-stretch:normal;font-size:89.7328px;font-family:'Alte Haas Grotesk';-inkscape-font-specification:AlteHaasGrotesk;writing-mode:lr-tb;fill:#026e9c;fill-opacity:1;fill-rule:nonzero;stroke:none;stroke-width:3.75"
       id="text976"
       x="510.95032"
       y="538.93262"><tspan
         x="510.95032 534.19116 598.97803 650.48499 718.68231 780.14911 858.30658 916.45331 981.24091 1039.3878 1107.585 1132.5309 1187.3569 1212.3032 1270.4497 1328.5968 1393.384 1456.556 1511.3828 1536.3285 1599.5007 1622.7416 1690.8486 1714.0896 1765.5964 1823.7434"
         y="538.93262"
         sodipodi:role="line"
         id="tspan974"
         style="stroke-width:3.75">INFORMAÇÃO E SAÚDE DIGITAL</tspan></text>
  </g>
</svg>
