<?xml version="1.0" encoding="UTF-8" standalone="no"?>
<!-- Created with Inkscape (http://www.inkscape.org/) -->

<svg
   width="1024.0px"
   height="1024.0px"
   viewBox="0 0 1024.0 1024.0"
   version="1.1"
   id="SVGRoot"
   sodipodi:docname="pet_logo_minimal.svg"
   inkscape:version="1.2.2 (b0a8486541, 2022-12-01)"
   xmlns:inkscape="http://www.inkscape.org/namespaces/inkscape"
   xmlns:sodipodi="http://sodipodi.sourceforge.net/DTD/sodipodi-0.dtd"
   xmlns="http://www.w3.org/2000/svg"
   xmlns:svg="http://www.w3.org/2000/svg">
  <sodipodi:namedview
     id="namedview16937"
     pagecolor="#ffffff"
     bordercolor="#000000"
     borderopacity="0.25"
     inkscape:showpageshadow="2"
     inkscape:pageopacity="0.0"
     inkscape:pagecheckerboard="0"
     inkscape:deskcolor="#d1d1d1"
     inkscape:document-units="px"
     showgrid="true"
     inkscape:zoom="0.51936728"
     inkscape:cx="339.83658"
     inkscape:cy="919.38791"
     inkscape:window-width="1366"
     inkscape:window-height="734"
     inkscape:window-x="0"
     inkscape:window-y="0"
     inkscape:window-maximized="1"
     inkscape:current-layer="layer1">
    <inkscape:grid
       type="xygrid"
       id="grid16943" />
  </sodipodi:namedview>
  <defs
     id="defs16932">
    <clipPath
       clipPathUnits="userSpaceOnUse"
       id="clipPath984">
      <path
         d="M 0,595.276 H 841.89 V 0 H 0 Z"
         id="path982" />
    </clipPath>
    <clipPath
       clipPathUnits="userSpaceOnUse"
       id="clipPath1004">
      <path
         d="m 307.488,244.894 c -0.464,-0.351 -0.981,-0.456 -1.545,-0.457 v 0 c -2.737,-0.004 -5.474,-0.012 -8.212,-0.023 v 0 c -0.111,-10e-4 -0.223,-0.002 -0.335,-0.002 v 0 c -0.946,-2.116 -1.537,-4.43 -1.654,-6.885 v 0 c -0.502,-10.548 7.642,-19.506 18.191,-20.009 v 0 c 10.548,-0.502 19.505,7.641 20.007,18.19 v 0 c 0.423,8.861 -5.267,16.579 -13.348,19.125 v 0 c -4.371,-3.311 -8.738,-6.623 -13.104,-9.939"
         id="path1002" />
    </clipPath>
    <clipPath
       clipPathUnits="userSpaceOnUse"
       id="clipPath1016">
      <path
         d="M 0,595.276 H 841.89 V 0 H 0 Z"
         id="path1014" />
    </clipPath>
    <clipPath
       clipPathUnits="userSpaceOnUse"
       id="clipPath1032">
      <path
         d="m 269.351,148.744 c -0.219,-0.013 -0.436,-0.019 -0.653,-0.019 v 0 h -10.501 c -0.048,-0.024 -0.103,-0.031 -0.163,-0.017 v 0 c -0.063,0.012 -0.116,0.005 -0.164,-0.019 v 0 c -0.267,-0.097 -0.448,-0.219 -0.545,-0.364 v 0 c -0.121,-0.193 -0.175,-0.52 -0.164,-0.981 v 0 c 0.012,-0.46 0.019,-0.859 0.019,-1.198 v 0 -21.726 c 0,-0.267 0.011,-0.528 0.035,-0.782 v 0 c 0.025,-0.253 0.11,-0.441 0.255,-0.563 v 0 c 0.145,-0.121 0.333,-0.188 0.564,-0.199 v 0 c 0.229,-0.012 0.478,-0.02 0.744,-0.02 v 0 h 2.107 c 0.194,0 0.388,-0.011 0.583,-0.035 v 0 c 0.193,-0.024 0.373,-0.011 0.543,0.035 v 0 c 0.34,0.098 0.559,0.231 0.655,0.401 v 0 c 0.12,0.193 0.174,0.46 0.164,0.799 v 0 c -0.013,0.338 -0.019,0.654 -0.019,0.945 v 0 4.795 1.253 c 0,0.425 0.121,0.722 0.362,0.892 v 0 c 0.195,0.144 0.468,0.218 0.819,0.218 v 0 h 0.999 3.051 1.491 c 0.146,0.022 0.291,0.036 0.436,0.036 v 0 c 0.145,0 0.29,0.011 0.436,0.036 v 0 c 0.291,0.073 0.581,0.121 0.872,0.145 v 0 c 0.291,0.023 0.568,0.085 0.835,0.181 v 0 c 0.872,0.291 1.654,0.648 2.343,1.072 v 0 c 0.691,0.423 1.278,0.975 1.763,1.654 v 0 c 0.121,0.145 0.223,0.297 0.308,0.454 v 0 c 0.085,0.157 0.176,0.321 0.273,0.491 v 0 c 0.048,0.096 0.091,0.187 0.127,0.271 v 0 c 0.036,0.086 0.079,0.176 0.127,0.274 v 0 c 0.17,0.387 0.314,0.805 0.436,1.253 v 0 c 0.121,0.447 0.206,0.938 0.255,1.471 v 0 c 0.072,1.332 -0.017,2.471 -0.273,3.415 v 0 c -0.254,0.945 -0.66,1.805 -1.217,2.58 v 0 c -0.194,0.291 -0.436,0.582 -0.727,0.871 v 0 l -0.217,0.219 c -0.122,0.096 -0.224,0.187 -0.309,0.272 v 0 c -0.085,0.085 -0.189,0.164 -0.31,0.237 v 0 c -0.145,0.12 -0.291,0.217 -0.436,0.29 v 0 c -0.146,0.072 -0.279,0.157 -0.398,0.255 v 0 c -0.341,0.193 -0.704,0.345 -1.09,0.454 v 0 c -0.388,0.109 -0.776,0.224 -1.164,0.344 v 0 c -0.121,0.049 -0.23,0.073 -0.326,0.073 v 0 c -0.097,0 -0.208,0.013 -0.328,0.037 v 0 c -0.12,0.048 -0.253,0.072 -0.399,0.072 v 0 c -0.145,0 -0.278,0.024 -0.4,0.073 v 0 h -0.181 c -0.156,0.039 -0.32,0.058 -0.491,0.058 v 0 c -0.042,0 -0.085,0 -0.127,-0.003 m -5.268,-12.245 c -0.244,0.013 -0.461,0.055 -0.654,0.128 v 0 c -0.194,0.073 -0.34,0.182 -0.436,0.326 v 0 c -0.122,0.194 -0.182,0.467 -0.182,0.819 v 0 0.962 3.452 0.89 c 0,0.326 0.048,0.586 0.146,0.781 v 0 c 0.072,0.193 0.229,0.339 0.472,0.435 v 0 c 0.073,0 0.139,0.007 0.2,0.019 v 0 c 0.059,0.012 0.126,0.03 0.2,0.054 v 0 c 0.581,0 1.198,0.007 1.852,0.019 v 0 c 0.653,0.012 1.29,0.006 1.907,-0.019 v 0 c 0.617,-0.024 1.192,-0.091 1.727,-0.199 v 0 c 0.532,-0.109 0.98,-0.273 1.344,-0.49 v 0 c 0.435,-0.267 0.763,-0.559 0.981,-0.872 v 0 c 0.218,-0.315 0.399,-0.739 0.545,-1.273 v 0 c 0.073,-0.266 0.114,-0.598 0.127,-0.999 v 0 c 0.012,-0.398 -0.006,-0.731 -0.054,-0.999 v 0 c -0.097,-0.315 -0.195,-0.599 -0.292,-0.853 v 0 c -0.096,-0.255 -0.218,-0.49 -0.363,-0.709 v 0 c -0.557,-0.727 -1.369,-1.151 -2.434,-1.271 v 0 c -1.067,-0.122 -2.241,-0.182 -3.524,-0.182 v 0 c -0.242,0 -0.503,-0.006 -0.78,-0.019 v 0 c -0.141,-0.005 -0.275,-0.009 -0.405,-0.009 v 0 c -0.131,0 -0.257,0.004 -0.377,0.009"
         id="path1030" />
    </clipPath>
    <clipPath
       clipPathUnits="userSpaceOnUse"
       id="clipPath1044">
      <path
         d="M 0,595.276 H 841.89 V 0 H 0 Z"
         id="path1042" />
    </clipPath>
    <clipPath
       clipPathUnits="userSpaceOnUse"
       id="clipPath1056">
      <path
         d="m 295.981,148.725 h -13.587 c -0.049,-0.024 -0.097,-0.031 -0.146,-0.017 v 0 c -0.049,0.012 -0.096,0.005 -0.146,-0.019 v 0 c -0.266,-0.073 -0.447,-0.194 -0.544,-0.364 v 0 c -0.097,-0.121 -0.145,-0.29 -0.145,-0.508 v 0 -0.654 -2.252 -7.921 -9.882 -2.616 -0.672 c 0,-0.23 0.048,-0.418 0.145,-0.563 v 0 c 0.121,-0.194 0.308,-0.309 0.563,-0.346 v 0 c 0.255,-0.035 0.551,-0.055 0.89,-0.055 v 0 h 2.87 10.754 2.725 0.745 c 0.231,0 0.418,0.061 0.564,0.183 v 0 c 0.194,0.121 0.302,0.309 0.327,0.563 v 0 c 0.024,0.254 0.037,0.527 0.037,0.818 v 0 1.671 c 0,0.193 -0.007,0.374 -0.019,0.545 v 0 c -0.012,0.169 -0.043,0.314 -0.091,0.436 v 0 c -0.073,0.192 -0.207,0.327 -0.4,0.399 v 0 c -0.144,0.073 -0.308,0.109 -0.49,0.109 v 0 h -0.563 -1.926 -6.83 -1.526 c -0.122,0 -0.255,-0.005 -0.4,-0.018 v 0 c -0.145,-0.012 -0.279,-0.007 -0.399,0.018 v 0 h -0.363 c -0.122,0.048 -0.237,0.079 -0.346,0.091 v 0 c -0.109,0.012 -0.199,0.054 -0.272,0.127 v 0 c -0.17,0.121 -0.274,0.297 -0.309,0.527 v 0 c -0.037,0.23 -0.055,0.49 -0.055,0.781 v 0 2.035 1.38 0.382 c 0,0.132 0.013,0.26 0.037,0.382 v 0 c 0.073,0.216 0.187,0.381 0.344,0.49 v 0 c 0.157,0.109 0.352,0.182 0.581,0.218 v 0 c 0.231,0.037 0.479,0.048 0.745,0.037 v 0 c 0.267,-0.014 0.545,-0.019 0.837,-0.019 v 0 h 7.084 c 0.17,0 0.382,-0.006 0.637,-0.018 v 0 c 0.253,-0.014 0.507,-0.018 0.762,-0.018 v 0 c 0.255,0 0.483,0.012 0.69,0.036 v 0 c 0.205,0.024 0.369,0.072 0.492,0.146 v 0 c 0.144,0.12 0.241,0.278 0.289,0.471 v 0 c 0.048,0.121 0.073,0.267 0.073,0.437 v 0 0.508 c 0,0.194 0.006,0.424 0.018,0.691 v 0 c 0.012,0.266 0.012,0.526 0,0.781 v 0 c -0.012,0.254 -0.043,0.489 -0.091,0.708 v 0 c -0.048,0.218 -0.133,0.364 -0.254,0.437 v 0 c -0.097,0.072 -0.25,0.12 -0.454,0.145 v 0 c -0.206,0.024 -0.43,0.042 -0.672,0.054 v 0 c -0.242,0.012 -0.491,0.012 -0.745,0 v 0 c -0.254,-0.012 -0.466,-0.019 -0.637,-0.019 v 0 h -6.247 -1.963 c -0.218,0 -0.423,0.007 -0.617,0.019 v 0 c -0.195,0.012 -0.364,0.067 -0.508,0.164 v 0 c -0.123,0.072 -0.207,0.175 -0.256,0.308 v 0 c -0.048,0.133 -0.096,0.297 -0.145,0.491 v 0 1.052 2.072 c 0,0.291 0.018,0.551 0.055,0.781 v 0 c 0.035,0.231 0.139,0.405 0.309,0.527 v 0 c 0.096,0.073 0.255,0.128 0.471,0.164 v 0 c 0.219,0.036 0.455,0.06 0.709,0.073 v 0 c 0.254,0.011 0.509,0.011 0.763,0 v 0 c 0.256,-0.013 0.479,-0.019 0.673,-0.019 v 0 h 6.575 2.507 0.691 c 0.217,0 0.4,0.048 0.545,0.146 v 0 c 0.169,0.096 0.291,0.289 0.363,0.58 v 0 c 0,0.243 0.011,0.425 0.036,0.545 v 0 c 0.025,0.171 0.031,0.346 0.019,0.528 v 0 c -0.012,0.182 -0.019,0.369 -0.019,0.562 v 0 c 0,0.17 0.007,0.351 0.019,0.547 v 0 c 0.012,0.192 0.006,0.375 -0.019,0.543 v 0 0.401 c -0.048,0.096 -0.078,0.192 -0.091,0.29 v 0 c -0.012,0.097 -0.042,0.181 -0.091,0.254 v 0 c -0.12,0.169 -0.314,0.267 -0.581,0.291 v 0 c -0.266,0.024 -0.545,0.036 -0.835,0.036 v 0 z"
         id="path1054" />
    </clipPath>
    <clipPath
       clipPathUnits="userSpaceOnUse"
       id="clipPath1068">
      <path
         d="M 0,595.276 H 841.89 V 0 H 0 Z"
         id="path1066" />
    </clipPath>
    <clipPath
       clipPathUnits="userSpaceOnUse"
       id="clipPath1080">
      <path
         d="m 318.472,148.725 h -14.533 -0.182 c -0.193,-0.048 -0.327,-0.097 -0.399,-0.144 v 0 c -0.196,-0.122 -0.309,-0.304 -0.346,-0.546 v 0 c -0.037,-0.242 -0.054,-0.521 -0.054,-0.836 v 0 -1.78 c 0,-0.193 0.005,-0.388 0.017,-0.58 v 0 c 0.013,-0.195 0.055,-0.352 0.127,-0.474 v 0 c 0.096,-0.145 0.243,-0.253 0.437,-0.326 v 0 c 0.194,-0.049 0.455,-0.068 0.782,-0.055 v 0 c 0.326,0.012 0.622,0.018 0.89,0.018 v 0 h 3.377 c 0.51,0 0.952,-0.018 1.327,-0.054 v 0 c 0.375,-0.036 0.624,-0.26 0.744,-0.673 v 0 c 0.05,-0.096 0.061,-0.194 0.038,-0.29 v 0 c -0.025,-0.097 -0.025,-0.205 0,-0.327 v 0 c 0.048,-0.145 0.067,-0.309 0.053,-0.49 v 0 c -0.012,-0.183 -0.018,-0.358 -0.018,-0.527 v 0 -3.088 -10.101 -3.633 -0.927 c 0,-0.302 0.061,-0.551 0.182,-0.745 v 0 c 0.121,-0.145 0.297,-0.23 0.527,-0.253 v 0 c 0.23,-0.025 0.478,-0.038 0.746,-0.038 v 0 h 2.469 0.619 c 0.216,0 0.41,0.025 0.581,0.074 v 0 c 0.265,0.121 0.417,0.321 0.454,0.6 v 0 c 0.036,0.278 0.053,0.611 0.053,0.999 v 0 3.414 10.464 3.234 c 0,0.145 -0.006,0.309 -0.017,0.491 v 0 c -0.012,0.18 -0.006,0.344 0.017,0.489 v 0 c 0.05,0.122 0.06,0.231 0.037,0.328 v 0 c -0.023,0.096 -0.023,0.206 0,0.326 v 0 c 0.122,0.413 0.358,0.637 0.709,0.673 v 0 c 0.351,0.036 0.768,0.054 1.252,0.054 v 0 h 3.708 c 0.508,0 0.944,0.011 1.307,0.037 v 0 c 0.364,0.024 0.606,0.242 0.727,0.653 v 0 c 0.048,0.147 0.065,0.296 0.055,0.455 v 0 c -0.013,0.157 -0.019,0.32 -0.019,0.49 v 0 1.417 0.364 c 0,0.12 -0.012,0.23 -0.036,0.326 v 0 0.182 c -0.025,0.12 -0.054,0.236 -0.091,0.345 v 0 c -0.036,0.109 -0.09,0.188 -0.163,0.236 v 0 c -0.195,0.121 -0.443,0.187 -0.746,0.201 v 0 c -0.302,0.012 -0.611,0.017 -0.926,0.017 v 0 z"
         id="path1078" />
    </clipPath>
    <clipPath
       clipPathUnits="userSpaceOnUse"
       id="clipPath1092">
      <path
         d="M 0,595.276 H 841.89 V 0 H 0 Z"
         id="path1090" />
    </clipPath>
    <clipPath
       clipPathUnits="userSpaceOnUse"
       id="clipPath1104">
      <path
         d="m 322.3,136.456 c -0.601,0 -1.091,-0.488 -1.091,-1.09 v 0 -1.64 c 0,-0.602 0.49,-1.089 1.091,-1.089 v 0 h 4.823 c 0.601,0 1.09,0.487 1.09,1.089 v 0 1.64 c 0,0.602 -0.489,1.09 -1.09,1.09 v 0 z"
         id="path1102" />
    </clipPath>
    <clipPath
       clipPathUnits="userSpaceOnUse"
       id="clipPath1116">
      <path
         d="M 0,595.276 H 841.89 V 0 H 0 Z"
         id="path1114" />
    </clipPath>
    <clipPath
       clipPathUnits="userSpaceOnUse"
       id="clipPath1128">
      <path
         d="m 338.438,146.011 c -0.042,-0.041 -0.124,-0.052 -0.249,-0.031 v 0 c -0.125,0.021 -0.216,0.021 -0.279,0 v 0 c -0.165,-0.041 -0.347,-0.061 -0.543,-0.061 v 0 c -0.198,0 -0.377,-0.021 -0.542,-0.063 v 0 c -0.167,-0.042 -0.322,-0.078 -0.466,-0.108 v 0 c -0.145,-0.032 -0.301,-0.068 -0.466,-0.109 v 0 c -0.6,-0.166 -1.127,-0.362 -1.583,-0.59 v 0 c -0.042,-0.041 -0.093,-0.067 -0.154,-0.077 v 0 c -0.063,-0.011 -0.115,-0.036 -0.156,-0.077 v 0 c -0.559,-0.354 -1.066,-0.74 -1.52,-1.165 v 0 c -0.456,-0.424 -0.828,-0.946 -1.118,-1.567 v 0 c -0.083,-0.186 -0.15,-0.382 -0.202,-0.589 v 0 c -0.052,-0.207 -0.108,-0.424 -0.171,-0.652 v 0 c -0.06,-0.206 -0.112,-0.502 -0.154,-0.884 v 0 c -0.041,-0.383 -0.031,-0.699 0.031,-0.947 v 0 c 0,-0.062 0.004,-0.124 0.015,-0.186 v 0 c 0.01,-0.062 0.017,-0.135 0.017,-0.217 v 0 c 0.061,-0.228 0.113,-0.451 0.154,-0.668 v 0 c 0.042,-0.217 0.115,-0.419 0.218,-0.605 v 0 c 0.226,-0.538 0.537,-0.977 0.93,-1.319 v 0 c 0.392,-0.341 0.828,-0.656 1.304,-0.947 v 0 c 0.186,-0.123 0.383,-0.226 0.589,-0.309 v 0 c 0.207,-0.083 0.414,-0.166 0.622,-0.249 v 0 c 0.041,-0.02 0.071,-0.031 0.091,-0.031 v 0 c 0.022,0 0.052,-0.01 0.095,-0.03 v 0 c 0.29,-0.125 0.599,-0.224 0.93,-0.296 v 0 c 0.331,-0.072 0.662,-0.16 0.994,-0.264 v 0 c 0.579,-0.165 1.178,-0.31 1.799,-0.433 v 0 c 0.621,-0.125 1.227,-0.254 1.816,-0.389 v 0 c 0.589,-0.135 1.153,-0.294 1.691,-0.481 v 0 c 0.538,-0.186 1.024,-0.435 1.458,-0.745 v 0 c 0.289,-0.207 0.539,-0.428 0.744,-0.666 v 0 c 0.208,-0.238 0.372,-0.534 0.498,-0.885 v 0 c 0.041,-0.083 0.061,-0.161 0.061,-0.233 v 0 c 0,-0.073 0.021,-0.161 0.063,-0.264 v 0 c 0.041,-0.145 0.062,-0.332 0.062,-0.558 v 0 c 0,-0.228 -0.021,-0.424 -0.062,-0.59 v 0 c -0.042,-0.165 -0.083,-0.33 -0.124,-0.496 v 0 c -0.043,-0.166 -0.094,-0.332 -0.156,-0.498 v 0 c -0.228,-0.516 -0.553,-0.926 -0.977,-1.224 v 0 c -0.425,-0.301 -0.905,-0.565 -1.443,-0.792 v 0 c -0.167,-0.062 -0.341,-0.108 -0.528,-0.139 v 0 c -0.185,-0.031 -0.362,-0.067 -0.526,-0.11 v 0 c -0.083,-0.041 -0.151,-0.056 -0.203,-0.046 v 0 c -0.052,0.01 -0.109,0.005 -0.171,-0.016 v 0 c -0.103,-0.021 -0.208,-0.031 -0.311,-0.031 v 0 c -0.104,0 -0.206,-0.01 -0.309,-0.03 v 0 h -0.218 c -0.103,-0.042 -0.233,-0.062 -0.387,-0.062 v 0 c -0.155,0 -0.274,0.01 -0.357,0.03 v 0 c -0.103,0.042 -0.213,0.052 -0.326,0.032 v 0 c -0.114,-0.021 -0.212,-0.021 -0.295,0 v 0 c -0.062,0 -0.124,0.004 -0.186,0.016 v 0 c -0.062,0.009 -0.115,0.014 -0.155,0.014 v 0 c -0.167,0.021 -0.331,0.042 -0.497,0.063 v 0 c -0.165,0.02 -0.331,0.051 -0.496,0.092 v 0 c -0.476,0.144 -0.921,0.301 -1.334,0.466 v 0 c -0.414,0.166 -0.797,0.383 -1.15,0.652 v 0 c -0.703,0.518 -1.23,1.22 -1.581,2.111 v 0 c -0.062,0.144 -0.11,0.288 -0.14,0.434 v 0 c -0.031,0.144 -0.068,0.289 -0.108,0.433 v 0 c -0.043,0.125 -0.068,0.244 -0.08,0.357 v 0 c -0.009,0.114 -0.045,0.224 -0.107,0.327 v 0 c -0.041,0.083 -0.134,0.166 -0.28,0.248 v 0 c -0.082,0.042 -0.154,0.057 -0.217,0.047 v 0 c -0.062,-0.011 -0.144,-0.005 -0.248,0.016 v 0 c -0.062,0.019 -0.139,0.03 -0.232,0.03 v 0 h -0.265 c -0.227,0 -0.461,-0.011 -0.698,-0.03 v 0 c -0.238,-0.021 -0.408,-0.105 -0.511,-0.249 v 0 c -0.105,-0.104 -0.156,-0.275 -0.156,-0.512 v 0 c 0,-0.238 0.021,-0.451 0.062,-0.637 v 0 c 0.041,-0.104 0.066,-0.216 0.078,-0.341 v 0 c 0.01,-0.123 0.036,-0.248 0.078,-0.372 v 0 c 0.103,-0.331 0.211,-0.642 0.326,-0.931 v 0 c 0.113,-0.29 0.253,-0.57 0.418,-0.838 v 0 c 0.497,-0.827 1.091,-1.5 1.785,-2.017 v 0 c 0.693,-0.518 1.546,-0.941 2.56,-1.272 v 0 c 0.206,-0.083 0.409,-0.145 0.606,-0.187 v 0 c 0.195,-0.041 0.407,-0.082 0.635,-0.124 v 0 c 0.103,-0.02 0.197,-0.035 0.28,-0.045 v 0 c 0.083,-0.011 0.165,-0.027 0.248,-0.048 v 0 c 0.186,-0.041 0.382,-0.062 0.588,-0.062 v 0 c 0.208,0 0.414,-0.02 0.621,-0.062 v 0 h 0.342 c 0.104,-0.021 0.253,-0.031 0.45,-0.031 v 0 c 0.197,0 0.346,0.01 0.45,0.031 v 0 c 0.125,0 0.249,0.005 0.373,0.015 v 0 c 0.124,0.012 0.248,0.016 0.372,0.016 v 0 c 0.103,0.021 0.212,0.031 0.326,0.031 v 0 c 0.114,0 0.223,0.011 0.326,0.031 v 0 c 0.249,0.063 0.497,0.108 0.745,0.14 v 0 c 0.248,0.032 0.485,0.088 0.713,0.17 v 0 c 0.228,0.062 0.44,0.125 0.637,0.186 v 0 c 0.196,0.063 0.398,0.134 0.605,0.217 v 0 c 0.62,0.291 1.2,0.622 1.738,0.994 v 0 c 0.537,0.373 0.981,0.827 1.334,1.366 v 0 c 0.186,0.249 0.342,0.517 0.466,0.807 v 0 c 0.124,0.288 0.238,0.589 0.341,0.899 v 0 c 0.061,0.165 0.097,0.336 0.108,0.512 v 0 c 0.01,0.176 0.036,0.347 0.078,0.513 v 0 0.247 c 0,0.083 0.01,0.166 0.031,0.249 v 0 0.279 0.342 c -0.041,0.123 -0.062,0.252 -0.062,0.387 v 0 c 0,0.135 -0.021,0.254 -0.062,0.358 v 0 c -0.042,0.206 -0.083,0.403 -0.124,0.589 v 0 c -0.042,0.186 -0.104,0.372 -0.186,0.558 v 0 c -0.228,0.517 -0.523,0.967 -0.884,1.35 v 0 c -0.363,0.383 -0.772,0.718 -1.226,1.008 v 0 c -0.352,0.229 -0.726,0.425 -1.117,0.591 v 0 c -0.394,0.165 -0.797,0.32 -1.211,0.465 v 0 c -0.187,0.062 -0.373,0.119 -0.559,0.171 v 0 c -0.186,0.051 -0.372,0.098 -0.558,0.139 v 0 c -0.083,0.02 -0.155,0.036 -0.217,0.047 v 0 c -0.062,0.011 -0.135,0.025 -0.218,0.047 v 0 c -0.29,0.103 -0.595,0.18 -0.915,0.232 v 0 c -0.321,0.053 -0.627,0.119 -0.915,0.201 v 0 c -0.187,0.063 -0.372,0.104 -0.559,0.125 v 0 c -0.186,0.02 -0.373,0.051 -0.559,0.093 v 0 c -0.602,0.165 -1.179,0.321 -1.738,0.466 v 0 c -0.558,0.144 -1.065,0.361 -1.52,0.651 v 0 c -0.393,0.227 -0.698,0.466 -0.915,0.714 v 0 c -0.218,0.248 -0.4,0.611 -0.544,1.087 v 0 c -0.042,0.144 -0.067,0.32 -0.077,0.526 v 0 c -0.011,0.207 0.004,0.393 0.046,0.559 v 0 c 0.041,0.207 0.076,0.399 0.109,0.574 v 0 c 0.031,0.176 0.087,0.347 0.17,0.513 v 0 c 0.166,0.413 0.414,0.761 0.744,1.039 v 0 c 0.332,0.28 0.704,0.502 1.118,0.668 v 0 c 0.725,0.33 1.625,0.495 2.7,0.495 v 0 h 0.497 c 0.165,0 0.329,-0.02 0.497,-0.062 v 0 h 0.248 c 0.123,-0.041 0.248,-0.067 0.372,-0.077 v 0 c 0.124,-0.011 0.248,-0.036 0.372,-0.077 v 0 c 0.662,-0.166 1.232,-0.414 1.707,-0.746 v 0 c 0.641,-0.413 1.136,-1.034 1.49,-1.861 v 0 c 0.102,-0.208 0.181,-0.445 0.232,-0.714 v 0 c 0.053,-0.269 0.14,-0.496 0.264,-0.683 v 0 c 0.041,-0.041 0.082,-0.077 0.124,-0.109 v 0 c 0.042,-0.03 0.083,-0.057 0.124,-0.077 v 0 c 0.082,-0.041 0.161,-0.062 0.234,-0.062 v 0 c 0.071,0 0.159,-0.011 0.263,-0.031 v 0 c 0.082,-0.02 0.165,-0.03 0.247,-0.03 v 0 h 0.282 c 0.247,0 0.485,0.01 0.712,0.03 v 0 c 0.228,0.02 0.392,0.104 0.496,0.248 v 0 c 0.062,0.103 0.098,0.254 0.11,0.451 v 0 c 0.009,0.196 -0.006,0.376 -0.048,0.542 v 0 c -0.103,0.393 -0.207,0.771 -0.309,1.133 v 0 c -0.105,0.362 -0.249,0.687 -0.435,0.977 v 0 c -0.063,0.104 -0.12,0.212 -0.171,0.326 v 0 c -0.052,0.114 -0.119,0.223 -0.202,0.327 v 0 c -0.082,0.103 -0.165,0.206 -0.249,0.31 v 0 c -0.082,0.103 -0.164,0.206 -0.245,0.31 v 0 c -0.044,0.062 -0.094,0.119 -0.157,0.171 v 0 c -0.062,0.052 -0.114,0.097 -0.156,0.139 v 0 c -0.041,0.041 -0.083,0.078 -0.123,0.109 v 0 c -0.043,0.031 -0.084,0.067 -0.125,0.109 v 0 c -0.104,0.103 -0.212,0.185 -0.325,0.247 v 0 c -0.114,0.063 -0.233,0.135 -0.357,0.217 v 0 c -0.703,0.456 -1.511,0.797 -2.421,1.025 v 0 c -0.769,0.192 -1.635,0.288 -2.595,0.288 v 0 c -0.176,0 -0.356,-0.003 -0.539,-0.009"
         id="path1126" />
    </clipPath>
    <clipPath
       clipPathUnits="userSpaceOnUse"
       id="clipPath1140">
      <path
         d="M 0,595.276 H 841.89 V 0 H 0 Z"
         id="path1138" />
    </clipPath>
    <clipPath
       clipPathUnits="userSpaceOnUse"
       id="clipPath1152">
      <path
         d="m 357.151,139.836 c -0.042,-0.043 -0.155,-0.058 -0.342,-0.046 v 0 c -0.186,0.011 -0.321,0.003 -0.403,-0.016 v 0 c -0.227,-0.042 -0.451,-0.072 -0.668,-0.093 v 0 c -0.216,-0.022 -0.43,-0.052 -0.635,-0.094 v 0 c -0.89,-0.248 -1.634,-0.574 -2.235,-0.977 v 0 c -0.6,-0.403 -1.096,-0.968 -1.489,-1.691 v 0 c -0.104,-0.227 -0.192,-0.461 -0.264,-0.698 v 0 c -0.074,-0.238 -0.14,-0.492 -0.202,-0.76 v 0 c -0.042,-0.167 -0.042,-0.322 0,-0.466 v 0 c 0.041,-0.144 0.103,-0.249 0.186,-0.31 v 0 c 0.083,-0.062 0.222,-0.11 0.419,-0.14 v 0 c 0.197,-0.031 0.398,-0.046 0.605,-0.046 v 0 c 0.207,0 0.41,0.015 0.606,0.046 v 0 c 0.196,0.03 0.335,0.078 0.418,0.14 v 0 c 0.145,0.103 0.242,0.248 0.296,0.434 v 0 c 0.051,0.186 0.108,0.362 0.171,0.528 v 0 c 0.102,0.227 0.221,0.439 0.356,0.636 v 0 c 0.134,0.196 0.284,0.357 0.449,0.481 v 0 c 0.331,0.227 0.671,0.403 1.024,0.527 v 0 c 0.25,0.082 0.549,0.145 0.9,0.187 v 0 c 0.352,0.041 0.714,0.062 1.087,0.062 v 0 c 0.373,0 0.729,-0.021 1.07,-0.062 v 0 c 0.342,-0.042 0.637,-0.115 0.884,-0.218 v 0 c 0.436,-0.166 0.772,-0.393 1.009,-0.682 v 0 c 0.238,-0.29 0.42,-0.684 0.542,-1.18 v 0 c 0.084,-0.31 0.084,-0.595 0,-0.853 v 0 c -0.083,-0.26 -0.184,-0.471 -0.309,-0.637 v 0 c -0.269,-0.371 -0.631,-0.605 -1.086,-0.698 v 0 c -0.455,-0.093 -0.941,-0.201 -1.458,-0.325 v 0 c -0.166,-0.042 -0.321,-0.068 -0.465,-0.078 v 0 c -0.146,-0.011 -0.292,-0.036 -0.436,-0.078 v 0 c -0.165,-0.041 -0.315,-0.062 -0.449,-0.062 v 0 c -0.135,0 -0.274,-0.021 -0.419,-0.061 v 0 c -0.31,-0.062 -0.62,-0.114 -0.932,-0.156 v 0 c -0.309,-0.041 -0.61,-0.104 -0.899,-0.186 v 0 c -0.766,-0.229 -1.47,-0.486 -2.11,-0.776 v 0 c -0.641,-0.29 -1.149,-0.734 -1.521,-1.335 v 0 c -0.124,-0.186 -0.228,-0.393 -0.31,-0.62 v 0 c -0.084,-0.228 -0.167,-0.455 -0.248,-0.683 v 0 c -0.021,-0.124 -0.036,-0.244 -0.047,-0.357 v 0 c -0.01,-0.113 -0.026,-0.221 -0.047,-0.325 v 0 -0.652 c 0,-0.641 0.094,-1.189 0.28,-1.646 v 0 c 0.248,-0.62 0.562,-1.1 0.946,-1.441 v 0 c 0.382,-0.342 0.884,-0.647 1.505,-0.917 v 0 c 0.144,-0.061 0.299,-0.108 0.466,-0.139 v 0 c 0.165,-0.031 0.33,-0.067 0.497,-0.109 v 0 c 0.062,-0.02 0.117,-0.025 0.17,-0.014 v 0 c 0.05,0.01 0.118,0.004 0.201,-0.017 v 0 c 0.083,-0.041 0.177,-0.062 0.28,-0.062 v 0 c 0.104,0 0.206,-0.01 0.31,-0.031 v 0 h 0.28 c 0.206,-0.041 0.425,-0.041 0.651,0 v 0 h 0.232 c 0.073,0 0.162,0.012 0.265,0.031 v 0 c 0.227,0.042 0.46,0.073 0.698,0.093 v 0 c 0.237,0.022 0.459,0.062 0.667,0.124 v 0 c 0.352,0.104 0.684,0.223 0.993,0.357 v 0 c 0.311,0.135 0.6,0.285 0.869,0.45 v 0 c 0.187,0.125 0.377,0.27 0.575,0.435 v 0 c 0.195,0.165 0.408,0.279 0.634,0.341 v 0 c 0.084,0.021 0.151,0.01 0.204,-0.03 v 0 c 0.05,-0.043 0.097,-0.083 0.138,-0.125 v 0 c 0.124,-0.125 0.228,-0.285 0.311,-0.481 v 0 c 0.082,-0.197 0.175,-0.367 0.279,-0.512 v 0 c 0.166,-0.229 0.47,-0.419 0.916,-0.573 v 0 c 0.444,-0.155 0.894,-0.182 1.35,-0.079 v 0 c 0.125,0.042 0.243,0.062 0.357,0.062 v 0 c 0.113,0 0.222,0.021 0.326,0.063 v 0 c 0.206,0.104 0.372,0.263 0.495,0.481 v 0 c 0.125,0.217 0.156,0.491 0.095,0.823 v 0 c -0.021,0.102 -0.032,0.186 -0.032,0.247 v 0 c 0,0.062 -0.021,0.124 -0.063,0.186 v 0 c -0.083,0.165 -0.206,0.264 -0.372,0.296 v 0 c -0.164,0.031 -0.34,0.087 -0.527,0.17 v 0 c -0.167,0.062 -0.301,0.165 -0.403,0.309 v 0 c -0.105,0.167 -0.167,0.384 -0.187,0.653 v 0 c -0.02,0.269 -0.032,0.547 -0.032,0.838 v 0 6.858 c 0,0.6 -0.014,1.173 -0.045,1.722 v 0 c -0.031,0.548 -0.141,1.029 -0.327,1.443 v 0 c -0.434,0.994 -1.189,1.666 -2.266,2.017 v 0 c -1.014,0.332 -2.196,0.498 -3.542,0.498 v 0 c -0.08,0 -0.161,0 -0.242,-10e-4 m -1.134,-14.476 c -0.216,0.009 -0.398,0.035 -0.542,0.077 v 0 c -0.104,0.02 -0.207,0.03 -0.311,0.03 v 0 c -0.104,0 -0.207,0.011 -0.31,0.032 v 0 c -0.31,0.102 -0.6,0.233 -0.868,0.388 v 0 c -0.27,0.154 -0.487,0.346 -0.652,0.574 v 0 c -0.105,0.145 -0.192,0.305 -0.264,0.48 v 0 c -0.073,0.177 -0.109,0.368 -0.109,0.575 v 0 c -0.021,0.454 0.019,0.842 0.124,1.163 v 0 c 0.104,0.321 0.259,0.595 0.466,0.823 v 0 c 0.207,0.227 0.455,0.419 0.745,0.574 v 0 c 0.288,0.155 0.6,0.284 0.93,0.388 v 0 c 0.166,0.041 0.316,0.077 0.45,0.108 v 0 c 0.135,0.032 0.285,0.067 0.45,0.11 v 0 c 0.312,0.082 0.647,0.128 1.009,0.138 v 0 c 0.362,0.011 0.698,0.057 1.009,0.14 v 0 c 0.082,0 0.159,0.004 0.232,0.015 v 0 c 0.072,0.011 0.14,0.016 0.202,0.016 v 0 c 0.207,0.042 0.413,0.083 0.619,0.126 v 0 c 0.208,0.04 0.394,0.081 0.56,0.123 v 0 c 0.082,0.041 0.176,0.062 0.28,0.062 v 0 c 0.103,0 0.174,0.021 0.218,0.062 v 0 c 0.227,0 0.371,-0.021 0.434,-0.062 v 0 c 0.144,-0.104 0.227,-0.248 0.246,-0.434 v 0 c 0.022,-0.186 0.032,-0.393 0.032,-0.621 v 0 c 0,-0.414 -0.004,-0.812 -0.015,-1.195 v 0 c -0.011,-0.383 -0.078,-0.718 -0.201,-1.009 v 0 c -0.228,-0.6 -0.555,-1.076 -0.978,-1.426 v 0 c -0.425,-0.353 -0.937,-0.653 -1.537,-0.901 v 0 c -0.144,-0.062 -0.294,-0.104 -0.449,-0.125 v 0 c -0.156,-0.02 -0.316,-0.052 -0.482,-0.092 v 0 c -0.124,-0.042 -0.248,-0.057 -0.372,-0.046 v 0 c -0.124,0.01 -0.248,-0.006 -0.372,-0.048 v 0 c -0.115,-0.032 -0.252,-0.049 -0.412,-0.049 v 0 c -0.042,0 -0.086,0.001 -0.132,0.004"
         id="path1150" />
    </clipPath>
    <clipPath
       clipPathUnits="userSpaceOnUse"
       id="clipPath1164">
      <path
         d="M 0,595.276 H 841.89 V 0 H 0 Z"
         id="path1162" />
    </clipPath>
    <clipPath
       clipPathUnits="userSpaceOnUse"
       id="clipPath1176">
      <path
         d="m 376.282,146.058 c -0.217,-0.01 -0.4,-0.016 -0.543,-0.016 v 0 c -0.042,0 -0.089,-0.004 -0.141,-0.015 v 0 c -0.051,-0.01 -0.108,-0.016 -0.171,-0.016 v 0 c -0.143,-0.062 -0.289,-0.144 -0.434,-0.247 v 0 c -0.144,-0.104 -0.258,-0.234 -0.34,-0.389 v 0 c -0.084,-0.156 -0.167,-0.305 -0.249,-0.449 v 0 c -0.186,-0.292 -0.372,-0.591 -0.559,-0.901 v 0 c -0.187,-0.31 -0.362,-0.61 -0.529,-0.9 v 0 c -0.101,-0.124 -0.194,-0.254 -0.277,-0.388 v 0 c -0.083,-0.134 -0.146,-0.284 -0.186,-0.45 v 0 c -0.042,-0.124 -0.037,-0.232 0.015,-0.325 v 0 c 0.051,-0.093 0.109,-0.161 0.171,-0.202 v 0 c 0.186,-0.104 0.439,-0.13 0.761,-0.078 v 0 c 0.32,0.052 0.552,0.119 0.697,0.202 v 0 c 0.104,0.062 0.202,0.145 0.295,0.248 v 0 c 0.093,0.103 0.181,0.207 0.264,0.31 v 0 c 0.062,0.062 0.129,0.124 0.202,0.186 v 0 c 0.072,0.062 0.128,0.135 0.169,0.218 v 0 c 0.084,0.104 0.166,0.191 0.249,0.264 v 0 c 0.083,0.072 0.166,0.16 0.249,0.264 v 0 c 0.041,0.02 0.067,0.041 0.077,0.062 v 0 c 0.011,0.02 0.036,0.051 0.078,0.092 v 0 c 0.082,0.104 0.17,0.192 0.263,0.265 v 0 c 0.094,0.072 0.172,0.159 0.233,0.264 v 0 c 0.104,0.123 0.202,0.243 0.295,0.357 v 0 c 0.093,0.112 0.191,0.22 0.295,0.325 v 0 c 0.103,0.103 0.217,0.218 0.34,0.342 v 0 c 0.126,0.124 0.208,0.248 0.25,0.372 v 0 c 0.041,0.144 0.051,0.259 0.031,0.341 v 0 c -0.062,0.082 -0.177,0.145 -0.341,0.186 v 0 c -0.166,0.041 -0.348,0.068 -0.545,0.078 v 0 c -0.097,0.005 -0.198,0.008 -0.301,0.008 v 0 c -0.104,0 -0.209,-0.003 -0.318,-0.008"
         id="path1174" />
    </clipPath>
    <clipPath
       clipPathUnits="userSpaceOnUse"
       id="clipPath1188">
      <path
         d="M 0,595.276 H 841.89 V 0 H 0 Z"
         id="path1186" />
    </clipPath>
    <clipPath
       clipPathUnits="userSpaceOnUse"
       id="clipPath1200">
      <path
         d="m 379.214,139.432 c -0.165,-0.042 -0.307,-0.078 -0.418,-0.108 v 0 c -0.115,-0.031 -0.213,-0.099 -0.296,-0.202 v 0 c -0.103,-0.166 -0.15,-0.388 -0.139,-0.667 v 0 c 0.01,-0.28 0.015,-0.544 0.015,-0.792 v 0 -3.289 -2.421 c 0,-0.186 0.01,-0.387 0.032,-0.604 v 0 c 0.02,-0.218 0.01,-0.409 -0.032,-0.575 v 0 -0.651 c -0.042,-0.105 -0.057,-0.198 -0.046,-0.28 v 0 c 0.01,-0.083 0.004,-0.176 -0.016,-0.279 v 0 c -0.041,-0.185 -0.073,-0.363 -0.094,-0.527 v 0 c -0.02,-0.166 -0.062,-0.332 -0.124,-0.496 v 0 c -0.227,-0.726 -0.541,-1.309 -0.946,-1.754 v 0 c -0.403,-0.446 -0.946,-0.812 -1.629,-1.102 v 0 c -0.393,-0.166 -0.91,-0.274 -1.551,-0.325 v 0 c -0.642,-0.052 -1.19,0.014 -1.645,0.201 v 0 c -0.91,0.372 -1.531,1.024 -1.862,1.955 v 0 c -0.104,0.351 -0.155,0.77 -0.155,1.257 v 0 1.412 4.686 2.948 c 0,0.247 -0.006,0.497 -0.016,0.744 v 0 c -0.01,0.249 -0.067,0.455 -0.17,0.621 v 0 c -0.125,0.166 -0.342,0.248 -0.652,0.248 v 0 h -0.9 c -0.042,-0.02 -0.084,-0.026 -0.123,-0.016 v 0 c -0.043,0.011 -0.083,0.006 -0.126,-0.015 v 0 c -0.227,-0.062 -0.381,-0.166 -0.465,-0.31 v 0 c -0.084,-0.124 -0.124,-0.279 -0.124,-0.465 v 0 -0.56 -1.986 -5.709 -1.242 c 0,-0.103 -0.006,-0.212 -0.015,-0.326 v 0 c -0.011,-0.114 -0.007,-0.212 0.015,-0.294 v 0 -0.309 c 0.021,-0.063 0.03,-0.131 0.03,-0.203 v 0 c 0,-0.073 0.01,-0.13 0.032,-0.171 v 0 c 0.041,-0.146 0.058,-0.273 0.047,-0.387 v 0 c -0.011,-0.114 0.004,-0.234 0.047,-0.357 v 0 c 0.041,-0.207 0.082,-0.41 0.124,-0.606 v 0 c 0.041,-0.197 0.102,-0.387 0.185,-0.574 v 0 c 0.229,-0.538 0.523,-0.998 0.885,-1.382 v 0 c 0.362,-0.382 0.812,-0.687 1.35,-0.914 v 0 c 0.165,-0.083 0.326,-0.146 0.481,-0.186 v 0 c 0.155,-0.043 0.315,-0.083 0.48,-0.124 v 0 c 0.104,-0.042 0.193,-0.057 0.265,-0.046 v 0 c 0.071,0.01 0.149,-0.006 0.232,-0.047 v 0 c 0.103,-0.021 0.222,-0.032 0.357,-0.032 v 0 c 0.134,0 0.254,-0.019 0.357,-0.062 v 0 h 0.31 c 0.166,-0.041 0.352,-0.041 0.558,0 v 0 c 0.105,0.043 0.213,0.052 0.328,0.031 v 0 c 0.112,-0.02 0.221,-0.02 0.325,0 v 0 c 0.249,0.063 0.491,0.11 0.729,0.14 v 0 c 0.237,0.031 0.47,0.097 0.699,0.202 v 0 c 0.579,0.247 1.095,0.538 1.551,0.869 v 0 c 0.145,0.103 0.299,0.252 0.466,0.449 v 0 c 0.164,0.197 0.33,0.315 0.496,0.358 v 0 c 0.124,0.019 0.217,-0.011 0.279,-0.094 v 0 c 0.063,-0.083 0.104,-0.192 0.124,-0.326 v 0 c 0.021,-0.135 0.036,-0.273 0.047,-0.418 v 0 c 0.01,-0.144 0.027,-0.259 0.047,-0.341 v 0 c 0.082,-0.188 0.175,-0.322 0.278,-0.404 v 0 c 0.083,-0.063 0.213,-0.104 0.388,-0.124 v 0 c 0.177,-0.021 0.363,-0.027 0.558,-0.015 v 0 c 0.197,0.01 0.378,0.031 0.544,0.062 v 0 c 0.165,0.031 0.291,0.077 0.373,0.139 v 0 c 0.144,0.103 0.222,0.263 0.231,0.48 v 0 c 0.012,0.218 0.017,0.451 0.017,0.699 v 0 2.793 8.348 2.109 0.606 c 0,0.196 -0.051,0.346 -0.155,0.45 v 0 c -0.103,0.166 -0.254,0.259 -0.451,0.279 v 0 c -0.195,0.021 -0.418,0.031 -0.666,0.031 v 0 z"
         id="path1198" />
    </clipPath>
    <clipPath
       clipPathUnits="userSpaceOnUse"
       id="clipPath1212">
      <path
         d="M 0,595.276 H 841.89 V 0 H 0 Z"
         id="path1210" />
    </clipPath>
    <clipPath
       clipPathUnits="userSpaceOnUse"
       id="clipPath1224">
      <path
         d="m 397.524,145.515 c -0.042,0 -0.093,-0.006 -0.155,-0.016 v 0 c -0.062,-0.011 -0.115,-0.015 -0.156,-0.015 v 0 c -0.165,-0.041 -0.29,-0.135 -0.372,-0.279 v 0 c -0.104,-0.166 -0.155,-0.43 -0.155,-0.791 v 0 -0.978 -3.569 c 0,-0.228 0.005,-0.486 0.015,-0.776 v 0 c 0.011,-0.289 -0.015,-0.528 -0.077,-0.714 v 0 c -0.021,-0.083 -0.047,-0.145 -0.078,-0.187 v 0 c -0.031,-0.041 -0.068,-0.092 -0.109,-0.154 v 0 c -0.228,-0.042 -0.408,-0.005 -0.542,0.109 v 0 c -0.136,0.113 -0.264,0.221 -0.388,0.325 v 0 c -0.249,0.188 -0.512,0.352 -0.792,0.497 v 0 c -0.279,0.144 -0.574,0.279 -0.884,0.403 v 0 c -0.208,0.103 -0.425,0.17 -0.652,0.202 v 0 c -0.227,0.032 -0.456,0.078 -0.683,0.14 v 0 c -0.145,0 -0.26,0.009 -0.342,0.03 v 0 c -0.164,0.042 -0.408,0.063 -0.729,0.063 v 0 c -0.32,0 -0.563,-0.021 -0.729,-0.063 v 0 h -0.309 c -0.146,-0.04 -0.285,-0.072 -0.42,-0.092 v 0 c -0.135,-0.021 -0.274,-0.043 -0.419,-0.063 v 0 c -0.455,-0.123 -0.875,-0.269 -1.256,-0.434 v 0 c -0.384,-0.165 -0.752,-0.372 -1.102,-0.62 v 0 c -0.601,-0.415 -1.112,-0.937 -1.536,-1.567 v 0 c -0.425,-0.632 -0.771,-1.341 -1.04,-2.126 v 0 c -0.062,-0.187 -0.114,-0.378 -0.156,-0.574 v 0 c -0.041,-0.198 -0.092,-0.4 -0.154,-0.606 v 0 c -0.022,-0.104 -0.031,-0.196 -0.031,-0.278 v 0 c 0,-0.084 -0.012,-0.178 -0.032,-0.28 v 0 c -0.041,-0.145 -0.056,-0.295 -0.046,-0.451 v 0 c 0.011,-0.155 -0.006,-0.305 -0.047,-0.449 v 0 -0.341 c -0.041,-0.105 -0.061,-0.238 -0.061,-0.404 v 0 c 0,-0.166 0.02,-0.3 0.061,-0.403 v 0 -0.311 c 0.021,-0.104 0.027,-0.212 0.016,-0.326 v 0 c -0.01,-0.114 0.005,-0.222 0.046,-0.326 v 0 c 0.02,-0.103 0.031,-0.207 0.031,-0.31 v 0 c 0,-0.104 0.01,-0.207 0.032,-0.311 v 0 c 0.061,-0.206 0.108,-0.407 0.14,-0.604 v 0 c 0.031,-0.197 0.087,-0.388 0.17,-0.575 v 0 c 0.372,-1.158 0.89,-2.125 1.551,-2.9 v 0 c 0.663,-0.776 1.532,-1.393 2.607,-1.848 v 0 c 0.372,-0.166 0.807,-0.283 1.304,-0.355 v 0 c 0.497,-0.073 0.998,-0.104 1.504,-0.093 v 0 c 0.508,0.01 1.005,0.057 1.49,0.138 v 0 c 0.486,0.083 0.916,0.206 1.288,0.373 v 0 c 0.413,0.165 0.828,0.404 1.242,0.714 v 0 c 0.124,0.103 0.242,0.206 0.356,0.31 v 0 c 0.114,0.104 0.275,0.144 0.481,0.124 v 0 c 0.041,-0.042 0.078,-0.078 0.109,-0.109 v 0 c 0.031,-0.03 0.057,-0.067 0.077,-0.108 v 0 c 0.063,-0.145 0.099,-0.29 0.109,-0.434 v 0 c 0.011,-0.145 0.057,-0.27 0.14,-0.374 v 0 c 0.062,-0.123 0.186,-0.206 0.372,-0.247 v 0 c 0.083,-0.043 0.181,-0.058 0.294,-0.046 v 0 c 0.114,0.01 0.234,0.015 0.358,0.015 v 0 c 0.248,0 0.492,0.005 0.73,0.016 v 0 c 0.237,0.009 0.407,0.087 0.511,0.231 v 0 c 0.103,0.166 0.156,0.379 0.156,0.637 v 0 0.791 18.744 0.775 c 0,0.25 -0.053,0.457 -0.156,0.621 v 0 c -0.124,0.166 -0.347,0.253 -0.667,0.264 v 0 c -0.107,0.004 -0.212,0.005 -0.316,0.005 v 0 c -0.206,0 -0.406,-0.006 -0.599,-0.02 m -6.735,-20.078 c -0.228,0.062 -0.434,0.124 -0.62,0.186 v 0 c -0.186,0.062 -0.373,0.144 -0.558,0.247 v 0 c -0.6,0.332 -1.098,0.756 -1.491,1.273 v 0 c -0.393,0.518 -0.702,1.138 -0.93,1.863 v 0 c -0.042,0.144 -0.078,0.289 -0.109,0.434 v 0 c -0.031,0.145 -0.068,0.289 -0.108,0.434 v 0 c 0,0.144 -0.011,0.249 -0.031,0.311 v 0 c -0.043,0.186 -0.063,0.387 -0.063,0.605 v 0 0.667 c 0,0.103 -0.005,0.217 -0.017,0.341 v 0 c -0.009,0.124 0.007,0.237 0.049,0.342 v 0 c 0,0.083 0.003,0.16 0.015,0.233 v 0 c 0.01,0.072 0.016,0.15 0.016,0.233 v 0 c 0.041,0.227 0.076,0.459 0.108,0.697 v 0 c 0.031,0.238 0.088,0.47 0.17,0.698 v 0 c 0.249,0.724 0.574,1.361 0.978,1.909 v 0 c 0.404,0.548 0.937,0.967 1.598,1.257 v 0 c 0.166,0.061 0.337,0.114 0.512,0.155 v 0 c 0.177,0.041 0.347,0.083 0.512,0.124 v 0 c 0.104,0 0.197,0.006 0.28,0.016 v 0 c 0.082,0.01 0.175,0.026 0.279,0.046 v 0 h 0.574 c 0.197,0 0.378,-0.02 0.543,-0.062 v 0 c 0.247,-0.041 0.482,-0.088 0.699,-0.139 v 0 c 0.217,-0.052 0.428,-0.13 0.636,-0.233 v 0 c 0.599,-0.27 1.095,-0.641 1.49,-1.117 v 0 c 0.392,-0.476 0.713,-1.024 0.962,-1.646 v 0 c 0.061,-0.144 0.108,-0.289 0.139,-0.433 v 0 c 0.032,-0.145 0.067,-0.301 0.108,-0.466 v 0 c 0.062,-0.165 0.104,-0.347 0.125,-0.543 v 0 c 0.02,-0.196 0.051,-0.388 0.091,-0.574 v 0 -0.466 c 0.043,-0.104 0.064,-0.243 0.064,-0.418 v 0 c 0,-0.177 -0.021,-0.316 -0.064,-0.42 v 0 c -0.02,-0.123 -0.024,-0.248 -0.014,-0.371 v 0 c 0.01,-0.125 0.005,-0.249 -0.017,-0.373 v 0 c -0.019,-0.083 -0.029,-0.16 -0.029,-0.233 v 0 c 0,-0.073 -0.022,-0.151 -0.062,-0.233 v 0 c -0.062,-0.228 -0.115,-0.455 -0.155,-0.682 v 0 c -0.043,-0.228 -0.114,-0.456 -0.218,-0.683 v 0 c -0.29,-0.684 -0.646,-1.246 -1.071,-1.691 v 0 c -0.424,-0.446 -0.976,-0.812 -1.659,-1.102 v 0 c -0.145,-0.062 -0.3,-0.108 -0.466,-0.14 v 0 c -0.166,-0.03 -0.332,-0.067 -0.498,-0.109 v 0 c -0.144,0 -0.247,-0.01 -0.309,-0.03 v 0 h -0.279 -0.264 c -0.093,0 -0.182,0.01 -0.264,0.03 v 0 c -0.103,0.042 -0.212,0.052 -0.325,0.031 v 0 c -0.038,-0.006 -0.076,-0.01 -0.113,-0.01 v 0 c -0.074,0 -0.145,0.015 -0.214,0.042"
         id="path1222" />
    </clipPath>
    <clipPath
       clipPathUnits="userSpaceOnUse"
       id="clipPath1236">
      <path
         d="M 0,595.276 H 841.89 V 0 H 0 Z"
         id="path1234" />
    </clipPath>
    <clipPath
       clipPathUnits="userSpaceOnUse"
       id="clipPath1248">
      <path
         d="m 409.812,139.774 c -0.042,-0.042 -0.093,-0.053 -0.155,-0.032 v 0 c -0.063,0.022 -0.115,0.022 -0.156,0 v 0 c -0.104,0 -0.196,-0.004 -0.279,-0.014 v 0 c -0.083,-0.011 -0.176,-0.026 -0.28,-0.047 v 0 c -0.289,-0.062 -0.563,-0.119 -0.821,-0.171 v 0 c -0.26,-0.052 -0.513,-0.129 -0.76,-0.232 v 0 c -0.85,-0.352 -1.564,-0.791 -2.142,-1.319 v 0 c -0.579,-0.528 -1.097,-1.155 -1.551,-1.879 v 0 c -0.124,-0.227 -0.233,-0.46 -0.326,-0.698 v 0 c -0.094,-0.238 -0.192,-0.47 -0.297,-0.697 v 0 c -0.122,-0.29 -0.21,-0.601 -0.262,-0.932 v 0 c -0.051,-0.331 -0.119,-0.662 -0.201,-0.992 v 0 c -0.022,-0.104 -0.026,-0.213 -0.016,-0.326 v 0 c 0.01,-0.114 -0.006,-0.223 -0.046,-0.327 v 0 -0.341 c -0.022,-0.103 -0.027,-0.232 -0.016,-0.387 v 0 c 0.01,-0.155 0.025,-0.275 0.046,-0.357 v 0 -0.435 c 0.041,-0.186 0.072,-0.372 0.093,-0.559 v 0 c 0.021,-0.186 0.051,-0.362 0.093,-0.527 v 0 c 0.02,-0.104 0.032,-0.186 0.032,-0.249 v 0 c 0,-0.061 0.009,-0.135 0.031,-0.216 v 0 c 0.081,-0.249 0.149,-0.496 0.201,-0.746 v 0 c 0.052,-0.248 0.129,-0.486 0.232,-0.713 v 0 c 0.29,-0.703 0.647,-1.339 1.071,-1.908 v 0 c 0.425,-0.569 0.936,-1.051 1.538,-1.443 v 0 c 0.35,-0.207 0.681,-0.383 0.991,-0.529 v 0 c 0.082,-0.041 0.156,-0.067 0.217,-0.076 v 0 c 0.063,-0.011 0.133,-0.037 0.218,-0.079 v 0 c 0.165,-0.061 0.341,-0.119 0.527,-0.17 v 0 c 0.187,-0.051 0.373,-0.098 0.559,-0.14 v 0 c 0.104,-0.02 0.217,-0.035 0.342,-0.045 v 0 c 0.124,-0.011 0.237,-0.027 0.341,-0.048 v 0 c 0.082,-0.02 0.165,-0.031 0.249,-0.031 v 0 c 0.082,0 0.175,-0.01 0.278,-0.03 v 0 h 0.281 c 0.082,-0.021 0.19,-0.032 0.325,-0.032 v 0 c 0.134,0 0.253,0.011 0.357,0.032 v 0 h 0.31 c 0.103,0.02 0.201,0.03 0.295,0.03 v 0 c 0.092,0 0.191,0.011 0.293,0.031 v 0 c 0.229,0.042 0.447,0.078 0.654,0.11 v 0 c 0.206,0.03 0.413,0.087 0.621,0.17 v 0 c 0.805,0.268 1.473,0.614 2,1.038 v 0 c 0.528,0.425 0.998,0.968 1.413,1.631 v 0 c 0.268,0.435 0.485,0.931 0.65,1.489 v 0 c 0.104,0.33 0.052,0.569 -0.154,0.713 v 0 c -0.062,0.063 -0.175,0.105 -0.341,0.125 v 0 c -0.165,0.02 -0.342,0.036 -0.528,0.046 v 0 c -0.186,0.01 -0.372,0.006 -0.558,-0.015 v 0 c -0.186,-0.021 -0.322,-0.051 -0.403,-0.093 v 0 c -0.23,-0.104 -0.388,-0.269 -0.482,-0.496 v 0 c -0.093,-0.229 -0.202,-0.447 -0.325,-0.653 v 0 c -0.125,-0.227 -0.271,-0.439 -0.435,-0.636 v 0 c -0.167,-0.196 -0.362,-0.367 -0.591,-0.511 v 0 c -0.206,-0.145 -0.429,-0.265 -0.666,-0.358 v 0 c -0.238,-0.092 -0.502,-0.181 -0.792,-0.263 v 0 c -0.29,-0.083 -0.672,-0.125 -1.147,-0.125 v 0 c -0.476,0 -0.86,0.042 -1.15,0.125 v 0 c -0.144,0 -0.248,0.01 -0.309,0.03 v 0 c -0.145,0.043 -0.29,0.083 -0.434,0.124 v 0 c -0.146,0.042 -0.28,0.094 -0.403,0.156 v 0 c -1.098,0.476 -1.883,1.273 -2.359,2.39 v 0 c -0.083,0.165 -0.145,0.335 -0.186,0.512 v 0 c -0.042,0.175 -0.083,0.346 -0.125,0.512 v 0 c -0.02,0.083 -0.031,0.165 -0.031,0.247 v 0 c 0,0.083 -0.011,0.177 -0.032,0.28 v 0 c -0.041,0.103 -0.041,0.213 0,0.326 v 0 c 0.043,0.113 0.083,0.202 0.125,0.265 v 0 c 0.083,0.123 0.166,0.206 0.249,0.248 v 0 c 0.103,0.061 0.237,0.096 0.402,0.107 v 0 c 0.167,0.011 0.331,0.016 0.498,0.016 v 0 h 7.944 c 0.186,0 0.403,-0.005 0.652,-0.016 v 0 c 0.247,-0.011 0.496,-0.014 0.744,-0.014 v 0 c 0.248,0 0.471,0.014 0.667,0.046 v 0 c 0.197,0.031 0.347,0.088 0.451,0.171 v 0 c 0.103,0.103 0.171,0.283 0.202,0.543 v 0 c 0.031,0.258 0.024,0.49 -0.016,0.697 v 0 c -0.021,0.146 -0.036,0.29 -0.047,0.435 v 0 c -0.01,0.145 -0.026,0.289 -0.047,0.435 v 0 c -0.083,0.289 -0.15,0.578 -0.201,0.868 v 0 c -0.052,0.289 -0.13,0.569 -0.232,0.838 v 0 c -0.105,0.27 -0.197,0.539 -0.28,0.808 v 0 c -0.083,0.268 -0.197,0.516 -0.341,0.744 v 0 c -0.229,0.393 -0.508,0.807 -0.84,1.241 v 0 c -0.122,0.166 -0.273,0.33 -0.448,0.497 v 0 c -0.177,0.165 -0.347,0.31 -0.513,0.434 v 0 c -0.082,0.041 -0.155,0.098 -0.216,0.171 v 0 c -0.062,0.073 -0.145,0.129 -0.249,0.172 v 0 c -0.518,0.329 -1.097,0.593 -1.737,0.79 v 0 c -0.582,0.178 -1.257,0.266 -2.025,0.266 v 0 c -0.08,0 -0.16,-0.001 -0.241,-0.002 m -0.249,-2.296 h 0.528 c 0.186,0 0.362,-0.021 0.528,-0.063 v 0 c 0.164,-0.042 0.32,-0.078 0.465,-0.108 v 0 c 0.145,-0.032 0.288,-0.068 0.435,-0.108 v 0 c 0.559,-0.229 1.013,-0.507 1.365,-0.839 v 0 c 0.351,-0.331 0.671,-0.735 0.962,-1.211 v 0 c 0.228,-0.392 0.403,-0.816 0.528,-1.271 v 0 c 0.041,-0.145 0.041,-0.285 0,-0.419 v 0 c -0.042,-0.135 -0.094,-0.244 -0.154,-0.327 v 0 c -0.146,-0.165 -0.436,-0.243 -0.871,-0.233 v 0 c -0.434,0.011 -0.806,0.017 -1.117,0.017 v 0 h -4.716 c -0.29,0 -0.637,-0.006 -1.041,-0.017 v 0 c -0.403,-0.01 -0.687,0.048 -0.852,0.171 v 0 c -0.124,0.083 -0.197,0.207 -0.218,0.373 v 0 c -0.021,0.166 -0.011,0.341 0.031,0.527 v 0 c 0.042,0.187 0.092,0.358 0.156,0.512 v 0 c 0.062,0.156 0.123,0.286 0.187,0.389 v 0 c 0.288,0.558 0.614,1.023 0.977,1.395 v 0 c 0.36,0.374 0.842,0.684 1.441,0.933 v 0 c 0.146,0.04 0.296,0.076 0.452,0.108 v 0 c 0.154,0.03 0.315,0.066 0.479,0.108 v 0 c 0.062,0.021 0.134,0.026 0.217,0.016 v 0 c 0.018,-0.002 0.034,-0.003 0.051,-0.003 v 0 c 0.061,0 0.117,0.016 0.167,0.05"
         id="path1246" />
    </clipPath>
    <clipPath
       clipPathUnits="userSpaceOnUse"
       id="clipPath1264">
      <path
         d="M 0,595.276 H 841.89 V 0 H 0 Z"
         id="path1262" />
    </clipPath>
    <clipPath
       clipPathUnits="userSpaceOnUse"
       id="clipPath1276">
      <path
         d="m 340.067,203.546 v -31.29 c 1.363,-0.436 2.357,-1.698 2.357,-3.205 v 0 c 0,-1.868 -1.513,-3.383 -3.381,-3.383 v 0 c -1.867,0 -3.381,1.515 -3.381,3.383 v 0 c 0,1.484 0.963,2.73 2.293,3.185 v 0 30.194 c -4.797,-2.709 -9.042,-6.249 -12.153,-10.869 v 0 c -0.106,-0.146 -0.181,-0.316 -0.391,-0.574 v 0 c -0.385,0.208 -0.341,0.194 -0.604,0.345 v 0 c -2.243,1.294 -4.534,2.326 -6.843,3.146 v 0 -21.786 c 1.364,-0.437 2.358,-1.698 2.358,-3.207 v 0 c 0,-1.866 -1.513,-3.381 -3.382,-3.381 v 0 c -1.866,0 -3.38,1.515 -3.38,3.381 v 0 c 0,1.484 0.962,2.732 2.292,3.186 v 0 22.501 c -13.429,4 -27.205,1.024 -35.818,-1.857 v 0 c 1.205,-3.481 4.514,-6.002 8.391,-6.002 v 0 h 18.692 V 168.62 c 0,-4.885 3.998,-8.882 8.884,-8.882 v 0 h 11.124 v 18.016 c -1.331,0.454 -2.293,1.701 -2.293,3.186 v 0 c 0,1.867 1.513,3.38 3.381,3.38 v 0 c 1.866,0 3.38,-1.513 3.38,-3.38 v 0 c 0,-1.509 -0.993,-2.771 -2.357,-3.206 v 0 -17.996 h 10.084 c 4.886,0 8.882,3.997 8.882,8.882 v 0 18.693 h 18.692 c 4.886,0 8.884,3.998 8.884,8.883 v 0 0.359 H 354.49 c -0.435,-1.363 -1.697,-2.358 -3.206,-2.358 v 0 c -1.868,0 -3.381,1.514 -3.381,3.383 v 0 c 0,1.866 1.513,3.379 3.381,3.379 v 0 c 1.484,0 2.732,-0.962 3.186,-2.292 v 0 h 21.308 v 12.352 c -9.26,-0.178 -23.838,-1.532 -35.711,-7.473"
         id="path1274" />
    </clipPath>
    <clipPath
       clipPathUnits="userSpaceOnUse"
       id="clipPath1288">
      <path
         d="M 0,595.276 H 841.89 V 0 H 0 Z"
         id="path1286" />
    </clipPath>
    <clipPath
       clipPathUnits="userSpaceOnUse"
       id="clipPath1308">
      <path
         d="m 546.386,209.273 c -0.495,-0.377 -1.05,-0.488 -1.654,-0.489 v 0 c -2.934,-0.005 -5.867,-0.014 -8.801,-0.025 v 0 c -0.119,0 -0.239,-10e-4 -0.358,-0.002 v 0 c -1.014,-2.267 -1.648,-4.748 -1.773,-7.378 v 0 c -0.538,-11.303 8.189,-20.904 19.494,-21.443 v 0 c 11.304,-0.538 20.903,8.189 21.441,19.493 v 0 c 0.453,9.496 -5.645,17.767 -14.305,20.496 v 0 c -4.683,-3.548 -9.365,-7.098 -14.044,-10.652"
         id="path1306" />
    </clipPath>
    <clipPath
       clipPathUnits="userSpaceOnUse"
       id="clipPath1320">
      <path
         d="M 0,595.276 H 841.89 V 0 H 0 Z"
         id="path1318" />
    </clipPath>
    <clipPath
       clipPathUnits="userSpaceOnUse"
       id="clipPath1332">
      <path
         d="m 581.3,164.962 v -33.531 c 1.462,-0.467 2.526,-1.82 2.526,-3.436 v 0 c 0,-2.001 -1.621,-3.624 -3.622,-3.624 v 0 c -2.002,0 -3.623,1.623 -3.623,3.624 v 0 c 0,1.591 1.031,2.927 2.456,3.414 v 0 32.358 c -5.14,-2.903 -9.69,-6.697 -13.023,-11.648 v 0 c -0.114,-0.157 -0.194,-0.339 -0.42,-0.616 v 0 c -0.412,0.224 -0.364,0.208 -0.647,0.37 v 0 c -2.404,1.387 -4.859,2.493 -7.333,3.372 v 0 -23.347 c 1.462,-0.467 2.527,-1.82 2.527,-3.436 v 0 c 0,-2.001 -1.622,-3.624 -3.623,-3.624 v 0 c -2.001,0 -3.624,1.623 -3.624,3.624 v 0 c 0,1.59 1.032,2.927 2.457,3.414 v 0 24.113 c -14.392,4.287 -29.154,1.097 -38.385,-1.991 v 0 c 1.292,-3.73 4.838,-6.431 8.992,-6.431 v 0 h 20.032 v -20.032 c 0,-5.236 4.283,-9.52 9.52,-9.52 v 0 h 11.921 v 19.307 c -1.426,0.487 -2.457,1.824 -2.457,3.415 v 0 c 0,2 1.622,3.622 3.623,3.622 v 0 c 2.001,0 3.623,-1.622 3.623,-3.622 v 0 c 0,-1.617 -1.065,-2.969 -2.526,-3.437 v 0 -19.285 H 580.5 c 5.236,0 9.518,4.284 9.518,9.52 v 0 20.032 h 20.032 c 5.236,0 9.52,4.284 9.52,9.519 v 0 0.385 h -22.812 c -0.468,-1.461 -1.82,-2.527 -3.437,-2.527 v 0 c -2.001,0 -3.623,1.623 -3.623,3.624 v 0 c 0,2.001 1.622,3.623 3.623,3.623 v 0 c 1.592,0 2.928,-1.032 3.415,-2.457 v 0 h 22.834 v 13.237 c -9.923,-0.191 -25.545,-1.642 -38.27,-8.009"
         id="path1330" />
    </clipPath>
    <clipPath
       clipPathUnits="userSpaceOnUse"
       id="clipPath1288-2">
      <path
         d="M 0,595.276 H 841.89 V 0 H 0 Z"
         id="path1286-6" />
    </clipPath>
    <clipPath
       clipPathUnits="userSpaceOnUse"
       id="clipPath1308-1">
      <path
         d="m 546.386,209.273 c -0.495,-0.377 -1.05,-0.488 -1.654,-0.489 v 0 c -2.934,-0.005 -5.867,-0.014 -8.801,-0.025 v 0 c -0.119,0 -0.239,-10e-4 -0.358,-0.002 v 0 c -1.014,-2.267 -1.648,-4.748 -1.773,-7.378 v 0 c -0.538,-11.303 8.189,-20.904 19.494,-21.443 v 0 c 11.304,-0.538 20.903,8.189 21.441,19.493 v 0 c 0.453,9.496 -5.645,17.767 -14.305,20.496 v 0 c -4.683,-3.548 -9.365,-7.098 -14.044,-10.652"
         id="path1306-8" />
    </clipPath>
    <clipPath
       clipPathUnits="userSpaceOnUse"
       id="clipPath1320-7">
      <path
         d="M 0,595.276 H 841.89 V 0 H 0 Z"
         id="path1318-9" />
    </clipPath>
    <clipPath
       clipPathUnits="userSpaceOnUse"
       id="clipPath1332-2">
      <path
         d="m 581.3,164.962 v -33.531 c 1.462,-0.467 2.526,-1.82 2.526,-3.436 v 0 c 0,-2.001 -1.621,-3.624 -3.622,-3.624 v 0 c -2.002,0 -3.623,1.623 -3.623,3.624 v 0 c 0,1.591 1.031,2.927 2.456,3.414 v 0 32.358 c -5.14,-2.903 -9.69,-6.697 -13.023,-11.648 v 0 c -0.114,-0.157 -0.194,-0.339 -0.42,-0.616 v 0 c -0.412,0.224 -0.364,0.208 -0.647,0.37 v 0 c -2.404,1.387 -4.859,2.493 -7.333,3.372 v 0 -23.347 c 1.462,-0.467 2.527,-1.82 2.527,-3.436 v 0 c 0,-2.001 -1.622,-3.624 -3.623,-3.624 v 0 c -2.001,0 -3.624,1.623 -3.624,3.624 v 0 c 0,1.59 1.032,2.927 2.457,3.414 v 0 24.113 c -14.392,4.287 -29.154,1.097 -38.385,-1.991 v 0 c 1.292,-3.73 4.838,-6.431 8.992,-6.431 v 0 h 20.032 v -20.032 c 0,-5.236 4.283,-9.52 9.52,-9.52 v 0 h 11.921 v 19.307 c -1.426,0.487 -2.457,1.824 -2.457,3.415 v 0 c 0,2 1.622,3.622 3.623,3.622 v 0 c 2.001,0 3.623,-1.622 3.623,-3.622 v 0 c 0,-1.617 -1.065,-2.969 -2.526,-3.437 v 0 -19.285 H 580.5 c 5.236,0 9.518,4.284 9.518,9.52 v 0 20.032 h 20.032 c 5.236,0 9.52,4.284 9.52,9.519 v 0 0.385 h -22.812 c -0.468,-1.461 -1.82,-2.527 -3.437,-2.527 v 0 c -2.001,0 -3.623,1.623 -3.623,3.624 v 0 c 0,2.001 1.622,3.623 3.623,3.623 v 0 c 1.592,0 2.928,-1.032 3.415,-2.457 v 0 h 22.834 v 13.237 c -9.923,-0.191 -25.545,-1.642 -38.27,-8.009"
         id="path1330-0" />
    </clipPath>
  </defs>
  <g
     inkscape:label="Camada 1"
     inkscape:groupmode="layer"
     id="layer1">
    <g
       id="g1282"
       transform="matrix(6.6666602,0,0,-6.6666718,-3270.565,1644.3683)">
      <g
         id="g1284"
         clip-path="url(#clipPath1288-2)">
        <g
           id="g1290"
           transform="translate(610.0502,191.5958)">
          <path
             d="m 0,0 h -20.031 v 20.031 c 0,5.237 -4.284,9.52 -9.52,9.52 h -15.017 c 7.402,-4.101 12.417,-11.985 12.417,-21.046 0,-13.283 -10.769,-24.053 -24.053,-24.053 -10.286,0 -19.038,6.468 -22.476,15.548 h -5.411 c -5.237,0 -9.52,-4.284 -9.52,-9.52 v -13.599 c 11.168,1.638 31.498,1.815 48.177,-13.532 8.389,21.468 33.061,32.026 47.288,36.465 C 1.254,-0.066 0.635,0 0,0"
             style="fill:#459fd8;fill-opacity:1;fill-rule:nonzero;stroke:none"
             id="path1292" />
        </g>
        <g
           id="g1294"
           transform="translate(525.205,188.9105)">
          <path
             d="m 0,0 c 0.254,0.627 0.402,1.087 0.619,1.513 1.222,2.405 1.528,4.964 1.31,7.614 -0.021,0.241 -0.054,0.481 -0.085,0.72 -0.083,0.646 -0.29,1.083 -1.039,1.32 -1.468,0.463 -1.997,2.439 -1.064,3.713 0.255,0.348 0.29,0.651 0.195,1.051 -0.386,1.64 -0.607,3.299 -0.36,4.984 0.079,0.54 0.239,1.07 0.384,1.695 -0.591,0.011 -1.154,0.038 -1.716,0.03 -1.036,-0.013 -2.071,-0.055 -3.106,-0.067 -0.343,-0.005 -0.688,0.033 -1.032,0.069 -0.433,0.045 -0.824,0.273 -0.878,0.683 -0.041,0.308 0.099,0.764 0.326,0.963 0.828,0.727 1.719,1.382 2.598,2.048 5.472,4.146 10.966,8.264 16.404,12.456 1.02,0.786 2.021,1.167 3.303,1.165 7.317,-0.009 14.634,0.042 21.951,0.074 0.57,0.002 1.14,0.046 1.708,0.025 0.551,-0.02 1.101,-0.134 1.298,-0.75 0.192,-0.602 -0.2,-0.986 -0.622,-1.307 C 38.67,36.84 37.131,35.699 35.605,34.542 30.612,30.76 25.622,26.976 20.634,23.187 20.138,22.811 19.583,22.699 18.979,22.698 16.046,22.693 13.111,22.685 10.178,22.673 8.781,22.668 7.384,22.655 5.876,22.645 c 0.235,0.236 0.395,0.425 0.582,0.581 3.321,2.753 6.646,5.501 9.968,8.254 0.304,0.252 0.618,0.506 0.867,0.809 0.41,0.494 0.382,1.085 -0.012,1.574 -0.311,0.384 -0.813,0.498 -1.363,0.15 -0.842,-0.532 -1.666,-1.109 -2.43,-1.747 C 10.507,29.774 7.538,27.268 4.6,24.727 3.929,24.146 3.328,23.45 2.817,22.721 1.791,21.254 1.782,19.577 2.015,17.879 2.048,17.639 2.105,17.402 2.122,17.162 2.174,16.462 2.414,15.985 3.135,15.651 4.295,15.116 4.732,13.755 4.239,12.55 4.045,12.076 4.075,11.711 4.303,11.243 5.198,9.409 6.106,7.574 6.498,5.545 6.846,3.741 6.64,2.031 5.585,0.482 5.079,-0.26 4.386,-0.655 3.463,-0.523 2.357,-0.365 1.252,-0.19 0,0"
             style="fill:#e9521e;fill-opacity:1;fill-rule:nonzero;stroke:none"
             id="path1296" />
        </g>
        <g
           id="g1298"
           transform="translate(546.3868,209.273)">
          <path
             d="m 0,0 c -0.496,-0.376 -1.051,-0.488 -1.655,-0.489 -2.933,-0.005 -5.867,-0.013 -8.801,-0.025 -0.118,-0.001 -0.239,-0.002 -0.358,-0.003 -1.014,-2.267 -1.648,-4.747 -1.773,-7.378 -0.538,-11.303 8.19,-20.903 19.494,-21.442 11.304,-0.538 20.904,8.189 21.442,19.493 C 28.801,-0.348 22.703,7.923 14.043,10.652 9.36,7.104 4.679,3.554 0,0"
             style="fill:#e9521e;fill-opacity:1;fill-rule:nonzero;stroke:none"
             id="path1300" />
        </g>
      </g>
    </g>
    <g
       id="g1302"
       transform="matrix(6.6666602,0,0,-6.6666718,-3270.565,1644.3683)">
      <g
         id="g1304"
         clip-path="url(#clipPath1308-1)">
        <g
           id="g1310"
           transform="translate(587.8027,183.8031)">
          <path
             d="M 0,0 -17.172,49.172 -67.155,31.716 -49.983,-17.455 Z"
             style="fill:#e9521e;fill-opacity:1;fill-rule:nonzero;stroke:none"
             id="path1312" />
        </g>
      </g>
    </g>
    <g
       id="g1314"
       transform="matrix(6.6666602,0,0,-6.6666718,-3270.565,1644.3683)">
      <g
         id="g1316"
         clip-path="url(#clipPath1320-7)">
        <g
           id="g1322"
           transform="translate(581.3003,164.962)">
          <path
             d="m 0,0 v -33.531 c 1.461,-0.467 2.526,-1.82 2.526,-3.436 0,-2.001 -1.621,-3.624 -3.622,-3.624 -2.002,0 -3.624,1.623 -3.624,3.624 0,1.591 1.032,2.927 2.457,3.414 v 32.357 c -5.141,-2.902 -9.69,-6.696 -13.024,-11.647 -0.114,-0.156 -0.193,-0.339 -0.419,-0.615 -0.413,0.222 -0.365,0.207 -0.647,0.369 -2.404,1.387 -4.859,2.493 -7.334,3.372 v -23.348 c 1.462,-0.466 2.527,-1.819 2.527,-3.436 0,-2 -1.621,-3.623 -3.623,-3.623 -2.001,0 -3.623,1.623 -3.623,3.623 0,1.591 1.031,2.928 2.457,3.415 v 24.113 c -14.392,4.286 -29.155,1.097 -38.385,-1.991 1.291,-3.73 4.837,-6.431 8.992,-6.431 h 20.032 v -20.032 c 0,-5.236 4.283,-9.519 9.52,-9.519 h 11.921 v 19.306 c -1.427,0.487 -2.457,1.824 -2.457,3.415 0,2 1.621,3.622 3.623,3.622 2.001,0 3.622,-1.622 3.622,-3.622 0,-1.617 -1.064,-2.97 -2.526,-3.437 v -19.284 h 10.806 c 5.237,0 9.519,4.283 9.519,9.519 v 20.032 H 28.75 c 5.236,0 9.52,4.284 9.52,9.519 v 0.385 H 15.457 c -0.467,-1.461 -1.819,-2.527 -3.436,-2.527 -2.001,0 -3.623,1.623 -3.623,3.624 0,2.001 1.622,3.623 3.623,3.623 1.591,0 2.928,-1.032 3.415,-2.457 H 38.27 V 8.009 C 28.347,7.818 12.725,6.367 0,0"
             style="fill:#153a60;fill-opacity:1;fill-rule:nonzero;stroke:none"
             id="path1324" />
        </g>
      </g>
    </g>
    <g
       id="g1326"
       transform="matrix(6.6666602,0,0,-6.6666718,-3270.565,1644.3683)">
      <g
         id="g1328"
         clip-path="url(#clipPath1332-2)">
        <g
           id="g1334"
           transform="translate(491.7008,156.2962)">
          <path
             d="m 0,0 56.398,-85.452 96.736,63.846 -56.398,85.452 z"
             style="fill:#153a60;fill-opacity:1;fill-rule:nonzero;stroke:none"
             id="path1336" />
        </g>
      </g>
    </g>
  </g>
</svg>
