<?xml version="1.0" encoding="UTF-8" standalone="no"?>
<!-- Created with Inkscape (http://www.inkscape.org/) -->

<svg
   width="1024.0px"
   height="1024.0px"
   viewBox="0 0 1024.0 1024.0"
   version="1.1"
   id="SVGRoot"
   sodipodi:docname="pet_logo.svg"
   inkscape:version="1.2.2 (b0a8486541, 2022-12-01)"
   xmlns:inkscape="http://www.inkscape.org/namespaces/inkscape"
   xmlns:sodipodi="http://sodipodi.sourceforge.net/DTD/sodipodi-0.dtd"
   xmlns="http://www.w3.org/2000/svg"
   xmlns:svg="http://www.w3.org/2000/svg">
  <sodipodi:namedview
     id="namedview16937"
     pagecolor="#ffffff"
     bordercolor="#000000"
     borderopacity="0.25"
     inkscape:showpageshadow="2"
     inkscape:pageopacity="0.0"
     inkscape:pagecheckerboard="0"
     inkscape:deskcolor="#d1d1d1"
     inkscape:document-units="px"
     showgrid="true"
     inkscape:zoom="0.51936728"
     inkscape:cx="339.83658"
     inkscape:cy="601.69366"
     inkscape:window-width="1366"
     inkscape:window-height="734"
     inkscape:window-x="0"
     inkscape:window-y="0"
     inkscape:window-maximized="1"
     inkscape:current-layer="layer1">
    <inkscape:grid
       type="xygrid"
       id="grid16943" />
  </sodipodi:namedview>
  <defs
     id="defs16932">
    <clipPath
       clipPathUnits="userSpaceOnUse"
       id="clipPath984">
      <path
         d="M 0,595.276 H 841.89 V 0 H 0 Z"
         id="path982" />
    </clipPath>
    <clipPath
       clipPathUnits="userSpaceOnUse"
       id="clipPath1004">
      <path
         d="m 307.488,244.894 c -0.464,-0.351 -0.981,-0.456 -1.545,-0.457 v 0 c -2.737,-0.004 -5.474,-0.012 -8.212,-0.023 v 0 c -0.111,-10e-4 -0.223,-0.002 -0.335,-0.002 v 0 c -0.946,-2.116 -1.537,-4.43 -1.654,-6.885 v 0 c -0.502,-10.548 7.642,-19.506 18.191,-20.009 v 0 c 10.548,-0.502 19.505,7.641 20.007,18.19 v 0 c 0.423,8.861 -5.267,16.579 -13.348,19.125 v 0 c -4.371,-3.311 -8.738,-6.623 -13.104,-9.939"
         id="path1002" />
    </clipPath>
    <clipPath
       clipPathUnits="userSpaceOnUse"
       id="clipPath1016">
      <path
         d="M 0,595.276 H 841.89 V 0 H 0 Z"
         id="path1014" />
    </clipPath>
    <clipPath
       clipPathUnits="userSpaceOnUse"
       id="clipPath1032">
      <path
         d="m 269.351,148.744 c -0.219,-0.013 -0.436,-0.019 -0.653,-0.019 v 0 h -10.501 c -0.048,-0.024 -0.103,-0.031 -0.163,-0.017 v 0 c -0.063,0.012 -0.116,0.005 -0.164,-0.019 v 0 c -0.267,-0.097 -0.448,-0.219 -0.545,-0.364 v 0 c -0.121,-0.193 -0.175,-0.52 -0.164,-0.981 v 0 c 0.012,-0.46 0.019,-0.859 0.019,-1.198 v 0 -21.726 c 0,-0.267 0.011,-0.528 0.035,-0.782 v 0 c 0.025,-0.253 0.11,-0.441 0.255,-0.563 v 0 c 0.145,-0.121 0.333,-0.188 0.564,-0.199 v 0 c 0.229,-0.012 0.478,-0.02 0.744,-0.02 v 0 h 2.107 c 0.194,0 0.388,-0.011 0.583,-0.035 v 0 c 0.193,-0.024 0.373,-0.011 0.543,0.035 v 0 c 0.34,0.098 0.559,0.231 0.655,0.401 v 0 c 0.12,0.193 0.174,0.46 0.164,0.799 v 0 c -0.013,0.338 -0.019,0.654 -0.019,0.945 v 0 4.795 1.253 c 0,0.425 0.121,0.722 0.362,0.892 v 0 c 0.195,0.144 0.468,0.218 0.819,0.218 v 0 h 0.999 3.051 1.491 c 0.146,0.022 0.291,0.036 0.436,0.036 v 0 c 0.145,0 0.29,0.011 0.436,0.036 v 0 c 0.291,0.073 0.581,0.121 0.872,0.145 v 0 c 0.291,0.023 0.568,0.085 0.835,0.181 v 0 c 0.872,0.291 1.654,0.648 2.343,1.072 v 0 c 0.691,0.423 1.278,0.975 1.763,1.654 v 0 c 0.121,0.145 0.223,0.297 0.308,0.454 v 0 c 0.085,0.157 0.176,0.321 0.273,0.491 v 0 c 0.048,0.096 0.091,0.187 0.127,0.271 v 0 c 0.036,0.086 0.079,0.176 0.127,0.274 v 0 c 0.17,0.387 0.314,0.805 0.436,1.253 v 0 c 0.121,0.447 0.206,0.938 0.255,1.471 v 0 c 0.072,1.332 -0.017,2.471 -0.273,3.415 v 0 c -0.254,0.945 -0.66,1.805 -1.217,2.58 v 0 c -0.194,0.291 -0.436,0.582 -0.727,0.871 v 0 l -0.217,0.219 c -0.122,0.096 -0.224,0.187 -0.309,0.272 v 0 c -0.085,0.085 -0.189,0.164 -0.31,0.237 v 0 c -0.145,0.12 -0.291,0.217 -0.436,0.29 v 0 c -0.146,0.072 -0.279,0.157 -0.398,0.255 v 0 c -0.341,0.193 -0.704,0.345 -1.09,0.454 v 0 c -0.388,0.109 -0.776,0.224 -1.164,0.344 v 0 c -0.121,0.049 -0.23,0.073 -0.326,0.073 v 0 c -0.097,0 -0.208,0.013 -0.328,0.037 v 0 c -0.12,0.048 -0.253,0.072 -0.399,0.072 v 0 c -0.145,0 -0.278,0.024 -0.4,0.073 v 0 h -0.181 c -0.156,0.039 -0.32,0.058 -0.491,0.058 v 0 c -0.042,0 -0.085,0 -0.127,-0.003 m -5.268,-12.245 c -0.244,0.013 -0.461,0.055 -0.654,0.128 v 0 c -0.194,0.073 -0.34,0.182 -0.436,0.326 v 0 c -0.122,0.194 -0.182,0.467 -0.182,0.819 v 0 0.962 3.452 0.89 c 0,0.326 0.048,0.586 0.146,0.781 v 0 c 0.072,0.193 0.229,0.339 0.472,0.435 v 0 c 0.073,0 0.139,0.007 0.2,0.019 v 0 c 0.059,0.012 0.126,0.03 0.2,0.054 v 0 c 0.581,0 1.198,0.007 1.852,0.019 v 0 c 0.653,0.012 1.29,0.006 1.907,-0.019 v 0 c 0.617,-0.024 1.192,-0.091 1.727,-0.199 v 0 c 0.532,-0.109 0.98,-0.273 1.344,-0.49 v 0 c 0.435,-0.267 0.763,-0.559 0.981,-0.872 v 0 c 0.218,-0.315 0.399,-0.739 0.545,-1.273 v 0 c 0.073,-0.266 0.114,-0.598 0.127,-0.999 v 0 c 0.012,-0.398 -0.006,-0.731 -0.054,-0.999 v 0 c -0.097,-0.315 -0.195,-0.599 -0.292,-0.853 v 0 c -0.096,-0.255 -0.218,-0.49 -0.363,-0.709 v 0 c -0.557,-0.727 -1.369,-1.151 -2.434,-1.271 v 0 c -1.067,-0.122 -2.241,-0.182 -3.524,-0.182 v 0 c -0.242,0 -0.503,-0.006 -0.78,-0.019 v 0 c -0.141,-0.005 -0.275,-0.009 -0.405,-0.009 v 0 c -0.131,0 -0.257,0.004 -0.377,0.009"
         id="path1030" />
    </clipPath>
    <clipPath
       clipPathUnits="userSpaceOnUse"
       id="clipPath1044">
      <path
         d="M 0,595.276 H 841.89 V 0 H 0 Z"
         id="path1042" />
    </clipPath>
    <clipPath
       clipPathUnits="userSpaceOnUse"
       id="clipPath1056">
      <path
         d="m 295.981,148.725 h -13.587 c -0.049,-0.024 -0.097,-0.031 -0.146,-0.017 v 0 c -0.049,0.012 -0.096,0.005 -0.146,-0.019 v 0 c -0.266,-0.073 -0.447,-0.194 -0.544,-0.364 v 0 c -0.097,-0.121 -0.145,-0.29 -0.145,-0.508 v 0 -0.654 -2.252 -7.921 -9.882 -2.616 -0.672 c 0,-0.23 0.048,-0.418 0.145,-0.563 v 0 c 0.121,-0.194 0.308,-0.309 0.563,-0.346 v 0 c 0.255,-0.035 0.551,-0.055 0.89,-0.055 v 0 h 2.87 10.754 2.725 0.745 c 0.231,0 0.418,0.061 0.564,0.183 v 0 c 0.194,0.121 0.302,0.309 0.327,0.563 v 0 c 0.024,0.254 0.037,0.527 0.037,0.818 v 0 1.671 c 0,0.193 -0.007,0.374 -0.019,0.545 v 0 c -0.012,0.169 -0.043,0.314 -0.091,0.436 v 0 c -0.073,0.192 -0.207,0.327 -0.4,0.399 v 0 c -0.144,0.073 -0.308,0.109 -0.49,0.109 v 0 h -0.563 -1.926 -6.83 -1.526 c -0.122,0 -0.255,-0.005 -0.4,-0.018 v 0 c -0.145,-0.012 -0.279,-0.007 -0.399,0.018 v 0 h -0.363 c -0.122,0.048 -0.237,0.079 -0.346,0.091 v 0 c -0.109,0.012 -0.199,0.054 -0.272,0.127 v 0 c -0.17,0.121 -0.274,0.297 -0.309,0.527 v 0 c -0.037,0.23 -0.055,0.49 -0.055,0.781 v 0 2.035 1.38 0.382 c 0,0.132 0.013,0.26 0.037,0.382 v 0 c 0.073,0.216 0.187,0.381 0.344,0.49 v 0 c 0.157,0.109 0.352,0.182 0.581,0.218 v 0 c 0.231,0.037 0.479,0.048 0.745,0.037 v 0 c 0.267,-0.014 0.545,-0.019 0.837,-0.019 v 0 h 7.084 c 0.17,0 0.382,-0.006 0.637,-0.018 v 0 c 0.253,-0.014 0.507,-0.018 0.762,-0.018 v 0 c 0.255,0 0.483,0.012 0.69,0.036 v 0 c 0.205,0.024 0.369,0.072 0.492,0.146 v 0 c 0.144,0.12 0.241,0.278 0.289,0.471 v 0 c 0.048,0.121 0.073,0.267 0.073,0.437 v 0 0.508 c 0,0.194 0.006,0.424 0.018,0.691 v 0 c 0.012,0.266 0.012,0.526 0,0.781 v 0 c -0.012,0.254 -0.043,0.489 -0.091,0.708 v 0 c -0.048,0.218 -0.133,0.364 -0.254,0.437 v 0 c -0.097,0.072 -0.25,0.12 -0.454,0.145 v 0 c -0.206,0.024 -0.43,0.042 -0.672,0.054 v 0 c -0.242,0.012 -0.491,0.012 -0.745,0 v 0 c -0.254,-0.012 -0.466,-0.019 -0.637,-0.019 v 0 h -6.247 -1.963 c -0.218,0 -0.423,0.007 -0.617,0.019 v 0 c -0.195,0.012 -0.364,0.067 -0.508,0.164 v 0 c -0.123,0.072 -0.207,0.175 -0.256,0.308 v 0 c -0.048,0.133 -0.096,0.297 -0.145,0.491 v 0 1.052 2.072 c 0,0.291 0.018,0.551 0.055,0.781 v 0 c 0.035,0.231 0.139,0.405 0.309,0.527 v 0 c 0.096,0.073 0.255,0.128 0.471,0.164 v 0 c 0.219,0.036 0.455,0.06 0.709,0.073 v 0 c 0.254,0.011 0.509,0.011 0.763,0 v 0 c 0.256,-0.013 0.479,-0.019 0.673,-0.019 v 0 h 6.575 2.507 0.691 c 0.217,0 0.4,0.048 0.545,0.146 v 0 c 0.169,0.096 0.291,0.289 0.363,0.58 v 0 c 0,0.243 0.011,0.425 0.036,0.545 v 0 c 0.025,0.171 0.031,0.346 0.019,0.528 v 0 c -0.012,0.182 -0.019,0.369 -0.019,0.562 v 0 c 0,0.17 0.007,0.351 0.019,0.547 v 0 c 0.012,0.192 0.006,0.375 -0.019,0.543 v 0 0.401 c -0.048,0.096 -0.078,0.192 -0.091,0.29 v 0 c -0.012,0.097 -0.042,0.181 -0.091,0.254 v 0 c -0.12,0.169 -0.314,0.267 -0.581,0.291 v 0 c -0.266,0.024 -0.545,0.036 -0.835,0.036 v 0 z"
         id="path1054" />
    </clipPath>
    <clipPath
       clipPathUnits="userSpaceOnUse"
       id="clipPath1068">
      <path
         d="M 0,595.276 H 841.89 V 0 H 0 Z"
         id="path1066" />
    </clipPath>
    <clipPath
       clipPathUnits="userSpaceOnUse"
       id="clipPath1080">
      <path
         d="m 318.472,148.725 h -14.533 -0.182 c -0.193,-0.048 -0.327,-0.097 -0.399,-0.144 v 0 c -0.196,-0.122 -0.309,-0.304 -0.346,-0.546 v 0 c -0.037,-0.242 -0.054,-0.521 -0.054,-0.836 v 0 -1.78 c 0,-0.193 0.005,-0.388 0.017,-0.58 v 0 c 0.013,-0.195 0.055,-0.352 0.127,-0.474 v 0 c 0.096,-0.145 0.243,-0.253 0.437,-0.326 v 0 c 0.194,-0.049 0.455,-0.068 0.782,-0.055 v 0 c 0.326,0.012 0.622,0.018 0.89,0.018 v 0 h 3.377 c 0.51,0 0.952,-0.018 1.327,-0.054 v 0 c 0.375,-0.036 0.624,-0.26 0.744,-0.673 v 0 c 0.05,-0.096 0.061,-0.194 0.038,-0.29 v 0 c -0.025,-0.097 -0.025,-0.205 0,-0.327 v 0 c 0.048,-0.145 0.067,-0.309 0.053,-0.49 v 0 c -0.012,-0.183 -0.018,-0.358 -0.018,-0.527 v 0 -3.088 -10.101 -3.633 -0.927 c 0,-0.302 0.061,-0.551 0.182,-0.745 v 0 c 0.121,-0.145 0.297,-0.23 0.527,-0.253 v 0 c 0.23,-0.025 0.478,-0.038 0.746,-0.038 v 0 h 2.469 0.619 c 0.216,0 0.41,0.025 0.581,0.074 v 0 c 0.265,0.121 0.417,0.321 0.454,0.6 v 0 c 0.036,0.278 0.053,0.611 0.053,0.999 v 0 3.414 10.464 3.234 c 0,0.145 -0.006,0.309 -0.017,0.491 v 0 c -0.012,0.18 -0.006,0.344 0.017,0.489 v 0 c 0.05,0.122 0.06,0.231 0.037,0.328 v 0 c -0.023,0.096 -0.023,0.206 0,0.326 v 0 c 0.122,0.413 0.358,0.637 0.709,0.673 v 0 c 0.351,0.036 0.768,0.054 1.252,0.054 v 0 h 3.708 c 0.508,0 0.944,0.011 1.307,0.037 v 0 c 0.364,0.024 0.606,0.242 0.727,0.653 v 0 c 0.048,0.147 0.065,0.296 0.055,0.455 v 0 c -0.013,0.157 -0.019,0.32 -0.019,0.49 v 0 1.417 0.364 c 0,0.12 -0.012,0.23 -0.036,0.326 v 0 0.182 c -0.025,0.12 -0.054,0.236 -0.091,0.345 v 0 c -0.036,0.109 -0.09,0.188 -0.163,0.236 v 0 c -0.195,0.121 -0.443,0.187 -0.746,0.201 v 0 c -0.302,0.012 -0.611,0.017 -0.926,0.017 v 0 z"
         id="path1078" />
    </clipPath>
    <clipPath
       clipPathUnits="userSpaceOnUse"
       id="clipPath1092">
      <path
         d="M 0,595.276 H 841.89 V 0 H 0 Z"
         id="path1090" />
    </clipPath>
    <clipPath
       clipPathUnits="userSpaceOnUse"
       id="clipPath1104">
      <path
         d="m 322.3,136.456 c -0.601,0 -1.091,-0.488 -1.091,-1.09 v 0 -1.64 c 0,-0.602 0.49,-1.089 1.091,-1.089 v 0 h 4.823 c 0.601,0 1.09,0.487 1.09,1.089 v 0 1.64 c 0,0.602 -0.489,1.09 -1.09,1.09 v 0 z"
         id="path1102" />
    </clipPath>
    <clipPath
       clipPathUnits="userSpaceOnUse"
       id="clipPath1116">
      <path
         d="M 0,595.276 H 841.89 V 0 H 0 Z"
         id="path1114" />
    </clipPath>
    <clipPath
       clipPathUnits="userSpaceOnUse"
       id="clipPath1128">
      <path
         d="m 338.438,146.011 c -0.042,-0.041 -0.124,-0.052 -0.249,-0.031 v 0 c -0.125,0.021 -0.216,0.021 -0.279,0 v 0 c -0.165,-0.041 -0.347,-0.061 -0.543,-0.061 v 0 c -0.198,0 -0.377,-0.021 -0.542,-0.063 v 0 c -0.167,-0.042 -0.322,-0.078 -0.466,-0.108 v 0 c -0.145,-0.032 -0.301,-0.068 -0.466,-0.109 v 0 c -0.6,-0.166 -1.127,-0.362 -1.583,-0.59 v 0 c -0.042,-0.041 -0.093,-0.067 -0.154,-0.077 v 0 c -0.063,-0.011 -0.115,-0.036 -0.156,-0.077 v 0 c -0.559,-0.354 -1.066,-0.74 -1.52,-1.165 v 0 c -0.456,-0.424 -0.828,-0.946 -1.118,-1.567 v 0 c -0.083,-0.186 -0.15,-0.382 -0.202,-0.589 v 0 c -0.052,-0.207 -0.108,-0.424 -0.171,-0.652 v 0 c -0.06,-0.206 -0.112,-0.502 -0.154,-0.884 v 0 c -0.041,-0.383 -0.031,-0.699 0.031,-0.947 v 0 c 0,-0.062 0.004,-0.124 0.015,-0.186 v 0 c 0.01,-0.062 0.017,-0.135 0.017,-0.217 v 0 c 0.061,-0.228 0.113,-0.451 0.154,-0.668 v 0 c 0.042,-0.217 0.115,-0.419 0.218,-0.605 v 0 c 0.226,-0.538 0.537,-0.977 0.93,-1.319 v 0 c 0.392,-0.341 0.828,-0.656 1.304,-0.947 v 0 c 0.186,-0.123 0.383,-0.226 0.589,-0.309 v 0 c 0.207,-0.083 0.414,-0.166 0.622,-0.249 v 0 c 0.041,-0.02 0.071,-0.031 0.091,-0.031 v 0 c 0.022,0 0.052,-0.01 0.095,-0.03 v 0 c 0.29,-0.125 0.599,-0.224 0.93,-0.296 v 0 c 0.331,-0.072 0.662,-0.16 0.994,-0.264 v 0 c 0.579,-0.165 1.178,-0.31 1.799,-0.433 v 0 c 0.621,-0.125 1.227,-0.254 1.816,-0.389 v 0 c 0.589,-0.135 1.153,-0.294 1.691,-0.481 v 0 c 0.538,-0.186 1.024,-0.435 1.458,-0.745 v 0 c 0.289,-0.207 0.539,-0.428 0.744,-0.666 v 0 c 0.208,-0.238 0.372,-0.534 0.498,-0.885 v 0 c 0.041,-0.083 0.061,-0.161 0.061,-0.233 v 0 c 0,-0.073 0.021,-0.161 0.063,-0.264 v 0 c 0.041,-0.145 0.062,-0.332 0.062,-0.558 v 0 c 0,-0.228 -0.021,-0.424 -0.062,-0.59 v 0 c -0.042,-0.165 -0.083,-0.33 -0.124,-0.496 v 0 c -0.043,-0.166 -0.094,-0.332 -0.156,-0.498 v 0 c -0.228,-0.516 -0.553,-0.926 -0.977,-1.224 v 0 c -0.425,-0.301 -0.905,-0.565 -1.443,-0.792 v 0 c -0.167,-0.062 -0.341,-0.108 -0.528,-0.139 v 0 c -0.185,-0.031 -0.362,-0.067 -0.526,-0.11 v 0 c -0.083,-0.041 -0.151,-0.056 -0.203,-0.046 v 0 c -0.052,0.01 -0.109,0.005 -0.171,-0.016 v 0 c -0.103,-0.021 -0.208,-0.031 -0.311,-0.031 v 0 c -0.104,0 -0.206,-0.01 -0.309,-0.03 v 0 h -0.218 c -0.103,-0.042 -0.233,-0.062 -0.387,-0.062 v 0 c -0.155,0 -0.274,0.01 -0.357,0.03 v 0 c -0.103,0.042 -0.213,0.052 -0.326,0.032 v 0 c -0.114,-0.021 -0.212,-0.021 -0.295,0 v 0 c -0.062,0 -0.124,0.004 -0.186,0.016 v 0 c -0.062,0.009 -0.115,0.014 -0.155,0.014 v 0 c -0.167,0.021 -0.331,0.042 -0.497,0.063 v 0 c -0.165,0.02 -0.331,0.051 -0.496,0.092 v 0 c -0.476,0.144 -0.921,0.301 -1.334,0.466 v 0 c -0.414,0.166 -0.797,0.383 -1.15,0.652 v 0 c -0.703,0.518 -1.23,1.22 -1.581,2.111 v 0 c -0.062,0.144 -0.11,0.288 -0.14,0.434 v 0 c -0.031,0.144 -0.068,0.289 -0.108,0.433 v 0 c -0.043,0.125 -0.068,0.244 -0.08,0.357 v 0 c -0.009,0.114 -0.045,0.224 -0.107,0.327 v 0 c -0.041,0.083 -0.134,0.166 -0.28,0.248 v 0 c -0.082,0.042 -0.154,0.057 -0.217,0.047 v 0 c -0.062,-0.011 -0.144,-0.005 -0.248,0.016 v 0 c -0.062,0.019 -0.139,0.03 -0.232,0.03 v 0 h -0.265 c -0.227,0 -0.461,-0.011 -0.698,-0.03 v 0 c -0.238,-0.021 -0.408,-0.105 -0.511,-0.249 v 0 c -0.105,-0.104 -0.156,-0.275 -0.156,-0.512 v 0 c 0,-0.238 0.021,-0.451 0.062,-0.637 v 0 c 0.041,-0.104 0.066,-0.216 0.078,-0.341 v 0 c 0.01,-0.123 0.036,-0.248 0.078,-0.372 v 0 c 0.103,-0.331 0.211,-0.642 0.326,-0.931 v 0 c 0.113,-0.29 0.253,-0.57 0.418,-0.838 v 0 c 0.497,-0.827 1.091,-1.5 1.785,-2.017 v 0 c 0.693,-0.518 1.546,-0.941 2.56,-1.272 v 0 c 0.206,-0.083 0.409,-0.145 0.606,-0.187 v 0 c 0.195,-0.041 0.407,-0.082 0.635,-0.124 v 0 c 0.103,-0.02 0.197,-0.035 0.28,-0.045 v 0 c 0.083,-0.011 0.165,-0.027 0.248,-0.048 v 0 c 0.186,-0.041 0.382,-0.062 0.588,-0.062 v 0 c 0.208,0 0.414,-0.02 0.621,-0.062 v 0 h 0.342 c 0.104,-0.021 0.253,-0.031 0.45,-0.031 v 0 c 0.197,0 0.346,0.01 0.45,0.031 v 0 c 0.125,0 0.249,0.005 0.373,0.015 v 0 c 0.124,0.012 0.248,0.016 0.372,0.016 v 0 c 0.103,0.021 0.212,0.031 0.326,0.031 v 0 c 0.114,0 0.223,0.011 0.326,0.031 v 0 c 0.249,0.063 0.497,0.108 0.745,0.14 v 0 c 0.248,0.032 0.485,0.088 0.713,0.17 v 0 c 0.228,0.062 0.44,0.125 0.637,0.186 v 0 c 0.196,0.063 0.398,0.134 0.605,0.217 v 0 c 0.62,0.291 1.2,0.622 1.738,0.994 v 0 c 0.537,0.373 0.981,0.827 1.334,1.366 v 0 c 0.186,0.249 0.342,0.517 0.466,0.807 v 0 c 0.124,0.288 0.238,0.589 0.341,0.899 v 0 c 0.061,0.165 0.097,0.336 0.108,0.512 v 0 c 0.01,0.176 0.036,0.347 0.078,0.513 v 0 0.247 c 0,0.083 0.01,0.166 0.031,0.249 v 0 0.279 0.342 c -0.041,0.123 -0.062,0.252 -0.062,0.387 v 0 c 0,0.135 -0.021,0.254 -0.062,0.358 v 0 c -0.042,0.206 -0.083,0.403 -0.124,0.589 v 0 c -0.042,0.186 -0.104,0.372 -0.186,0.558 v 0 c -0.228,0.517 -0.523,0.967 -0.884,1.35 v 0 c -0.363,0.383 -0.772,0.718 -1.226,1.008 v 0 c -0.352,0.229 -0.726,0.425 -1.117,0.591 v 0 c -0.394,0.165 -0.797,0.32 -1.211,0.465 v 0 c -0.187,0.062 -0.373,0.119 -0.559,0.171 v 0 c -0.186,0.051 -0.372,0.098 -0.558,0.139 v 0 c -0.083,0.02 -0.155,0.036 -0.217,0.047 v 0 c -0.062,0.011 -0.135,0.025 -0.218,0.047 v 0 c -0.29,0.103 -0.595,0.18 -0.915,0.232 v 0 c -0.321,0.053 -0.627,0.119 -0.915,0.201 v 0 c -0.187,0.063 -0.372,0.104 -0.559,0.125 v 0 c -0.186,0.02 -0.373,0.051 -0.559,0.093 v 0 c -0.602,0.165 -1.179,0.321 -1.738,0.466 v 0 c -0.558,0.144 -1.065,0.361 -1.52,0.651 v 0 c -0.393,0.227 -0.698,0.466 -0.915,0.714 v 0 c -0.218,0.248 -0.4,0.611 -0.544,1.087 v 0 c -0.042,0.144 -0.067,0.32 -0.077,0.526 v 0 c -0.011,0.207 0.004,0.393 0.046,0.559 v 0 c 0.041,0.207 0.076,0.399 0.109,0.574 v 0 c 0.031,0.176 0.087,0.347 0.17,0.513 v 0 c 0.166,0.413 0.414,0.761 0.744,1.039 v 0 c 0.332,0.28 0.704,0.502 1.118,0.668 v 0 c 0.725,0.33 1.625,0.495 2.7,0.495 v 0 h 0.497 c 0.165,0 0.329,-0.02 0.497,-0.062 v 0 h 0.248 c 0.123,-0.041 0.248,-0.067 0.372,-0.077 v 0 c 0.124,-0.011 0.248,-0.036 0.372,-0.077 v 0 c 0.662,-0.166 1.232,-0.414 1.707,-0.746 v 0 c 0.641,-0.413 1.136,-1.034 1.49,-1.861 v 0 c 0.102,-0.208 0.181,-0.445 0.232,-0.714 v 0 c 0.053,-0.269 0.14,-0.496 0.264,-0.683 v 0 c 0.041,-0.041 0.082,-0.077 0.124,-0.109 v 0 c 0.042,-0.03 0.083,-0.057 0.124,-0.077 v 0 c 0.082,-0.041 0.161,-0.062 0.234,-0.062 v 0 c 0.071,0 0.159,-0.011 0.263,-0.031 v 0 c 0.082,-0.02 0.165,-0.03 0.247,-0.03 v 0 h 0.282 c 0.247,0 0.485,0.01 0.712,0.03 v 0 c 0.228,0.02 0.392,0.104 0.496,0.248 v 0 c 0.062,0.103 0.098,0.254 0.11,0.451 v 0 c 0.009,0.196 -0.006,0.376 -0.048,0.542 v 0 c -0.103,0.393 -0.207,0.771 -0.309,1.133 v 0 c -0.105,0.362 -0.249,0.687 -0.435,0.977 v 0 c -0.063,0.104 -0.12,0.212 -0.171,0.326 v 0 c -0.052,0.114 -0.119,0.223 -0.202,0.327 v 0 c -0.082,0.103 -0.165,0.206 -0.249,0.31 v 0 c -0.082,0.103 -0.164,0.206 -0.245,0.31 v 0 c -0.044,0.062 -0.094,0.119 -0.157,0.171 v 0 c -0.062,0.052 -0.114,0.097 -0.156,0.139 v 0 c -0.041,0.041 -0.083,0.078 -0.123,0.109 v 0 c -0.043,0.031 -0.084,0.067 -0.125,0.109 v 0 c -0.104,0.103 -0.212,0.185 -0.325,0.247 v 0 c -0.114,0.063 -0.233,0.135 -0.357,0.217 v 0 c -0.703,0.456 -1.511,0.797 -2.421,1.025 v 0 c -0.769,0.192 -1.635,0.288 -2.595,0.288 v 0 c -0.176,0 -0.356,-0.003 -0.539,-0.009"
         id="path1126" />
    </clipPath>
    <clipPath
       clipPathUnits="userSpaceOnUse"
       id="clipPath1140">
      <path
         d="M 0,595.276 H 841.89 V 0 H 0 Z"
         id="path1138" />
    </clipPath>
    <clipPath
       clipPathUnits="userSpaceOnUse"
       id="clipPath1152">
      <path
         d="m 357.151,139.836 c -0.042,-0.043 -0.155,-0.058 -0.342,-0.046 v 0 c -0.186,0.011 -0.321,0.003 -0.403,-0.016 v 0 c -0.227,-0.042 -0.451,-0.072 -0.668,-0.093 v 0 c -0.216,-0.022 -0.43,-0.052 -0.635,-0.094 v 0 c -0.89,-0.248 -1.634,-0.574 -2.235,-0.977 v 0 c -0.6,-0.403 -1.096,-0.968 -1.489,-1.691 v 0 c -0.104,-0.227 -0.192,-0.461 -0.264,-0.698 v 0 c -0.074,-0.238 -0.14,-0.492 -0.202,-0.76 v 0 c -0.042,-0.167 -0.042,-0.322 0,-0.466 v 0 c 0.041,-0.144 0.103,-0.249 0.186,-0.31 v 0 c 0.083,-0.062 0.222,-0.11 0.419,-0.14 v 0 c 0.197,-0.031 0.398,-0.046 0.605,-0.046 v 0 c 0.207,0 0.41,0.015 0.606,0.046 v 0 c 0.196,0.03 0.335,0.078 0.418,0.14 v 0 c 0.145,0.103 0.242,0.248 0.296,0.434 v 0 c 0.051,0.186 0.108,0.362 0.171,0.528 v 0 c 0.102,0.227 0.221,0.439 0.356,0.636 v 0 c 0.134,0.196 0.284,0.357 0.449,0.481 v 0 c 0.331,0.227 0.671,0.403 1.024,0.527 v 0 c 0.25,0.082 0.549,0.145 0.9,0.187 v 0 c 0.352,0.041 0.714,0.062 1.087,0.062 v 0 c 0.373,0 0.729,-0.021 1.07,-0.062 v 0 c 0.342,-0.042 0.637,-0.115 0.884,-0.218 v 0 c 0.436,-0.166 0.772,-0.393 1.009,-0.682 v 0 c 0.238,-0.29 0.42,-0.684 0.542,-1.18 v 0 c 0.084,-0.31 0.084,-0.595 0,-0.853 v 0 c -0.083,-0.26 -0.184,-0.471 -0.309,-0.637 v 0 c -0.269,-0.371 -0.631,-0.605 -1.086,-0.698 v 0 c -0.455,-0.093 -0.941,-0.201 -1.458,-0.325 v 0 c -0.166,-0.042 -0.321,-0.068 -0.465,-0.078 v 0 c -0.146,-0.011 -0.292,-0.036 -0.436,-0.078 v 0 c -0.165,-0.041 -0.315,-0.062 -0.449,-0.062 v 0 c -0.135,0 -0.274,-0.021 -0.419,-0.061 v 0 c -0.31,-0.062 -0.62,-0.114 -0.932,-0.156 v 0 c -0.309,-0.041 -0.61,-0.104 -0.899,-0.186 v 0 c -0.766,-0.229 -1.47,-0.486 -2.11,-0.776 v 0 c -0.641,-0.29 -1.149,-0.734 -1.521,-1.335 v 0 c -0.124,-0.186 -0.228,-0.393 -0.31,-0.62 v 0 c -0.084,-0.228 -0.167,-0.455 -0.248,-0.683 v 0 c -0.021,-0.124 -0.036,-0.244 -0.047,-0.357 v 0 c -0.01,-0.113 -0.026,-0.221 -0.047,-0.325 v 0 -0.652 c 0,-0.641 0.094,-1.189 0.28,-1.646 v 0 c 0.248,-0.62 0.562,-1.1 0.946,-1.441 v 0 c 0.382,-0.342 0.884,-0.647 1.505,-0.917 v 0 c 0.144,-0.061 0.299,-0.108 0.466,-0.139 v 0 c 0.165,-0.031 0.33,-0.067 0.497,-0.109 v 0 c 0.062,-0.02 0.117,-0.025 0.17,-0.014 v 0 c 0.05,0.01 0.118,0.004 0.201,-0.017 v 0 c 0.083,-0.041 0.177,-0.062 0.28,-0.062 v 0 c 0.104,0 0.206,-0.01 0.31,-0.031 v 0 h 0.28 c 0.206,-0.041 0.425,-0.041 0.651,0 v 0 h 0.232 c 0.073,0 0.162,0.012 0.265,0.031 v 0 c 0.227,0.042 0.46,0.073 0.698,0.093 v 0 c 0.237,0.022 0.459,0.062 0.667,0.124 v 0 c 0.352,0.104 0.684,0.223 0.993,0.357 v 0 c 0.311,0.135 0.6,0.285 0.869,0.45 v 0 c 0.187,0.125 0.377,0.27 0.575,0.435 v 0 c 0.195,0.165 0.408,0.279 0.634,0.341 v 0 c 0.084,0.021 0.151,0.01 0.204,-0.03 v 0 c 0.05,-0.043 0.097,-0.083 0.138,-0.125 v 0 c 0.124,-0.125 0.228,-0.285 0.311,-0.481 v 0 c 0.082,-0.197 0.175,-0.367 0.279,-0.512 v 0 c 0.166,-0.229 0.47,-0.419 0.916,-0.573 v 0 c 0.444,-0.155 0.894,-0.182 1.35,-0.079 v 0 c 0.125,0.042 0.243,0.062 0.357,0.062 v 0 c 0.113,0 0.222,0.021 0.326,0.063 v 0 c 0.206,0.104 0.372,0.263 0.495,0.481 v 0 c 0.125,0.217 0.156,0.491 0.095,0.823 v 0 c -0.021,0.102 -0.032,0.186 -0.032,0.247 v 0 c 0,0.062 -0.021,0.124 -0.063,0.186 v 0 c -0.083,0.165 -0.206,0.264 -0.372,0.296 v 0 c -0.164,0.031 -0.34,0.087 -0.527,0.17 v 0 c -0.167,0.062 -0.301,0.165 -0.403,0.309 v 0 c -0.105,0.167 -0.167,0.384 -0.187,0.653 v 0 c -0.02,0.269 -0.032,0.547 -0.032,0.838 v 0 6.858 c 0,0.6 -0.014,1.173 -0.045,1.722 v 0 c -0.031,0.548 -0.141,1.029 -0.327,1.443 v 0 c -0.434,0.994 -1.189,1.666 -2.266,2.017 v 0 c -1.014,0.332 -2.196,0.498 -3.542,0.498 v 0 c -0.08,0 -0.161,0 -0.242,-10e-4 m -1.134,-14.476 c -0.216,0.009 -0.398,0.035 -0.542,0.077 v 0 c -0.104,0.02 -0.207,0.03 -0.311,0.03 v 0 c -0.104,0 -0.207,0.011 -0.31,0.032 v 0 c -0.31,0.102 -0.6,0.233 -0.868,0.388 v 0 c -0.27,0.154 -0.487,0.346 -0.652,0.574 v 0 c -0.105,0.145 -0.192,0.305 -0.264,0.48 v 0 c -0.073,0.177 -0.109,0.368 -0.109,0.575 v 0 c -0.021,0.454 0.019,0.842 0.124,1.163 v 0 c 0.104,0.321 0.259,0.595 0.466,0.823 v 0 c 0.207,0.227 0.455,0.419 0.745,0.574 v 0 c 0.288,0.155 0.6,0.284 0.93,0.388 v 0 c 0.166,0.041 0.316,0.077 0.45,0.108 v 0 c 0.135,0.032 0.285,0.067 0.45,0.11 v 0 c 0.312,0.082 0.647,0.128 1.009,0.138 v 0 c 0.362,0.011 0.698,0.057 1.009,0.14 v 0 c 0.082,0 0.159,0.004 0.232,0.015 v 0 c 0.072,0.011 0.14,0.016 0.202,0.016 v 0 c 0.207,0.042 0.413,0.083 0.619,0.126 v 0 c 0.208,0.04 0.394,0.081 0.56,0.123 v 0 c 0.082,0.041 0.176,0.062 0.28,0.062 v 0 c 0.103,0 0.174,0.021 0.218,0.062 v 0 c 0.227,0 0.371,-0.021 0.434,-0.062 v 0 c 0.144,-0.104 0.227,-0.248 0.246,-0.434 v 0 c 0.022,-0.186 0.032,-0.393 0.032,-0.621 v 0 c 0,-0.414 -0.004,-0.812 -0.015,-1.195 v 0 c -0.011,-0.383 -0.078,-0.718 -0.201,-1.009 v 0 c -0.228,-0.6 -0.555,-1.076 -0.978,-1.426 v 0 c -0.425,-0.353 -0.937,-0.653 -1.537,-0.901 v 0 c -0.144,-0.062 -0.294,-0.104 -0.449,-0.125 v 0 c -0.156,-0.02 -0.316,-0.052 -0.482,-0.092 v 0 c -0.124,-0.042 -0.248,-0.057 -0.372,-0.046 v 0 c -0.124,0.01 -0.248,-0.006 -0.372,-0.048 v 0 c -0.115,-0.032 -0.252,-0.049 -0.412,-0.049 v 0 c -0.042,0 -0.086,0.001 -0.132,0.004"
         id="path1150" />
    </clipPath>
    <clipPath
       clipPathUnits="userSpaceOnUse"
       id="clipPath1164">
      <path
         d="M 0,595.276 H 841.89 V 0 H 0 Z"
         id="path1162" />
    </clipPath>
    <clipPath
       clipPathUnits="userSpaceOnUse"
       id="clipPath1176">
      <path
         d="m 376.282,146.058 c -0.217,-0.01 -0.4,-0.016 -0.543,-0.016 v 0 c -0.042,0 -0.089,-0.004 -0.141,-0.015 v 0 c -0.051,-0.01 -0.108,-0.016 -0.171,-0.016 v 0 c -0.143,-0.062 -0.289,-0.144 -0.434,-0.247 v 0 c -0.144,-0.104 -0.258,-0.234 -0.34,-0.389 v 0 c -0.084,-0.156 -0.167,-0.305 -0.249,-0.449 v 0 c -0.186,-0.292 -0.372,-0.591 -0.559,-0.901 v 0 c -0.187,-0.31 -0.362,-0.61 -0.529,-0.9 v 0 c -0.101,-0.124 -0.194,-0.254 -0.277,-0.388 v 0 c -0.083,-0.134 -0.146,-0.284 -0.186,-0.45 v 0 c -0.042,-0.124 -0.037,-0.232 0.015,-0.325 v 0 c 0.051,-0.093 0.109,-0.161 0.171,-0.202 v 0 c 0.186,-0.104 0.439,-0.13 0.761,-0.078 v 0 c 0.32,0.052 0.552,0.119 0.697,0.202 v 0 c 0.104,0.062 0.202,0.145 0.295,0.248 v 0 c 0.093,0.103 0.181,0.207 0.264,0.31 v 0 c 0.062,0.062 0.129,0.124 0.202,0.186 v 0 c 0.072,0.062 0.128,0.135 0.169,0.218 v 0 c 0.084,0.104 0.166,0.191 0.249,0.264 v 0 c 0.083,0.072 0.166,0.16 0.249,0.264 v 0 c 0.041,0.02 0.067,0.041 0.077,0.062 v 0 c 0.011,0.02 0.036,0.051 0.078,0.092 v 0 c 0.082,0.104 0.17,0.192 0.263,0.265 v 0 c 0.094,0.072 0.172,0.159 0.233,0.264 v 0 c 0.104,0.123 0.202,0.243 0.295,0.357 v 0 c 0.093,0.112 0.191,0.22 0.295,0.325 v 0 c 0.103,0.103 0.217,0.218 0.34,0.342 v 0 c 0.126,0.124 0.208,0.248 0.25,0.372 v 0 c 0.041,0.144 0.051,0.259 0.031,0.341 v 0 c -0.062,0.082 -0.177,0.145 -0.341,0.186 v 0 c -0.166,0.041 -0.348,0.068 -0.545,0.078 v 0 c -0.097,0.005 -0.198,0.008 -0.301,0.008 v 0 c -0.104,0 -0.209,-0.003 -0.318,-0.008"
         id="path1174" />
    </clipPath>
    <clipPath
       clipPathUnits="userSpaceOnUse"
       id="clipPath1188">
      <path
         d="M 0,595.276 H 841.89 V 0 H 0 Z"
         id="path1186" />
    </clipPath>
    <clipPath
       clipPathUnits="userSpaceOnUse"
       id="clipPath1200">
      <path
         d="m 379.214,139.432 c -0.165,-0.042 -0.307,-0.078 -0.418,-0.108 v 0 c -0.115,-0.031 -0.213,-0.099 -0.296,-0.202 v 0 c -0.103,-0.166 -0.15,-0.388 -0.139,-0.667 v 0 c 0.01,-0.28 0.015,-0.544 0.015,-0.792 v 0 -3.289 -2.421 c 0,-0.186 0.01,-0.387 0.032,-0.604 v 0 c 0.02,-0.218 0.01,-0.409 -0.032,-0.575 v 0 -0.651 c -0.042,-0.105 -0.057,-0.198 -0.046,-0.28 v 0 c 0.01,-0.083 0.004,-0.176 -0.016,-0.279 v 0 c -0.041,-0.185 -0.073,-0.363 -0.094,-0.527 v 0 c -0.02,-0.166 -0.062,-0.332 -0.124,-0.496 v 0 c -0.227,-0.726 -0.541,-1.309 -0.946,-1.754 v 0 c -0.403,-0.446 -0.946,-0.812 -1.629,-1.102 v 0 c -0.393,-0.166 -0.91,-0.274 -1.551,-0.325 v 0 c -0.642,-0.052 -1.19,0.014 -1.645,0.201 v 0 c -0.91,0.372 -1.531,1.024 -1.862,1.955 v 0 c -0.104,0.351 -0.155,0.77 -0.155,1.257 v 0 1.412 4.686 2.948 c 0,0.247 -0.006,0.497 -0.016,0.744 v 0 c -0.01,0.249 -0.067,0.455 -0.17,0.621 v 0 c -0.125,0.166 -0.342,0.248 -0.652,0.248 v 0 h -0.9 c -0.042,-0.02 -0.084,-0.026 -0.123,-0.016 v 0 c -0.043,0.011 -0.083,0.006 -0.126,-0.015 v 0 c -0.227,-0.062 -0.381,-0.166 -0.465,-0.31 v 0 c -0.084,-0.124 -0.124,-0.279 -0.124,-0.465 v 0 -0.56 -1.986 -5.709 -1.242 c 0,-0.103 -0.006,-0.212 -0.015,-0.326 v 0 c -0.011,-0.114 -0.007,-0.212 0.015,-0.294 v 0 -0.309 c 0.021,-0.063 0.03,-0.131 0.03,-0.203 v 0 c 0,-0.073 0.01,-0.13 0.032,-0.171 v 0 c 0.041,-0.146 0.058,-0.273 0.047,-0.387 v 0 c -0.011,-0.114 0.004,-0.234 0.047,-0.357 v 0 c 0.041,-0.207 0.082,-0.41 0.124,-0.606 v 0 c 0.041,-0.197 0.102,-0.387 0.185,-0.574 v 0 c 0.229,-0.538 0.523,-0.998 0.885,-1.382 v 0 c 0.362,-0.382 0.812,-0.687 1.35,-0.914 v 0 c 0.165,-0.083 0.326,-0.146 0.481,-0.186 v 0 c 0.155,-0.043 0.315,-0.083 0.48,-0.124 v 0 c 0.104,-0.042 0.193,-0.057 0.265,-0.046 v 0 c 0.071,0.01 0.149,-0.006 0.232,-0.047 v 0 c 0.103,-0.021 0.222,-0.032 0.357,-0.032 v 0 c 0.134,0 0.254,-0.019 0.357,-0.062 v 0 h 0.31 c 0.166,-0.041 0.352,-0.041 0.558,0 v 0 c 0.105,0.043 0.213,0.052 0.328,0.031 v 0 c 0.112,-0.02 0.221,-0.02 0.325,0 v 0 c 0.249,0.063 0.491,0.11 0.729,0.14 v 0 c 0.237,0.031 0.47,0.097 0.699,0.202 v 0 c 0.579,0.247 1.095,0.538 1.551,0.869 v 0 c 0.145,0.103 0.299,0.252 0.466,0.449 v 0 c 0.164,0.197 0.33,0.315 0.496,0.358 v 0 c 0.124,0.019 0.217,-0.011 0.279,-0.094 v 0 c 0.063,-0.083 0.104,-0.192 0.124,-0.326 v 0 c 0.021,-0.135 0.036,-0.273 0.047,-0.418 v 0 c 0.01,-0.144 0.027,-0.259 0.047,-0.341 v 0 c 0.082,-0.188 0.175,-0.322 0.278,-0.404 v 0 c 0.083,-0.063 0.213,-0.104 0.388,-0.124 v 0 c 0.177,-0.021 0.363,-0.027 0.558,-0.015 v 0 c 0.197,0.01 0.378,0.031 0.544,0.062 v 0 c 0.165,0.031 0.291,0.077 0.373,0.139 v 0 c 0.144,0.103 0.222,0.263 0.231,0.48 v 0 c 0.012,0.218 0.017,0.451 0.017,0.699 v 0 2.793 8.348 2.109 0.606 c 0,0.196 -0.051,0.346 -0.155,0.45 v 0 c -0.103,0.166 -0.254,0.259 -0.451,0.279 v 0 c -0.195,0.021 -0.418,0.031 -0.666,0.031 v 0 z"
         id="path1198" />
    </clipPath>
    <clipPath
       clipPathUnits="userSpaceOnUse"
       id="clipPath1212">
      <path
         d="M 0,595.276 H 841.89 V 0 H 0 Z"
         id="path1210" />
    </clipPath>
    <clipPath
       clipPathUnits="userSpaceOnUse"
       id="clipPath1224">
      <path
         d="m 397.524,145.515 c -0.042,0 -0.093,-0.006 -0.155,-0.016 v 0 c -0.062,-0.011 -0.115,-0.015 -0.156,-0.015 v 0 c -0.165,-0.041 -0.29,-0.135 -0.372,-0.279 v 0 c -0.104,-0.166 -0.155,-0.43 -0.155,-0.791 v 0 -0.978 -3.569 c 0,-0.228 0.005,-0.486 0.015,-0.776 v 0 c 0.011,-0.289 -0.015,-0.528 -0.077,-0.714 v 0 c -0.021,-0.083 -0.047,-0.145 -0.078,-0.187 v 0 c -0.031,-0.041 -0.068,-0.092 -0.109,-0.154 v 0 c -0.228,-0.042 -0.408,-0.005 -0.542,0.109 v 0 c -0.136,0.113 -0.264,0.221 -0.388,0.325 v 0 c -0.249,0.188 -0.512,0.352 -0.792,0.497 v 0 c -0.279,0.144 -0.574,0.279 -0.884,0.403 v 0 c -0.208,0.103 -0.425,0.17 -0.652,0.202 v 0 c -0.227,0.032 -0.456,0.078 -0.683,0.14 v 0 c -0.145,0 -0.26,0.009 -0.342,0.03 v 0 c -0.164,0.042 -0.408,0.063 -0.729,0.063 v 0 c -0.32,0 -0.563,-0.021 -0.729,-0.063 v 0 h -0.309 c -0.146,-0.04 -0.285,-0.072 -0.42,-0.092 v 0 c -0.135,-0.021 -0.274,-0.043 -0.419,-0.063 v 0 c -0.455,-0.123 -0.875,-0.269 -1.256,-0.434 v 0 c -0.384,-0.165 -0.752,-0.372 -1.102,-0.62 v 0 c -0.601,-0.415 -1.112,-0.937 -1.536,-1.567 v 0 c -0.425,-0.632 -0.771,-1.341 -1.04,-2.126 v 0 c -0.062,-0.187 -0.114,-0.378 -0.156,-0.574 v 0 c -0.041,-0.198 -0.092,-0.4 -0.154,-0.606 v 0 c -0.022,-0.104 -0.031,-0.196 -0.031,-0.278 v 0 c 0,-0.084 -0.012,-0.178 -0.032,-0.28 v 0 c -0.041,-0.145 -0.056,-0.295 -0.046,-0.451 v 0 c 0.011,-0.155 -0.006,-0.305 -0.047,-0.449 v 0 -0.341 c -0.041,-0.105 -0.061,-0.238 -0.061,-0.404 v 0 c 0,-0.166 0.02,-0.3 0.061,-0.403 v 0 -0.311 c 0.021,-0.104 0.027,-0.212 0.016,-0.326 v 0 c -0.01,-0.114 0.005,-0.222 0.046,-0.326 v 0 c 0.02,-0.103 0.031,-0.207 0.031,-0.31 v 0 c 0,-0.104 0.01,-0.207 0.032,-0.311 v 0 c 0.061,-0.206 0.108,-0.407 0.14,-0.604 v 0 c 0.031,-0.197 0.087,-0.388 0.17,-0.575 v 0 c 0.372,-1.158 0.89,-2.125 1.551,-2.9 v 0 c 0.663,-0.776 1.532,-1.393 2.607,-1.848 v 0 c 0.372,-0.166 0.807,-0.283 1.304,-0.355 v 0 c 0.497,-0.073 0.998,-0.104 1.504,-0.093 v 0 c 0.508,0.01 1.005,0.057 1.49,0.138 v 0 c 0.486,0.083 0.916,0.206 1.288,0.373 v 0 c 0.413,0.165 0.828,0.404 1.242,0.714 v 0 c 0.124,0.103 0.242,0.206 0.356,0.31 v 0 c 0.114,0.104 0.275,0.144 0.481,0.124 v 0 c 0.041,-0.042 0.078,-0.078 0.109,-0.109 v 0 c 0.031,-0.03 0.057,-0.067 0.077,-0.108 v 0 c 0.063,-0.145 0.099,-0.29 0.109,-0.434 v 0 c 0.011,-0.145 0.057,-0.27 0.14,-0.374 v 0 c 0.062,-0.123 0.186,-0.206 0.372,-0.247 v 0 c 0.083,-0.043 0.181,-0.058 0.294,-0.046 v 0 c 0.114,0.01 0.234,0.015 0.358,0.015 v 0 c 0.248,0 0.492,0.005 0.73,0.016 v 0 c 0.237,0.009 0.407,0.087 0.511,0.231 v 0 c 0.103,0.166 0.156,0.379 0.156,0.637 v 0 0.791 18.744 0.775 c 0,0.25 -0.053,0.457 -0.156,0.621 v 0 c -0.124,0.166 -0.347,0.253 -0.667,0.264 v 0 c -0.107,0.004 -0.212,0.005 -0.316,0.005 v 0 c -0.206,0 -0.406,-0.006 -0.599,-0.02 m -6.735,-20.078 c -0.228,0.062 -0.434,0.124 -0.62,0.186 v 0 c -0.186,0.062 -0.373,0.144 -0.558,0.247 v 0 c -0.6,0.332 -1.098,0.756 -1.491,1.273 v 0 c -0.393,0.518 -0.702,1.138 -0.93,1.863 v 0 c -0.042,0.144 -0.078,0.289 -0.109,0.434 v 0 c -0.031,0.145 -0.068,0.289 -0.108,0.434 v 0 c 0,0.144 -0.011,0.249 -0.031,0.311 v 0 c -0.043,0.186 -0.063,0.387 -0.063,0.605 v 0 0.667 c 0,0.103 -0.005,0.217 -0.017,0.341 v 0 c -0.009,0.124 0.007,0.237 0.049,0.342 v 0 c 0,0.083 0.003,0.16 0.015,0.233 v 0 c 0.01,0.072 0.016,0.15 0.016,0.233 v 0 c 0.041,0.227 0.076,0.459 0.108,0.697 v 0 c 0.031,0.238 0.088,0.47 0.17,0.698 v 0 c 0.249,0.724 0.574,1.361 0.978,1.909 v 0 c 0.404,0.548 0.937,0.967 1.598,1.257 v 0 c 0.166,0.061 0.337,0.114 0.512,0.155 v 0 c 0.177,0.041 0.347,0.083 0.512,0.124 v 0 c 0.104,0 0.197,0.006 0.28,0.016 v 0 c 0.082,0.01 0.175,0.026 0.279,0.046 v 0 h 0.574 c 0.197,0 0.378,-0.02 0.543,-0.062 v 0 c 0.247,-0.041 0.482,-0.088 0.699,-0.139 v 0 c 0.217,-0.052 0.428,-0.13 0.636,-0.233 v 0 c 0.599,-0.27 1.095,-0.641 1.49,-1.117 v 0 c 0.392,-0.476 0.713,-1.024 0.962,-1.646 v 0 c 0.061,-0.144 0.108,-0.289 0.139,-0.433 v 0 c 0.032,-0.145 0.067,-0.301 0.108,-0.466 v 0 c 0.062,-0.165 0.104,-0.347 0.125,-0.543 v 0 c 0.02,-0.196 0.051,-0.388 0.091,-0.574 v 0 -0.466 c 0.043,-0.104 0.064,-0.243 0.064,-0.418 v 0 c 0,-0.177 -0.021,-0.316 -0.064,-0.42 v 0 c -0.02,-0.123 -0.024,-0.248 -0.014,-0.371 v 0 c 0.01,-0.125 0.005,-0.249 -0.017,-0.373 v 0 c -0.019,-0.083 -0.029,-0.16 -0.029,-0.233 v 0 c 0,-0.073 -0.022,-0.151 -0.062,-0.233 v 0 c -0.062,-0.228 -0.115,-0.455 -0.155,-0.682 v 0 c -0.043,-0.228 -0.114,-0.456 -0.218,-0.683 v 0 c -0.29,-0.684 -0.646,-1.246 -1.071,-1.691 v 0 c -0.424,-0.446 -0.976,-0.812 -1.659,-1.102 v 0 c -0.145,-0.062 -0.3,-0.108 -0.466,-0.14 v 0 c -0.166,-0.03 -0.332,-0.067 -0.498,-0.109 v 0 c -0.144,0 -0.247,-0.01 -0.309,-0.03 v 0 h -0.279 -0.264 c -0.093,0 -0.182,0.01 -0.264,0.03 v 0 c -0.103,0.042 -0.212,0.052 -0.325,0.031 v 0 c -0.038,-0.006 -0.076,-0.01 -0.113,-0.01 v 0 c -0.074,0 -0.145,0.015 -0.214,0.042"
         id="path1222" />
    </clipPath>
    <clipPath
       clipPathUnits="userSpaceOnUse"
       id="clipPath1236">
      <path
         d="M 0,595.276 H 841.89 V 0 H 0 Z"
         id="path1234" />
    </clipPath>
    <clipPath
       clipPathUnits="userSpaceOnUse"
       id="clipPath1248">
      <path
         d="m 409.812,139.774 c -0.042,-0.042 -0.093,-0.053 -0.155,-0.032 v 0 c -0.063,0.022 -0.115,0.022 -0.156,0 v 0 c -0.104,0 -0.196,-0.004 -0.279,-0.014 v 0 c -0.083,-0.011 -0.176,-0.026 -0.28,-0.047 v 0 c -0.289,-0.062 -0.563,-0.119 -0.821,-0.171 v 0 c -0.26,-0.052 -0.513,-0.129 -0.76,-0.232 v 0 c -0.85,-0.352 -1.564,-0.791 -2.142,-1.319 v 0 c -0.579,-0.528 -1.097,-1.155 -1.551,-1.879 v 0 c -0.124,-0.227 -0.233,-0.46 -0.326,-0.698 v 0 c -0.094,-0.238 -0.192,-0.47 -0.297,-0.697 v 0 c -0.122,-0.29 -0.21,-0.601 -0.262,-0.932 v 0 c -0.051,-0.331 -0.119,-0.662 -0.201,-0.992 v 0 c -0.022,-0.104 -0.026,-0.213 -0.016,-0.326 v 0 c 0.01,-0.114 -0.006,-0.223 -0.046,-0.327 v 0 -0.341 c -0.022,-0.103 -0.027,-0.232 -0.016,-0.387 v 0 c 0.01,-0.155 0.025,-0.275 0.046,-0.357 v 0 -0.435 c 0.041,-0.186 0.072,-0.372 0.093,-0.559 v 0 c 0.021,-0.186 0.051,-0.362 0.093,-0.527 v 0 c 0.02,-0.104 0.032,-0.186 0.032,-0.249 v 0 c 0,-0.061 0.009,-0.135 0.031,-0.216 v 0 c 0.081,-0.249 0.149,-0.496 0.201,-0.746 v 0 c 0.052,-0.248 0.129,-0.486 0.232,-0.713 v 0 c 0.29,-0.703 0.647,-1.339 1.071,-1.908 v 0 c 0.425,-0.569 0.936,-1.051 1.538,-1.443 v 0 c 0.35,-0.207 0.681,-0.383 0.991,-0.529 v 0 c 0.082,-0.041 0.156,-0.067 0.217,-0.076 v 0 c 0.063,-0.011 0.133,-0.037 0.218,-0.079 v 0 c 0.165,-0.061 0.341,-0.119 0.527,-0.17 v 0 c 0.187,-0.051 0.373,-0.098 0.559,-0.14 v 0 c 0.104,-0.02 0.217,-0.035 0.342,-0.045 v 0 c 0.124,-0.011 0.237,-0.027 0.341,-0.048 v 0 c 0.082,-0.02 0.165,-0.031 0.249,-0.031 v 0 c 0.082,0 0.175,-0.01 0.278,-0.03 v 0 h 0.281 c 0.082,-0.021 0.19,-0.032 0.325,-0.032 v 0 c 0.134,0 0.253,0.011 0.357,0.032 v 0 h 0.31 c 0.103,0.02 0.201,0.03 0.295,0.03 v 0 c 0.092,0 0.191,0.011 0.293,0.031 v 0 c 0.229,0.042 0.447,0.078 0.654,0.11 v 0 c 0.206,0.03 0.413,0.087 0.621,0.17 v 0 c 0.805,0.268 1.473,0.614 2,1.038 v 0 c 0.528,0.425 0.998,0.968 1.413,1.631 v 0 c 0.268,0.435 0.485,0.931 0.65,1.489 v 0 c 0.104,0.33 0.052,0.569 -0.154,0.713 v 0 c -0.062,0.063 -0.175,0.105 -0.341,0.125 v 0 c -0.165,0.02 -0.342,0.036 -0.528,0.046 v 0 c -0.186,0.01 -0.372,0.006 -0.558,-0.015 v 0 c -0.186,-0.021 -0.322,-0.051 -0.403,-0.093 v 0 c -0.23,-0.104 -0.388,-0.269 -0.482,-0.496 v 0 c -0.093,-0.229 -0.202,-0.447 -0.325,-0.653 v 0 c -0.125,-0.227 -0.271,-0.439 -0.435,-0.636 v 0 c -0.167,-0.196 -0.362,-0.367 -0.591,-0.511 v 0 c -0.206,-0.145 -0.429,-0.265 -0.666,-0.358 v 0 c -0.238,-0.092 -0.502,-0.181 -0.792,-0.263 v 0 c -0.29,-0.083 -0.672,-0.125 -1.147,-0.125 v 0 c -0.476,0 -0.86,0.042 -1.15,0.125 v 0 c -0.144,0 -0.248,0.01 -0.309,0.03 v 0 c -0.145,0.043 -0.29,0.083 -0.434,0.124 v 0 c -0.146,0.042 -0.28,0.094 -0.403,0.156 v 0 c -1.098,0.476 -1.883,1.273 -2.359,2.39 v 0 c -0.083,0.165 -0.145,0.335 -0.186,0.512 v 0 c -0.042,0.175 -0.083,0.346 -0.125,0.512 v 0 c -0.02,0.083 -0.031,0.165 -0.031,0.247 v 0 c 0,0.083 -0.011,0.177 -0.032,0.28 v 0 c -0.041,0.103 -0.041,0.213 0,0.326 v 0 c 0.043,0.113 0.083,0.202 0.125,0.265 v 0 c 0.083,0.123 0.166,0.206 0.249,0.248 v 0 c 0.103,0.061 0.237,0.096 0.402,0.107 v 0 c 0.167,0.011 0.331,0.016 0.498,0.016 v 0 h 7.944 c 0.186,0 0.403,-0.005 0.652,-0.016 v 0 c 0.247,-0.011 0.496,-0.014 0.744,-0.014 v 0 c 0.248,0 0.471,0.014 0.667,0.046 v 0 c 0.197,0.031 0.347,0.088 0.451,0.171 v 0 c 0.103,0.103 0.171,0.283 0.202,0.543 v 0 c 0.031,0.258 0.024,0.49 -0.016,0.697 v 0 c -0.021,0.146 -0.036,0.29 -0.047,0.435 v 0 c -0.01,0.145 -0.026,0.289 -0.047,0.435 v 0 c -0.083,0.289 -0.15,0.578 -0.201,0.868 v 0 c -0.052,0.289 -0.13,0.569 -0.232,0.838 v 0 c -0.105,0.27 -0.197,0.539 -0.28,0.808 v 0 c -0.083,0.268 -0.197,0.516 -0.341,0.744 v 0 c -0.229,0.393 -0.508,0.807 -0.84,1.241 v 0 c -0.122,0.166 -0.273,0.33 -0.448,0.497 v 0 c -0.177,0.165 -0.347,0.31 -0.513,0.434 v 0 c -0.082,0.041 -0.155,0.098 -0.216,0.171 v 0 c -0.062,0.073 -0.145,0.129 -0.249,0.172 v 0 c -0.518,0.329 -1.097,0.593 -1.737,0.79 v 0 c -0.582,0.178 -1.257,0.266 -2.025,0.266 v 0 c -0.08,0 -0.16,-0.001 -0.241,-0.002 m -0.249,-2.296 h 0.528 c 0.186,0 0.362,-0.021 0.528,-0.063 v 0 c 0.164,-0.042 0.32,-0.078 0.465,-0.108 v 0 c 0.145,-0.032 0.288,-0.068 0.435,-0.108 v 0 c 0.559,-0.229 1.013,-0.507 1.365,-0.839 v 0 c 0.351,-0.331 0.671,-0.735 0.962,-1.211 v 0 c 0.228,-0.392 0.403,-0.816 0.528,-1.271 v 0 c 0.041,-0.145 0.041,-0.285 0,-0.419 v 0 c -0.042,-0.135 -0.094,-0.244 -0.154,-0.327 v 0 c -0.146,-0.165 -0.436,-0.243 -0.871,-0.233 v 0 c -0.434,0.011 -0.806,0.017 -1.117,0.017 v 0 h -4.716 c -0.29,0 -0.637,-0.006 -1.041,-0.017 v 0 c -0.403,-0.01 -0.687,0.048 -0.852,0.171 v 0 c -0.124,0.083 -0.197,0.207 -0.218,0.373 v 0 c -0.021,0.166 -0.011,0.341 0.031,0.527 v 0 c 0.042,0.187 0.092,0.358 0.156,0.512 v 0 c 0.062,0.156 0.123,0.286 0.187,0.389 v 0 c 0.288,0.558 0.614,1.023 0.977,1.395 v 0 c 0.36,0.374 0.842,0.684 1.441,0.933 v 0 c 0.146,0.04 0.296,0.076 0.452,0.108 v 0 c 0.154,0.03 0.315,0.066 0.479,0.108 v 0 c 0.062,0.021 0.134,0.026 0.217,0.016 v 0 c 0.018,-0.002 0.034,-0.003 0.051,-0.003 v 0 c 0.061,0 0.117,0.016 0.167,0.05"
         id="path1246" />
    </clipPath>
    <clipPath
       clipPathUnits="userSpaceOnUse"
       id="clipPath1264">
      <path
         d="M 0,595.276 H 841.89 V 0 H 0 Z"
         id="path1262" />
    </clipPath>
    <clipPath
       clipPathUnits="userSpaceOnUse"
       id="clipPath1276">
      <path
         d="m 340.067,203.546 v -31.29 c 1.363,-0.436 2.357,-1.698 2.357,-3.205 v 0 c 0,-1.868 -1.513,-3.383 -3.381,-3.383 v 0 c -1.867,0 -3.381,1.515 -3.381,3.383 v 0 c 0,1.484 0.963,2.73 2.293,3.185 v 0 30.194 c -4.797,-2.709 -9.042,-6.249 -12.153,-10.869 v 0 c -0.106,-0.146 -0.181,-0.316 -0.391,-0.574 v 0 c -0.385,0.208 -0.341,0.194 -0.604,0.345 v 0 c -2.243,1.294 -4.534,2.326 -6.843,3.146 v 0 -21.786 c 1.364,-0.437 2.358,-1.698 2.358,-3.207 v 0 c 0,-1.866 -1.513,-3.381 -3.382,-3.381 v 0 c -1.866,0 -3.38,1.515 -3.38,3.381 v 0 c 0,1.484 0.962,2.732 2.292,3.186 v 0 22.501 c -13.429,4 -27.205,1.024 -35.818,-1.857 v 0 c 1.205,-3.481 4.514,-6.002 8.391,-6.002 v 0 h 18.692 V 168.62 c 0,-4.885 3.998,-8.882 8.884,-8.882 v 0 h 11.124 v 18.016 c -1.331,0.454 -2.293,1.701 -2.293,3.186 v 0 c 0,1.867 1.513,3.38 3.381,3.38 v 0 c 1.866,0 3.38,-1.513 3.38,-3.38 v 0 c 0,-1.509 -0.993,-2.771 -2.357,-3.206 v 0 -17.996 h 10.084 c 4.886,0 8.882,3.997 8.882,8.882 v 0 18.693 h 18.692 c 4.886,0 8.884,3.998 8.884,8.883 v 0 0.359 H 354.49 c -0.435,-1.363 -1.697,-2.358 -3.206,-2.358 v 0 c -1.868,0 -3.381,1.514 -3.381,3.383 v 0 c 0,1.866 1.513,3.379 3.381,3.379 v 0 c 1.484,0 2.732,-0.962 3.186,-2.292 v 0 h 21.308 v 12.352 c -9.26,-0.178 -23.838,-1.532 -35.711,-7.473"
         id="path1274" />
    </clipPath>
  </defs>
  <g
     inkscape:label="Camada 1"
     inkscape:groupmode="layer"
     id="layer1">
    <g
       id="g978"
       transform="matrix(3.4788851,0,0,-3.231477,-625.59494,1059.2304)">
      <g
         id="g980"
         clip-path="url(#clipPath984)">
        <g
           id="g986"
           transform="translate(366.8942,228.3985)">
          <path
             d="m 0,0 h -18.692 v 18.692 c 0,4.886 -3.997,8.883 -8.883,8.883 h -14.013 c 6.907,-3.827 11.586,-11.183 11.586,-19.638 0,-12.396 -10.048,-22.445 -22.445,-22.445 -9.597,0 -17.764,6.035 -20.973,14.508 h -5.049 c -4.886,0 -8.883,-3.997 -8.883,-8.883 v -12.691 c 10.421,1.529 29.392,1.694 44.956,-12.626 7.828,20.032 30.85,29.885 44.126,34.027 C 1.17,-0.061 0.592,0 0,0"
             style="fill:#459fd8;fill-opacity:1;fill-rule:nonzero;stroke:none"
             id="path988" />
        </g>
        <g
           id="g990"
           transform="translate(287.7218,225.8927)">
          <path
             d="M 0,0 C 0.237,0.585 0.375,1.015 0.577,1.411 1.718,3.656 2.004,6.044 1.8,8.516 1.781,8.742 1.749,8.965 1.72,9.189 1.643,9.791 1.45,10.2 0.751,10.42 c -1.37,0.432 -1.863,2.276 -0.993,3.465 0.238,0.325 0.271,0.608 0.182,0.981 -0.36,1.53 -0.566,3.078 -0.336,4.65 0.074,0.505 0.224,0.999 0.359,1.582 -0.552,0.011 -1.077,0.036 -1.601,0.028 -0.967,-0.012 -1.933,-0.051 -2.899,-0.063 -0.32,-0.004 -0.642,0.032 -0.963,0.065 -0.404,0.042 -0.769,0.255 -0.819,0.638 -0.038,0.287 0.092,0.712 0.304,0.899 0.773,0.677 1.604,1.288 2.424,1.91 5.107,3.869 10.233,7.712 15.307,11.623 0.952,0.734 1.886,1.089 3.083,1.087 6.828,-0.008 13.655,0.039 20.483,0.069 0.532,0.003 1.063,0.043 1.593,0.023 0.515,-0.018 1.028,-0.124 1.212,-0.699 0.179,-0.562 -0.187,-0.92 -0.58,-1.22 C 36.084,34.377 34.648,33.312 33.224,32.233 28.565,28.704 23.909,25.173 19.254,21.637 18.791,21.285 18.274,21.181 17.711,21.18 14.973,21.176 12.235,21.168 9.497,21.157 8.193,21.152 6.891,21.14 5.483,21.131 c 0.22,0.22 0.369,0.396 0.544,0.542 3.098,2.569 6.201,5.133 9.301,7.702 0.284,0.236 0.576,0.472 0.809,0.755 0.382,0.461 0.356,1.013 -0.012,1.468 -0.29,0.359 -0.758,0.466 -1.271,0.141 C 14.068,31.242 13.299,30.704 12.586,30.108 9.804,27.783 7.034,25.445 4.292,23.074 3.666,22.531 3.105,21.882 2.629,21.202 1.671,19.833 1.663,18.268 1.88,16.683 1.911,16.46 1.964,16.239 1.98,16.014 2.028,15.361 2.253,14.916 2.926,14.604 4.008,14.105 4.416,12.835 3.956,11.711 3.775,11.269 3.803,10.928 4.016,10.491 4.85,8.78 5.698,7.068 6.064,5.174 6.389,3.49 6.196,1.895 5.212,0.45 4.739,-0.243 4.093,-0.611 3.231,-0.488 2.199,-0.34 1.169,-0.177 0,0"
             style="fill:#e9521e;fill-opacity:1;fill-rule:nonzero;stroke:none"
             id="path992" />
        </g>
        <g
           id="g994"
           transform="translate(307.4874,244.8937)">
          <path
             d="m 0,0 c -0.463,-0.351 -0.981,-0.456 -1.544,-0.456 -2.737,-0.005 -5.475,-0.013 -8.212,-0.024 -0.111,0 -0.224,-0.001 -0.335,-0.002 -0.946,-2.116 -1.537,-4.43 -1.654,-6.885 -0.502,-10.547 7.642,-19.505 18.19,-20.008 10.548,-0.503 19.506,7.641 20.008,18.189 C 26.876,-0.325 21.185,7.393 13.104,9.939 8.734,6.629 4.366,3.316 0,0"
             style="fill:#e9521e;fill-opacity:1;fill-rule:nonzero;stroke:none"
             id="path996" />
        </g>
      </g>
    </g>
    <g
       id="g998"
       transform="matrix(3.4788851,0,0,-3.231477,-625.59494,1059.2304)">
      <g
         id="g1000"
         clip-path="url(#clipPath1004)">
        <g
           id="g1006"
           transform="translate(346.1342,221.1268)">
          <path
             d="M 0,0 -16.024,45.884 -62.665,29.596 -46.641,-16.288 Z"
             style="fill:#e9521e;fill-opacity:1;fill-rule:nonzero;stroke:none"
             id="path1008" />
        </g>
      </g>
    </g>
    <g
       id="g1010"
       transform="matrix(3.4788851,0,0,-3.231477,-625.59494,1059.2304)">
      <g
         id="g1012"
         clip-path="url(#clipPath1016)">
        <g
           id="g1018"
           transform="translate(417.5256,83.712)">
          <path
             d="m 0,0 h -159.8 c -15.219,0 -27.599,12.335 -27.599,27.496 v 35.872 h 1.798 V 27.496 c 0,-14.17 11.575,-25.698 25.801,-25.698 H 0 Z"
             style="fill:#afadad;fill-opacity:1;fill-rule:nonzero;stroke:none"
             id="path1020" />
        </g>
        <g
           id="g1022"
           transform="translate(269.3512,148.7441)">
          <path
             d="m 0,0 c -0.219,-0.012 -0.437,-0.019 -0.654,-0.019 h -10.501 c -0.048,-0.024 -0.102,-0.031 -0.163,-0.017 -0.062,0.011 -0.115,0.005 -0.164,-0.019 -0.266,-0.097 -0.448,-0.218 -0.544,-0.363 -0.122,-0.194 -0.176,-0.521 -0.164,-0.982 0.012,-0.46 0.019,-0.859 0.019,-1.198 v -21.726 c 0,-0.267 0.011,-0.528 0.036,-0.781 0.024,-0.255 0.109,-0.443 0.254,-0.564 0.145,-0.121 0.333,-0.188 0.563,-0.199 0.23,-0.013 0.478,-0.019 0.745,-0.019 h 2.107 c 0.194,0 0.388,-0.013 0.582,-0.036 0.193,-0.024 0.375,-0.012 0.544,0.036 0.34,0.097 0.558,0.23 0.655,0.4 0.12,0.193 0.175,0.459 0.164,0.799 -0.013,0.339 -0.019,0.654 -0.019,0.945 v 4.795 1.253 c 0,0.424 0.121,0.722 0.363,0.891 0.193,0.145 0.466,0.218 0.818,0.218 h 0.999 3.051 1.49 c 0.146,0.024 0.291,0.037 0.436,0.037 0.146,0 0.291,0.011 0.437,0.035 0.29,0.073 0.581,0.122 0.872,0.146 0.29,0.023 0.568,0.085 0.835,0.182 0.872,0.29 1.653,0.647 2.343,1.071 0.691,0.424 1.278,0.975 1.763,1.654 0.12,0.145 0.223,0.296 0.308,0.454 0.085,0.157 0.176,0.321 0.273,0.491 0.048,0.096 0.091,0.187 0.127,0.271 0.036,0.086 0.078,0.176 0.127,0.274 0.169,0.387 0.314,0.805 0.436,1.253 0.121,0.447 0.206,0.938 0.254,1.471 0.073,1.332 -0.017,2.471 -0.272,3.415 -0.255,0.945 -0.66,1.805 -1.217,2.58 -0.195,0.291 -0.437,0.582 -0.727,0.871 l -0.217,0.219 c -0.122,0.096 -0.225,0.187 -0.309,0.272 -0.086,0.085 -0.189,0.164 -0.31,0.237 -0.145,0.12 -0.291,0.218 -0.436,0.29 -0.145,0.073 -0.279,0.157 -0.399,0.255 -0.34,0.193 -0.703,0.344 -1.09,0.454 -0.388,0.109 -0.775,0.223 -1.163,0.344 -0.121,0.049 -0.23,0.073 -0.326,0.073 -0.097,0 -0.208,0.013 -0.327,0.037 -0.121,0.048 -0.255,0.072 -0.4,0.072 -0.145,0 -0.279,0.024 -0.4,0.073 H 0.617 C 0.461,-0.017 0.298,0.003 0.127,0.003 0.084,0.003 0.042,0.002 0,0 m -5.268,-12.245 c -0.243,0.013 -0.461,0.055 -0.654,0.128 -0.195,0.073 -0.34,0.182 -0.437,0.326 -0.121,0.194 -0.181,0.467 -0.181,0.819 v 0.962 3.452 0.89 c 0,0.326 0.048,0.586 0.146,0.781 0.072,0.193 0.229,0.339 0.472,0.436 0.073,0 0.139,0.006 0.199,0.018 0.06,0.012 0.127,0.03 0.201,0.055 0.581,0 1.198,0.005 1.852,0.018 0.653,0.011 1.29,0.006 1.907,-0.018 0.617,-0.025 1.192,-0.091 1.727,-0.2 0.532,-0.109 0.98,-0.273 1.344,-0.49 0.436,-0.267 0.763,-0.559 0.981,-0.873 0.218,-0.314 0.4,-0.738 0.545,-1.272 C 2.906,-7.479 2.948,-7.812 2.961,-8.212 2.973,-8.611 2.954,-8.944 2.906,-9.211 2.81,-9.525 2.712,-9.81 2.616,-10.064 c -0.097,-0.255 -0.22,-0.49 -0.364,-0.709 -0.557,-0.727 -1.369,-1.151 -2.434,-1.271 -1.067,-0.122 -2.241,-0.182 -3.525,-0.182 -0.241,0 -0.502,-0.006 -0.78,-0.019 -0.14,-0.005 -0.274,-0.009 -0.405,-0.009 -0.13,0 -0.256,0.004 -0.376,0.009"
             style="fill:#e9521e;fill-opacity:1;fill-rule:nonzero;stroke:none"
             id="path1024" />
        </g>
      </g>
    </g>
    <g
       id="g1026"
       transform="matrix(3.4788851,0,0,-3.231477,-625.59494,1059.2304)">
      <g
         id="g1028"
         clip-path="url(#clipPath1032)">
        <g
           id="g1034"
           transform="translate(277.8138,122.5674)">
          <path
             d="M 0,0 0.291,26.177 -20.662,26.41 -20.952,0.233 Z"
             style="fill:#e9521e;fill-opacity:1;fill-rule:nonzero;stroke:none"
             id="path1036" />
        </g>
      </g>
    </g>
    <g
       id="g1038"
       transform="matrix(3.4788851,0,0,-3.231477,-625.59494,1059.2304)">
      <g
         id="g1040"
         clip-path="url(#clipPath1044)">
        <g
           id="g1046"
           transform="translate(295.9816,148.725)">
          <path
             d="m 0,0 h -13.588 c -0.048,-0.024 -0.097,-0.031 -0.145,-0.017 -0.05,0.011 -0.097,0.005 -0.146,-0.019 -0.267,-0.073 -0.448,-0.194 -0.545,-0.363 -0.097,-0.122 -0.145,-0.291 -0.145,-0.509 v -0.653 -2.253 -7.921 -9.882 -2.616 -0.672 c 0,-0.23 0.048,-0.418 0.145,-0.563 0.122,-0.194 0.309,-0.309 0.563,-0.346 0.256,-0.035 0.551,-0.054 0.891,-0.054 h 2.87 10.754 2.724 0.745 c 0.231,0 0.418,0.06 0.564,0.182 0.194,0.121 0.303,0.309 0.327,0.562 0.024,0.255 0.037,0.528 0.037,0.819 v 1.671 c 0,0.193 -0.007,0.375 -0.018,0.545 -0.013,0.169 -0.043,0.314 -0.091,0.436 -0.073,0.193 -0.208,0.326 -0.401,0.399 -0.144,0.073 -0.308,0.109 -0.49,0.109 H 3.489 1.563 -5.268 -6.794 c -0.121,0 -0.254,-0.005 -0.4,-0.018 -0.145,-0.012 -0.278,-0.006 -0.399,0.018 h -0.363 c -0.122,0.048 -0.237,0.078 -0.345,0.092 -0.109,0.011 -0.2,0.053 -0.273,0.126 -0.17,0.121 -0.274,0.297 -0.309,0.527 -0.036,0.23 -0.054,0.49 -0.054,0.781 v 2.034 1.381 0.382 c 0,0.133 0.012,0.26 0.036,0.382 0.073,0.217 0.187,0.381 0.345,0.49 0.157,0.109 0.351,0.182 0.58,0.218 0.231,0.036 0.479,0.048 0.746,0.036 0.267,-0.013 0.544,-0.018 0.836,-0.018 h 7.085 c 0.169,0 0.382,-0.006 0.636,-0.018 0.253,-0.013 0.508,-0.018 0.763,-0.018 0.254,0 0.483,0.011 0.69,0.036 0.205,0.024 0.368,0.072 0.491,0.146 0.144,0.12 0.241,0.278 0.29,0.471 0.048,0.121 0.073,0.267 0.073,0.437 v 0.508 c 0,0.194 0.005,0.424 0.018,0.69 0.012,0.267 0.012,0.527 0,0.781 -0.013,0.255 -0.043,0.491 -0.091,0.709 -0.049,0.218 -0.134,0.363 -0.254,0.437 -0.097,0.072 -0.25,0.12 -0.454,0.144 -0.207,0.025 -0.43,0.042 -0.673,0.056 -0.242,0.011 -0.49,0.011 -0.745,0 -0.254,-0.014 -0.466,-0.019 -0.637,-0.019 h -6.247 -1.963 c -0.217,0 -0.423,0.005 -0.617,0.019 -0.194,0.011 -0.364,0.066 -0.508,0.163 -0.122,0.072 -0.207,0.175 -0.255,0.308 -0.049,0.133 -0.097,0.297 -0.145,0.49 v 1.054 2.071 c 0,0.291 0.018,0.551 0.054,0.781 0.035,0.231 0.139,0.405 0.309,0.527 0.096,0.073 0.255,0.128 0.472,0.163 0.218,0.037 0.454,0.061 0.708,0.073 0.255,0.013 0.509,0.013 0.764,0 0.255,-0.012 0.478,-0.018 0.672,-0.018 h 6.576 2.506 0.692 c 0.217,0 0.399,0.048 0.544,0.146 0.169,0.096 0.292,0.29 0.364,0.58 0,0.243 0.01,0.425 0.035,0.546 0.025,0.169 0.031,0.345 0.019,0.527 -0.012,0.182 -0.019,0.369 -0.019,0.563 0,0.169 0.007,0.351 0.019,0.545 0.012,0.193 0.006,0.376 -0.019,0.545 v 0.4 C 4.711,-0.775 4.681,-0.678 4.669,-0.581 4.657,-0.485 4.627,-0.399 4.578,-0.326 4.457,-0.157 4.263,-0.06 3.996,-0.036 3.73,-0.012 3.451,0 3.162,0 Z"
             style="fill:#e9521e;fill-opacity:1;fill-rule:nonzero;stroke:none"
             id="path1048" />
        </g>
      </g>
    </g>
    <g
       id="g1050"
       transform="matrix(3.4788851,0,0,-3.231477,-625.59494,1059.2304)">
      <g
         id="g1052"
         clip-path="url(#clipPath1056)">
        <g
           id="g1058"
           transform="translate(301.0301,122.6387)">
          <path
             d="m 0,0 0.29,26.083 -19.905,0.221 -0.29,-26.083 z"
             style="fill:#e9521e;fill-opacity:1;fill-rule:nonzero;stroke:none"
             id="path1060" />
        </g>
      </g>
    </g>
    <g
       id="g1062"
       transform="matrix(3.4788851,0,0,-3.231477,-625.59494,1059.2304)">
      <g
         id="g1064"
         clip-path="url(#clipPath1068)">
        <g
           id="g1070"
           transform="translate(318.4722,148.725)">
          <path
             d="m 0,0 h -14.533 -0.182 c -0.193,-0.048 -0.328,-0.097 -0.4,-0.144 -0.195,-0.123 -0.309,-0.304 -0.345,-0.546 -0.037,-0.243 -0.054,-0.521 -0.054,-0.836 v -1.78 c 0,-0.194 0.005,-0.387 0.017,-0.58 0.013,-0.195 0.055,-0.352 0.126,-0.473 0.097,-0.145 0.244,-0.255 0.439,-0.327 0.193,-0.049 0.453,-0.068 0.781,-0.055 0.326,0.012 0.622,0.018 0.889,0.018 h 3.378 c 0.509,0 0.952,-0.018 1.327,-0.055 0.375,-0.035 0.624,-0.26 0.745,-0.671 0.048,-0.097 0.06,-0.195 0.037,-0.291 -0.025,-0.097 -0.025,-0.205 0,-0.327 0.048,-0.145 0.066,-0.308 0.053,-0.491 C -7.734,-6.74 -7.74,-6.915 -7.74,-7.084 v -3.088 -10.1 -3.634 -0.927 c 0,-0.302 0.061,-0.551 0.182,-0.745 0.121,-0.145 0.297,-0.23 0.527,-0.253 0.23,-0.025 0.478,-0.037 0.745,-0.037 h 2.47 0.618 c 0.217,0 0.411,0.024 0.581,0.073 0.266,0.12 0.419,0.321 0.455,0.599 0.037,0.279 0.053,0.612 0.053,0.999 v 3.415 10.464 3.234 c 0,0.145 -0.006,0.309 -0.016,0.491 -0.014,0.18 -0.007,0.344 0.016,0.489 0.05,0.122 0.06,0.231 0.037,0.327 -0.024,0.097 -0.024,0.207 0,0.328 0.121,0.411 0.357,0.636 0.709,0.671 0.351,0.037 0.768,0.055 1.252,0.055 h 3.707 c 0.509,0 0.945,0.012 1.308,0.037 0.364,0.024 0.606,0.241 0.727,0.653 0.048,0.147 0.065,0.297 0.054,0.455 -0.012,0.157 -0.019,0.32 -0.019,0.49 v 1.417 0.364 c 0,0.12 -0.011,0.229 -0.035,0.326 v 0.182 C 5.606,-0.678 5.577,-0.562 5.54,-0.454 5.503,-0.345 5.449,-0.267 5.376,-0.218 5.182,-0.097 4.934,-0.031 4.63,-0.017 4.329,-0.006 4.02,0 3.705,0 Z"
             style="fill:#e9521e;fill-opacity:1;fill-rule:nonzero;stroke:none"
             id="path1072" />
        </g>
      </g>
    </g>
    <g
       id="g1074"
       transform="matrix(3.4788851,0,0,-3.231477,-625.59494,1059.2304)">
      <g
         id="g1076"
         clip-path="url(#clipPath1080)">
        <g
           id="g1082"
           transform="translate(324.1657,122.621)">
          <path
             d="M 0,0 0.29,26.101 -21.205,26.34 -21.495,0.239 Z"
             style="fill:#e9521e;fill-opacity:1;fill-rule:nonzero;stroke:none"
             id="path1084" />
        </g>
      </g>
    </g>
    <g
       id="g1086"
       transform="matrix(3.4788851,0,0,-3.231477,-625.59494,1059.2304)">
      <g
         id="g1088"
         clip-path="url(#clipPath1092)">
        <g
           id="g1094"
           transform="translate(322.2997,136.4564)">
          <path
             d="m 0,0 c -0.601,0 -1.091,-0.488 -1.091,-1.09 v -1.641 c 0,-0.601 0.49,-1.088 1.091,-1.088 h 4.823 c 0.601,0 1.09,0.487 1.09,1.088 V -1.09 C 5.913,-0.488 5.424,0 4.823,0 Z"
             style="fill:#e9521e;fill-opacity:1;fill-rule:nonzero;stroke:none"
             id="path1096" />
        </g>
      </g>
    </g>
    <g
       id="g1098"
       transform="matrix(3.4788851,0,0,-3.231477,-625.59494,1059.2304)">
      <g
         id="g1100"
         clip-path="url(#clipPath1104)">
        <g
           id="g1106"
           transform="translate(328.212,132.5593)">
          <path
             d="M 0,0 0.043,3.897 -7.002,3.975 -7.046,0.078 Z"
             style="fill:#e9521e;fill-opacity:1;fill-rule:nonzero;stroke:none"
             id="path1108" />
        </g>
      </g>
    </g>
    <g
       id="g1110"
       transform="matrix(3.4788851,0,0,-3.231477,-625.59494,1059.2304)">
      <g
         id="g1112"
         clip-path="url(#clipPath1116)">
        <g
           id="g1118"
           transform="translate(338.4381,146.0107)">
          <path
             d="m 0,0 c -0.041,-0.041 -0.124,-0.051 -0.248,-0.031 -0.126,0.021 -0.217,0.021 -0.28,0 -0.165,-0.041 -0.347,-0.061 -0.543,-0.061 -0.198,0 -0.378,-0.021 -0.542,-0.063 -0.166,-0.041 -0.322,-0.077 -0.466,-0.108 -0.145,-0.031 -0.301,-0.067 -0.465,-0.109 -0.601,-0.166 -1.129,-0.362 -1.583,-0.59 -0.043,-0.041 -0.094,-0.067 -0.155,-0.077 -0.063,-0.01 -0.115,-0.036 -0.156,-0.078 -0.559,-0.352 -1.066,-0.739 -1.521,-1.163 -0.454,-0.424 -0.827,-0.947 -1.117,-1.567 -0.083,-0.187 -0.15,-0.383 -0.201,-0.589 -0.053,-0.208 -0.109,-0.425 -0.172,-0.653 -0.06,-0.206 -0.112,-0.502 -0.154,-0.884 -0.041,-0.383 -0.031,-0.699 0.031,-0.947 0,-0.062 0.004,-0.124 0.016,-0.186 0.009,-0.062 0.015,-0.135 0.015,-0.217 0.062,-0.229 0.114,-0.45 0.155,-0.668 0.042,-0.217 0.114,-0.419 0.218,-0.605 0.226,-0.538 0.538,-0.977 0.93,-1.319 0.392,-0.341 0.828,-0.656 1.304,-0.946 0.186,-0.124 0.383,-0.227 0.589,-0.31 0.206,-0.083 0.414,-0.166 0.622,-0.249 0.04,-0.02 0.071,-0.031 0.091,-0.031 0.021,0 0.052,-0.01 0.094,-0.03 0.29,-0.125 0.6,-0.224 0.931,-0.296 0.331,-0.072 0.662,-0.159 0.994,-0.263 0.578,-0.166 1.178,-0.311 1.799,-0.434 0.621,-0.124 1.226,-0.254 1.816,-0.389 0.589,-0.135 1.153,-0.294 1.691,-0.481 0.538,-0.186 1.023,-0.434 1.458,-0.744 0.289,-0.207 0.539,-0.429 0.744,-0.667 0.208,-0.238 0.373,-0.534 0.498,-0.885 0.04,-0.083 0.061,-0.16 0.061,-0.233 0,-0.072 0.022,-0.16 0.062,-0.263 0.042,-0.146 0.063,-0.332 0.063,-0.559 0,-0.228 -0.021,-0.424 -0.063,-0.59 -0.04,-0.165 -0.083,-0.33 -0.123,-0.496 C 6.35,-17.947 6.299,-18.112 6.237,-18.278 6.009,-18.795 5.684,-19.204 5.26,-19.503 4.836,-19.804 4.355,-20.068 3.817,-20.295 3.65,-20.357 3.476,-20.403 3.289,-20.434 3.104,-20.465 2.927,-20.501 2.762,-20.543 2.68,-20.585 2.612,-20.6 2.56,-20.59 c -0.052,0.01 -0.109,0.005 -0.17,-0.015 -0.104,-0.021 -0.208,-0.031 -0.312,-0.031 -0.103,0 -0.206,-0.011 -0.309,-0.031 H 1.551 c -0.103,-0.042 -0.233,-0.062 -0.387,-0.062 -0.155,0 -0.274,0.01 -0.357,0.031 -0.104,0.041 -0.213,0.051 -0.326,0.031 -0.114,-0.02 -0.213,-0.02 -0.295,0 -0.062,0 -0.124,0.004 -0.186,0.016 -0.062,0.009 -0.114,0.015 -0.155,0.015 -0.167,0.021 -0.331,0.041 -0.497,0.062 -0.166,0.021 -0.331,0.051 -0.496,0.093 -0.476,0.144 -0.921,0.301 -1.334,0.465 -0.415,0.166 -0.797,0.383 -1.15,0.652 -0.702,0.518 -1.23,1.22 -1.581,2.111 -0.062,0.144 -0.11,0.289 -0.14,0.435 -0.031,0.144 -0.068,0.289 -0.109,0.433 -0.042,0.125 -0.067,0.243 -0.078,0.357 -0.01,0.113 -0.046,0.223 -0.108,0.326 -0.042,0.083 -0.134,0.166 -0.28,0.248 -0.083,0.042 -0.154,0.058 -0.217,0.047 -0.061,-0.011 -0.144,-0.005 -0.248,0.016 -0.062,0.02 -0.14,0.03 -0.232,0.03 H -6.89 c -0.227,0 -0.46,-0.01 -0.698,-0.03 -0.238,-0.021 -0.408,-0.105 -0.511,-0.249 -0.104,-0.104 -0.156,-0.275 -0.156,-0.512 0,-0.238 0.021,-0.45 0.062,-0.637 0.042,-0.103 0.066,-0.216 0.078,-0.341 0.01,-0.123 0.036,-0.248 0.077,-0.372 0.104,-0.33 0.212,-0.642 0.327,-0.931 0.113,-0.29 0.253,-0.57 0.418,-0.838 0.497,-0.827 1.091,-1.5 1.785,-2.017 0.692,-0.518 1.546,-0.942 2.56,-1.271 0.206,-0.083 0.408,-0.145 0.606,-0.188 0.195,-0.041 0.407,-0.082 0.635,-0.124 0.103,-0.02 0.196,-0.035 0.28,-0.045 0.083,-0.011 0.165,-0.027 0.248,-0.048 0.186,-0.041 0.382,-0.062 0.588,-0.062 0.208,0 0.415,-0.02 0.622,-0.062 h 0.341 c 0.103,-0.02 0.253,-0.03 0.451,-0.03 0.196,0 0.345,0.01 0.449,0.03 0.125,0 0.249,0.006 0.373,0.015 0.124,0.012 0.248,0.016 0.372,0.016 0.103,0.021 0.212,0.031 0.326,0.031 0.114,0 0.222,0.011 0.326,0.031 0.248,0.063 0.497,0.109 0.744,0.14 0.249,0.031 0.487,0.089 0.714,0.171 0.228,0.062 0.44,0.125 0.637,0.186 0.196,0.062 0.398,0.134 0.605,0.217 0.62,0.29 1.199,0.621 1.738,0.993 0.537,0.373 0.981,0.828 1.334,1.366 0.187,0.248 0.341,0.517 0.466,0.807 0.124,0.289 0.237,0.589 0.341,0.899 0.061,0.166 0.098,0.337 0.108,0.512 0.01,0.177 0.036,0.347 0.078,0.513 v 0.247 c 0,0.083 0.009,0.166 0.031,0.249 v 0.28 0.341 c -0.042,0.124 -0.062,0.253 -0.062,0.388 0,0.134 -0.021,0.253 -0.062,0.357 -0.042,0.206 -0.083,0.403 -0.125,0.59 -0.041,0.185 -0.103,0.371 -0.185,0.558 -0.229,0.516 -0.523,0.966 -0.885,1.35 -0.363,0.382 -0.771,0.718 -1.226,1.008 -0.352,0.228 -0.724,0.424 -1.116,0.59 -0.394,0.165 -0.797,0.32 -1.211,0.465 -0.186,0.062 -0.373,0.12 -0.559,0.171 -0.186,0.051 -0.372,0.098 -0.558,0.139 -0.083,0.021 -0.155,0.036 -0.217,0.047 -0.063,0.011 -0.135,0.026 -0.218,0.047 -0.29,0.103 -0.595,0.18 -0.916,0.232 -0.32,0.053 -0.626,0.12 -0.914,0.202 -0.187,0.063 -0.373,0.104 -0.559,0.125 -0.186,0.02 -0.373,0.051 -0.558,0.092 -0.603,0.165 -1.18,0.321 -1.739,0.466 -0.558,0.144 -1.065,0.361 -1.52,0.651 -0.393,0.228 -0.698,0.466 -0.915,0.715 -0.218,0.247 -0.399,0.609 -0.544,1.086 -0.042,0.145 -0.067,0.32 -0.077,0.526 -0.011,0.208 0.004,0.394 0.046,0.56 0.041,0.207 0.076,0.398 0.109,0.574 0.031,0.175 0.087,0.346 0.17,0.512 0.166,0.414 0.414,0.761 0.744,1.039 0.332,0.28 0.704,0.502 1.118,0.668 0.724,0.33 1.624,0.496 2.7,0.496 h 0.497 c 0.164,0 0.329,-0.021 0.497,-0.062 H 1.428 C 1.551,-2.524 1.676,-2.549 1.8,-2.559 1.924,-2.57 2.048,-2.596 2.173,-2.637 2.834,-2.803 3.403,-3.051 3.879,-3.382 4.52,-3.795 5.015,-4.416 5.369,-5.244 5.471,-5.451 5.55,-5.689 5.602,-5.957 5.653,-6.226 5.741,-6.454 5.865,-6.64 5.907,-6.682 5.947,-6.717 5.989,-6.749 6.031,-6.78 6.072,-6.807 6.114,-6.827 c 0.082,-0.041 0.159,-0.062 0.232,-0.062 0.072,0 0.16,-0.011 0.264,-0.031 0.082,-0.02 0.165,-0.03 0.247,-0.03 h 0.281 c 0.248,0 0.486,0.01 0.713,0.03 0.228,0.02 0.392,0.104 0.497,0.248 0.062,0.104 0.096,0.254 0.109,0.451 C 8.466,-6.025 8.451,-5.844 8.41,-5.679 8.306,-5.286 8.203,-4.908 8.1,-4.546 7.996,-4.184 7.851,-3.858 7.665,-3.568 7.602,-3.465 7.546,-3.357 7.494,-3.243 7.442,-3.128 7.375,-3.02 7.292,-2.916 7.209,-2.813 7.127,-2.71 7.043,-2.606 6.961,-2.503 6.879,-2.4 6.797,-2.296 6.754,-2.234 6.703,-2.177 6.64,-2.125 6.579,-2.073 6.527,-2.028 6.485,-1.985 6.444,-1.945 6.402,-1.908 6.362,-1.877 6.319,-1.846 6.278,-1.81 6.237,-1.768 6.134,-1.665 6.025,-1.582 5.912,-1.52 5.798,-1.458 5.679,-1.386 5.555,-1.303 4.851,-0.848 4.045,-0.507 3.134,-0.278 2.365,-0.086 1.499,0.01 0.538,0.01 0.362,0.01 0.183,0.007 0,0"
             style="fill:#459fd8;fill-opacity:1;fill-rule:nonzero;stroke:none"
             id="path1120" />
        </g>
      </g>
    </g>
    <g
       id="g1122"
       transform="matrix(3.4788851,0,0,-3.231477,-625.59494,1059.2304)">
      <g
         id="g1124"
         clip-path="url(#clipPath1128)">
        <g
           id="g1130"
           transform="translate(347.9006,122.6863)">
          <path
             d="M 0,0 0.271,23.331 -17.715,23.54 -17.986,0.209 Z"
             style="fill:#459fd8;fill-opacity:1;fill-rule:nonzero;stroke:none"
             id="path1132" />
        </g>
      </g>
    </g>
    <g
       id="g1134"
       transform="matrix(3.4788851,0,0,-3.231477,-625.59494,1059.2304)">
      <g
         id="g1136"
         clip-path="url(#clipPath1140)">
        <g
           id="g1142"
           transform="translate(357.1509,139.8358)">
          <path
             d="m 0,0 c -0.041,-0.042 -0.155,-0.058 -0.341,-0.046 -0.187,0.01 -0.322,0.004 -0.404,-0.016 -0.227,-0.042 -0.45,-0.072 -0.667,-0.093 -0.217,-0.021 -0.43,-0.052 -0.636,-0.093 -0.89,-0.249 -1.635,-0.575 -2.234,-0.978 -0.601,-0.403 -1.097,-0.967 -1.49,-1.691 -0.104,-0.227 -0.192,-0.461 -0.264,-0.698 -0.073,-0.238 -0.14,-0.492 -0.202,-0.76 -0.041,-0.167 -0.041,-0.321 0,-0.466 0.042,-0.145 0.104,-0.249 0.186,-0.31 0.083,-0.062 0.222,-0.109 0.42,-0.14 0.196,-0.031 0.397,-0.047 0.604,-0.047 0.207,0 0.409,0.016 0.606,0.047 0.196,0.031 0.334,0.078 0.419,0.14 0.144,0.103 0.242,0.248 0.295,0.434 0.051,0.186 0.108,0.362 0.17,0.528 0.103,0.227 0.222,0.439 0.357,0.636 0.135,0.196 0.284,0.357 0.449,0.481 0.332,0.227 0.672,0.403 1.025,0.527 0.248,0.082 0.548,0.145 0.899,0.187 0.352,0.041 0.714,0.062 1.088,0.062 0.372,0 0.728,-0.021 1.069,-0.062 0.342,-0.042 0.637,-0.114 0.885,-0.218 0.435,-0.166 0.771,-0.393 1.009,-0.682 0.237,-0.29 0.419,-0.684 0.541,-1.18 0.084,-0.31 0.084,-0.595 0,-0.853 C 3.702,-5.55 3.6,-5.762 3.475,-5.927 3.206,-6.299 2.844,-6.533 2.389,-6.626 1.934,-6.718 1.448,-6.827 0.931,-6.951 0.764,-6.993 0.61,-7.019 0.465,-7.029 0.321,-7.04 0.175,-7.065 0.031,-7.107 -0.135,-7.148 -0.285,-7.169 -0.419,-7.169 -0.554,-7.169 -0.693,-7.19 -0.838,-7.23 -1.148,-7.292 -1.459,-7.344 -1.77,-7.386 -2.079,-7.427 -2.38,-7.49 -2.669,-7.572 -3.435,-7.8 -4.138,-8.058 -4.779,-8.348 -5.42,-8.637 -5.927,-9.082 -6.3,-9.682 c -0.123,-0.186 -0.228,-0.393 -0.31,-0.62 -0.083,-0.229 -0.166,-0.456 -0.248,-0.684 -0.021,-0.124 -0.037,-0.243 -0.047,-0.357 -0.01,-0.113 -0.026,-0.222 -0.047,-0.325 v -0.652 c 0,-0.641 0.094,-1.189 0.28,-1.645 0.249,-0.62 0.563,-1.101 0.946,-1.442 0.383,-0.342 0.885,-0.648 1.505,-0.916 0.145,-0.061 0.3,-0.109 0.466,-0.14 0.165,-0.031 0.33,-0.066 0.496,-0.109 0.063,-0.02 0.119,-0.025 0.171,-0.015 0.051,0.01 0.119,0.005 0.201,-0.015 0.083,-0.042 0.177,-0.062 0.28,-0.062 0.104,0 0.207,-0.01 0.31,-0.032 h 0.28 c 0.206,-0.04 0.424,-0.04 0.651,0 h 0.233 c 0.072,0 0.161,0.012 0.264,0.032 0.227,0.041 0.46,0.072 0.698,0.092 0.237,0.022 0.46,0.062 0.667,0.125 0.352,0.103 0.683,0.222 0.993,0.357 0.311,0.134 0.601,0.284 0.869,0.449 0.187,0.125 0.377,0.27 0.575,0.435 0.195,0.165 0.408,0.279 0.634,0.341 0.084,0.021 0.151,0.01 0.203,-0.03 0.051,-0.042 0.098,-0.083 0.14,-0.124 0.124,-0.125 0.227,-0.285 0.31,-0.482 0.083,-0.197 0.176,-0.367 0.279,-0.512 0.166,-0.228 0.47,-0.419 0.916,-0.574 0.444,-0.154 0.895,-0.181 1.35,-0.077 0.125,0.041 0.243,0.062 0.357,0.062 0.113,0 0.222,0.02 0.326,0.062 0.206,0.104 0.372,0.263 0.495,0.481 0.125,0.217 0.156,0.49 0.095,0.823 -0.021,0.102 -0.032,0.186 -0.032,0.247 0,0.062 -0.02,0.124 -0.063,0.186 -0.083,0.165 -0.206,0.264 -0.372,0.295 -0.164,0.032 -0.34,0.088 -0.527,0.171 -0.167,0.062 -0.301,0.166 -0.404,0.31 -0.103,0.166 -0.165,0.383 -0.185,0.652 -0.021,0.269 -0.032,0.547 -0.032,0.838 v 6.858 c 0,0.6 -0.015,1.174 -0.046,1.722 C 6.346,-3.408 6.236,-2.928 6.051,-2.514 5.617,-1.52 4.861,-0.848 3.784,-0.497 2.77,-0.165 1.589,0.002 0.242,0.002 0.161,0.002 0.081,0.001 0,0 m -1.133,-14.476 c -0.217,0.009 -0.399,0.036 -0.543,0.077 -0.103,0.021 -0.207,0.031 -0.31,0.031 -0.105,0 -0.207,0.01 -0.311,0.031 -0.31,0.103 -0.6,0.233 -0.868,0.388 -0.27,0.155 -0.487,0.346 -0.653,0.574 -0.103,0.145 -0.191,0.305 -0.263,0.481 -0.073,0.176 -0.109,0.367 -0.109,0.574 -0.02,0.455 0.02,0.842 0.125,1.164 0.103,0.32 0.258,0.594 0.465,0.822 0.206,0.227 0.455,0.419 0.745,0.574 0.288,0.155 0.6,0.284 0.931,0.388 0.165,0.041 0.315,0.078 0.45,0.108 0.135,0.032 0.284,0.067 0.449,0.11 0.312,0.082 0.647,0.128 1.009,0.139 0.362,0.011 0.698,0.056 1.009,0.139 0.082,0 0.159,0.005 0.233,0.016 0.072,0.011 0.139,0.016 0.201,0.016 0.207,0.041 0.413,0.082 0.62,0.125 0.208,0.04 0.394,0.082 0.559,0.123 0.082,0.041 0.176,0.062 0.28,0.062 0.103,0 0.175,0.021 0.218,0.062 0.227,0 0.371,-0.02 0.434,-0.062 0.145,-0.103 0.227,-0.248 0.246,-0.434 0.022,-0.186 0.033,-0.393 0.033,-0.621 0,-0.413 -0.005,-0.812 -0.016,-1.195 -0.011,-0.382 -0.078,-0.718 -0.201,-1.008 -0.228,-0.601 -0.554,-1.076 -0.978,-1.428 -0.425,-0.352 -0.936,-0.651 -1.537,-0.9 -0.144,-0.062 -0.294,-0.103 -0.449,-0.124 -0.156,-0.021 -0.315,-0.052 -0.481,-0.093 -0.124,-0.041 -0.249,-0.057 -0.373,-0.046 -0.123,0.01 -0.248,-0.006 -0.372,-0.047 -0.115,-0.033 -0.252,-0.05 -0.412,-0.05 -0.042,0 -0.086,0.001 -0.131,0.004"
             style="fill:#459fd8;fill-opacity:1;fill-rule:nonzero;stroke:none"
             id="path1144" />
        </g>
      </g>
    </g>
    <g
       id="g1146"
       transform="matrix(3.4788851,0,0,-3.231477,-625.59494,1059.2304)">
      <g
         id="g1148"
         clip-path="url(#clipPath1152)">
        <g
           id="g1154"
           transform="translate(365.2479,122.8929)">
          <path
             d="M 0,0 0.197,16.942 -15.047,17.12 -15.244,0.177 Z"
             style="fill:#459fd8;fill-opacity:1;fill-rule:nonzero;stroke:none"
             id="path1156" />
        </g>
      </g>
    </g>
    <g
       id="g1158"
       transform="matrix(3.4788851,0,0,-3.231477,-625.59494,1059.2304)">
      <g
         id="g1160"
         clip-path="url(#clipPath1164)">
        <g
           id="g1166"
           transform="translate(376.2819,146.0579)">
          <path
             d="m 0,0 c -0.217,-0.011 -0.399,-0.016 -0.543,-0.016 -0.042,0 -0.089,-0.005 -0.141,-0.015 -0.051,-0.01 -0.108,-0.016 -0.171,-0.016 -0.143,-0.061 -0.289,-0.144 -0.434,-0.247 -0.144,-0.104 -0.258,-0.234 -0.34,-0.389 -0.084,-0.155 -0.167,-0.305 -0.249,-0.449 -0.185,-0.291 -0.372,-0.591 -0.559,-0.901 -0.186,-0.31 -0.362,-0.61 -0.528,-0.9 -0.102,-0.124 -0.195,-0.253 -0.278,-0.388 -0.083,-0.134 -0.146,-0.284 -0.186,-0.449 -0.042,-0.125 -0.037,-0.233 0.016,-0.326 0.051,-0.093 0.108,-0.161 0.17,-0.202 0.186,-0.104 0.439,-0.129 0.761,-0.078 0.32,0.051 0.552,0.119 0.697,0.202 0.104,0.062 0.202,0.145 0.296,0.249 0.093,0.102 0.18,0.206 0.263,0.31 0.062,0.062 0.129,0.124 0.201,0.186 0.072,0.062 0.13,0.134 0.17,0.217 0.084,0.103 0.167,0.191 0.25,0.264 0.082,0.072 0.165,0.16 0.248,0.264 0.041,0.02 0.067,0.041 0.077,0.062 0.011,0.02 0.036,0.051 0.079,0.092 0.082,0.104 0.17,0.192 0.262,0.265 0.094,0.072 0.172,0.159 0.233,0.264 0.104,0.123 0.202,0.243 0.296,0.357 0.093,0.112 0.19,0.221 0.294,0.325 0.103,0.103 0.218,0.217 0.34,0.342 0.126,0.124 0.208,0.248 0.25,0.372 0.041,0.144 0.052,0.259 0.031,0.341 C 1.443,-0.181 1.329,-0.119 1.164,-0.078 0.998,-0.036 0.817,-0.011 0.62,0 0.522,0.005 0.421,0.008 0.318,0.008 0.215,0.008 0.109,0.005 0,0"
             style="fill:#459fd8;fill-opacity:1;fill-rule:nonzero;stroke:none"
             id="path1168" />
        </g>
      </g>
    </g>
    <g
       id="g1170"
       transform="matrix(3.4788851,0,0,-3.231477,-625.59494,1059.2304)">
      <g
         id="g1172"
         clip-path="url(#clipPath1176)">
        <g
           id="g1178"
           transform="translate(377.8069,141.5726)">
          <path
             d="M 0,0 0.052,4.493 -4.996,4.552 -5.048,0.059 Z"
             style="fill:#459fd8;fill-opacity:1;fill-rule:nonzero;stroke:none"
             id="path1180" />
        </g>
      </g>
    </g>
    <g
       id="g1182"
       transform="matrix(3.4788851,0,0,-3.231477,-625.59494,1059.2304)">
      <g
         id="g1184"
         clip-path="url(#clipPath1188)">
        <g
           id="g1190"
           transform="translate(379.2141,139.4324)">
          <path
             d="m 0,0 c -0.165,-0.042 -0.306,-0.078 -0.418,-0.109 -0.115,-0.03 -0.213,-0.098 -0.296,-0.202 -0.104,-0.165 -0.15,-0.387 -0.139,-0.666 0.01,-0.28 0.016,-0.544 0.016,-0.792 v -3.289 -2.421 c 0,-0.186 0.009,-0.388 0.03,-0.605 0.021,-0.218 0.01,-0.408 -0.03,-0.574 V -9.31 c -0.043,-0.104 -0.058,-0.197 -0.047,-0.279 0.01,-0.083 0.004,-0.176 -0.016,-0.279 -0.041,-0.186 -0.072,-0.363 -0.093,-0.528 -0.021,-0.166 -0.062,-0.331 -0.124,-0.496 -0.228,-0.725 -0.543,-1.309 -0.947,-1.754 -0.403,-0.445 -0.946,-0.812 -1.629,-1.101 -0.393,-0.167 -0.911,-0.275 -1.551,-0.326 -0.642,-0.052 -1.19,0.015 -1.646,0.202 -0.909,0.372 -1.53,1.023 -1.861,1.954 -0.104,0.352 -0.156,0.771 -0.156,1.258 v 1.411 4.687 2.947 c 0,0.248 -0.005,0.497 -0.015,0.745 -0.01,0.249 -0.067,0.455 -0.17,0.62 C -9.216,-0.083 -9.433,0 -9.744,0 h -0.9 c -0.042,-0.021 -0.084,-0.027 -0.124,-0.016 -0.042,0.011 -0.083,0.005 -0.125,-0.015 -0.228,-0.063 -0.382,-0.166 -0.465,-0.31 -0.083,-0.125 -0.124,-0.279 -0.124,-0.466 v -0.559 -1.986 -5.71 -1.241 c 0,-0.104 -0.006,-0.212 -0.015,-0.326 -0.011,-0.114 -0.006,-0.212 0.015,-0.294 v -0.31 c 0.021,-0.063 0.031,-0.13 0.031,-0.202 0,-0.073 0.01,-0.13 0.031,-0.171 0.042,-0.146 0.058,-0.274 0.047,-0.388 -0.011,-0.114 0.004,-0.233 0.046,-0.357 0.042,-0.207 0.083,-0.409 0.124,-0.605 0.042,-0.197 0.103,-0.388 0.186,-0.574 0.229,-0.539 0.523,-0.998 0.885,-1.382 0.361,-0.382 0.812,-0.687 1.35,-0.914 0.164,-0.083 0.326,-0.146 0.481,-0.187 0.155,-0.042 0.315,-0.082 0.48,-0.124 0.105,-0.041 0.192,-0.057 0.265,-0.046 0.071,0.01 0.149,-0.005 0.232,-0.047 0.104,-0.02 0.222,-0.031 0.357,-0.031 0.134,0 0.254,-0.02 0.357,-0.062 h 0.31 c 0.166,-0.042 0.352,-0.042 0.558,0 0.105,0.042 0.213,0.052 0.327,0.031 0.113,-0.02 0.222,-0.02 0.326,0 0.248,0.062 0.491,0.109 0.729,0.14 0.237,0.03 0.47,0.097 0.699,0.202 0.579,0.247 1.095,0.537 1.551,0.868 0.144,0.103 0.299,0.253 0.466,0.45 0.165,0.197 0.33,0.315 0.496,0.357 0.124,0.02 0.217,-0.011 0.279,-0.093 0.062,-0.083 0.104,-0.192 0.124,-0.326 0.02,-0.135 0.036,-0.274 0.047,-0.419 0.011,-0.144 0.026,-0.258 0.047,-0.341 0.082,-0.187 0.175,-0.321 0.277,-0.404 0.084,-0.062 0.214,-0.103 0.39,-0.123 0.175,-0.022 0.362,-0.027 0.557,-0.016 0.197,0.01 0.379,0.031 0.544,0.062 0.164,0.031 0.29,0.077 0.372,0.14 0.145,0.103 0.223,0.263 0.232,0.48 0.012,0.218 0.017,0.45 0.017,0.699 v 2.793 8.347 2.11 0.606 c 0,0.196 -0.052,0.346 -0.155,0.449 -0.104,0.166 -0.254,0.26 -0.451,0.28 C 0.937,-0.011 0.714,0 0.466,0 Z"
             style="fill:#459fd8;fill-opacity:1;fill-rule:nonzero;stroke:none"
             id="path1192" />
        </g>
      </g>
    </g>
    <g
       id="g1194"
       transform="matrix(3.4788851,0,0,-3.231477,-625.59494,1059.2304)">
      <g
         id="g1196"
         clip-path="url(#clipPath1200)">
        <g
           id="g1202"
           transform="translate(380.95,122.9139)">
          <path
             d="M 0,0 0.192,16.516 -13.242,16.673 -13.435,0.156 Z"
             style="fill:#459fd8;fill-opacity:1;fill-rule:nonzero;stroke:none"
             id="path1204" />
        </g>
      </g>
    </g>
    <g
       id="g1206"
       transform="matrix(3.4788851,0,0,-3.231477,-625.59494,1059.2304)">
      <g
         id="g1208"
         clip-path="url(#clipPath1212)">
        <g
           id="g1214"
           transform="translate(397.5234,145.5146)">
          <path
             d="M 0,0 C -0.041,0 -0.093,-0.005 -0.155,-0.015 -0.217,-0.026 -0.27,-0.031 -0.31,-0.031 -0.475,-0.072 -0.6,-0.166 -0.682,-0.31 -0.786,-0.476 -0.837,-0.74 -0.837,-1.101 v -0.978 -3.568 c 0,-0.229 0.005,-0.486 0.015,-0.776 0.01,-0.29 -0.015,-0.528 -0.078,-0.714 -0.02,-0.083 -0.047,-0.145 -0.077,-0.187 -0.032,-0.041 -0.068,-0.092 -0.109,-0.155 -0.228,-0.041 -0.408,-0.005 -0.542,0.11 -0.136,0.112 -0.265,0.221 -0.389,0.325 -0.248,0.187 -0.512,0.351 -0.792,0.496 -0.279,0.144 -0.574,0.28 -0.884,0.404 -0.207,0.102 -0.424,0.17 -0.651,0.201 -0.228,0.032 -0.456,0.079 -0.683,0.14 -0.145,0 -0.26,0.01 -0.342,0.031 -0.165,0.042 -0.408,0.063 -0.729,0.063 -0.32,0 -0.563,-0.021 -0.729,-0.063 h -0.31 c -0.145,-0.041 -0.284,-0.072 -0.419,-0.092 -0.135,-0.022 -0.275,-0.043 -0.42,-0.063 -0.454,-0.124 -0.874,-0.269 -1.255,-0.434 -0.385,-0.166 -0.752,-0.373 -1.103,-0.621 -0.6,-0.415 -1.111,-0.936 -1.535,-1.567 -0.425,-0.632 -0.772,-1.34 -1.041,-2.126 -0.062,-0.186 -0.113,-0.378 -0.155,-0.574 -0.041,-0.197 -0.092,-0.399 -0.155,-0.605 -0.021,-0.104 -0.03,-0.197 -0.03,-0.279 0,-0.083 -0.012,-0.177 -0.032,-0.28 -0.041,-0.145 -0.057,-0.295 -0.047,-0.45 0.011,-0.155 -0.005,-0.306 -0.046,-0.449 v -0.342 c -0.042,-0.104 -0.062,-0.237 -0.062,-0.404 0,-0.165 0.02,-0.3 0.062,-0.402 v -0.312 c 0.021,-0.103 0.026,-0.212 0.016,-0.325 -0.01,-0.115 0.005,-0.223 0.046,-0.326 0.02,-0.103 0.031,-0.207 0.031,-0.31 0,-0.104 0.01,-0.207 0.032,-0.311 0.061,-0.206 0.108,-0.408 0.139,-0.605 0.031,-0.196 0.088,-0.388 0.171,-0.574 0.372,-1.158 0.889,-2.126 1.551,-2.901 0.662,-0.775 1.532,-1.392 2.607,-1.847 0.372,-0.166 0.806,-0.284 1.303,-0.356 0.497,-0.073 0.998,-0.104 1.505,-0.093 0.507,0.01 1.004,0.057 1.49,0.139 0.486,0.083 0.916,0.206 1.288,0.373 0.413,0.165 0.827,0.403 1.241,0.713 0.124,0.103 0.243,0.206 0.357,0.31 0.113,0.104 0.274,0.145 0.481,0.125 0.041,-0.043 0.078,-0.078 0.108,-0.11 0.032,-0.029 0.057,-0.067 0.078,-0.108 0.063,-0.145 0.099,-0.29 0.109,-0.434 0.01,-0.145 0.057,-0.269 0.14,-0.373 0.062,-0.123 0.186,-0.206 0.372,-0.248 0.082,-0.042 0.181,-0.057 0.293,-0.046 0.115,0.01 0.234,0.016 0.358,0.016 0.249,0 0.492,0.004 0.73,0.015 0.238,0.01 0.408,0.088 0.512,0.232 0.103,0.165 0.155,0.378 0.155,0.637 v 0.791 18.744 0.775 c 0,0.249 -0.052,0.456 -0.155,0.621 C 1.459,-0.083 1.236,0.005 0.915,0.016 0.808,0.019 0.703,0.021 0.6,0.021 0.393,0.021 0.194,0.014 0,0 m -6.734,-20.078 c -0.228,0.062 -0.434,0.124 -0.62,0.187 -0.187,0.062 -0.373,0.144 -0.559,0.247 -0.6,0.332 -1.097,0.756 -1.49,1.273 -0.393,0.517 -0.703,1.138 -0.931,1.862 -0.041,0.144 -0.078,0.289 -0.108,0.434 -0.031,0.145 -0.068,0.289 -0.109,0.435 0,0.144 -0.011,0.248 -0.03,0.31 -0.043,0.186 -0.063,0.388 -0.063,0.605 v 0.667 c 0,0.104 -0.005,0.218 -0.017,0.342 -0.009,0.124 0.006,0.237 0.048,0.341 0,0.083 0.004,0.16 0.016,0.233 0.01,0.072 0.016,0.15 0.016,0.233 0.04,0.227 0.076,0.46 0.108,0.698 0.031,0.237 0.087,0.47 0.17,0.698 0.248,0.724 0.573,1.361 0.977,1.908 0.404,0.548 0.937,0.968 1.599,1.257 0.166,0.062 0.336,0.114 0.512,0.155 0.176,0.042 0.347,0.083 0.512,0.125 0.103,0 0.196,0.005 0.28,0.015 0.082,0.01 0.174,0.026 0.279,0.047 h 0.574 c 0.196,0 0.377,-0.021 0.543,-0.062 0.247,-0.042 0.481,-0.088 0.698,-0.14 0.217,-0.052 0.429,-0.13 0.636,-0.233 0.6,-0.269 1.096,-0.641 1.491,-1.117 0.391,-0.476 0.713,-1.023 0.961,-1.645 0.062,-0.145 0.108,-0.29 0.139,-0.434 0.032,-0.145 0.067,-0.3 0.109,-0.465 0.062,-0.166 0.103,-0.347 0.125,-0.544 0.02,-0.196 0.051,-0.388 0.091,-0.574 v -0.465 c 0.043,-0.104 0.064,-0.244 0.064,-0.419 0,-0.176 -0.021,-0.316 -0.064,-0.419 -0.02,-0.124 -0.025,-0.249 -0.015,-0.372 0.011,-0.124 0.006,-0.249 -0.016,-0.373 -0.019,-0.083 -0.029,-0.16 -0.029,-0.233 0,-0.073 -0.022,-0.15 -0.063,-0.232 -0.062,-0.228 -0.114,-0.455 -0.154,-0.683 -0.043,-0.228 -0.115,-0.455 -0.218,-0.682 -0.29,-0.684 -0.646,-1.247 -1.071,-1.692 -0.424,-0.445 -0.977,-0.812 -1.66,-1.101 -0.145,-0.063 -0.3,-0.109 -0.466,-0.14 -0.165,-0.031 -0.331,-0.067 -0.497,-0.109 -0.144,0 -0.247,-0.011 -0.309,-0.031 h -0.28 -0.263 c -0.093,0 -0.182,0.01 -0.264,0.031 -0.104,0.042 -0.212,0.051 -0.326,0.031 -0.038,-0.007 -0.075,-0.01 -0.112,-0.01 -0.074,0 -0.145,0.014 -0.214,0.041"
             style="fill:#459fd8;fill-opacity:1;fill-rule:nonzero;stroke:none"
             id="path1216" />
        </g>
      </g>
    </g>
    <g
       id="g1218"
       transform="matrix(3.4788851,0,0,-3.231477,-625.59494,1059.2304)">
      <g
         id="g1220"
         clip-path="url(#clipPath1224)">
        <g
           id="g1226"
           transform="translate(399.2591,122.9072)">
          <path
             d="M 0,0 0.263,22.625 -15.17,22.805 -15.433,0.179 Z"
             style="fill:#459fd8;fill-opacity:1;fill-rule:nonzero;stroke:none"
             id="path1228" />
        </g>
      </g>
    </g>
    <g
       id="g1230"
       transform="matrix(3.4788851,0,0,-3.231477,-625.59494,1059.2304)">
      <g
         id="g1232"
         clip-path="url(#clipPath1236)">
        <g
           id="g1238"
           transform="translate(409.8119,139.7737)">
          <path
             d="m 0,0 c -0.042,-0.041 -0.093,-0.052 -0.155,-0.031 -0.062,0.021 -0.114,0.021 -0.156,0 -0.104,0 -0.196,-0.005 -0.279,-0.015 -0.083,-0.011 -0.176,-0.026 -0.28,-0.047 -0.289,-0.062 -0.563,-0.119 -0.821,-0.17 -0.26,-0.053 -0.513,-0.13 -0.76,-0.233 -0.85,-0.352 -1.564,-0.791 -2.142,-1.319 C -5.172,-2.343 -5.69,-2.969 -6.144,-3.693 -6.268,-3.92 -6.377,-4.154 -6.47,-4.392 -6.564,-4.629 -6.662,-4.862 -6.766,-5.089 -6.889,-5.379 -6.978,-5.69 -7.029,-6.02 -7.08,-6.351 -7.148,-6.683 -7.23,-7.013 c -0.022,-0.104 -0.027,-0.213 -0.016,-0.326 0.01,-0.114 -0.006,-0.222 -0.046,-0.326 v -0.341 c -0.022,-0.104 -0.027,-0.233 -0.016,-0.388 0.01,-0.156 0.026,-0.275 0.046,-0.357 v -0.435 c 0.041,-0.186 0.072,-0.372 0.093,-0.558 0.021,-0.186 0.052,-0.362 0.094,-0.528 0.02,-0.103 0.031,-0.186 0.031,-0.248 0,-0.061 0.009,-0.135 0.031,-0.217 0.082,-0.249 0.149,-0.496 0.201,-0.746 0.052,-0.247 0.129,-0.485 0.233,-0.713 0.289,-0.703 0.647,-1.339 1.071,-1.908 0.424,-0.569 0.936,-1.05 1.536,-1.443 0.351,-0.207 0.682,-0.384 0.993,-0.528 0.082,-0.041 0.155,-0.068 0.217,-0.077 0.063,-0.011 0.133,-0.036 0.218,-0.078 0.164,-0.062 0.34,-0.12 0.526,-0.171 0.187,-0.051 0.373,-0.098 0.559,-0.139 0.104,-0.021 0.217,-0.036 0.342,-0.047 0.124,-0.01 0.237,-0.025 0.342,-0.047 0.082,-0.02 0.165,-0.03 0.248,-0.03 0.082,0 0.175,-0.01 0.279,-0.031 h 0.279 c 0.082,-0.021 0.191,-0.032 0.326,-0.032 0.134,0 0.253,0.011 0.357,0.032 h 0.31 c 0.103,0.021 0.201,0.031 0.295,0.031 0.092,0 0.191,0.01 0.294,0.03 0.228,0.043 0.445,0.078 0.652,0.11 0.207,0.03 0.414,0.087 0.622,0.17 0.806,0.269 1.473,0.615 2.001,1.039 0.527,0.425 0.996,0.967 1.412,1.63 0.268,0.435 0.485,0.931 0.65,1.489 0.105,0.331 0.052,0.569 -0.154,0.713 -0.062,0.063 -0.175,0.105 -0.341,0.125 -0.166,0.02 -0.341,0.036 -0.528,0.046 -0.185,0.011 -0.372,0.006 -0.558,-0.015 -0.186,-0.021 -0.321,-0.051 -0.403,-0.093 -0.23,-0.104 -0.388,-0.269 -0.482,-0.496 -0.092,-0.228 -0.203,-0.446 -0.325,-0.652 -0.124,-0.227 -0.27,-0.439 -0.435,-0.637 -0.166,-0.196 -0.362,-0.367 -0.591,-0.511 -0.206,-0.145 -0.429,-0.265 -0.666,-0.357 -0.238,-0.093 -0.502,-0.182 -0.791,-0.264 -0.29,-0.083 -0.673,-0.124 -1.148,-0.124 -0.477,0 -0.859,0.041 -1.149,0.124 -0.145,0 -0.249,0.01 -0.31,0.031 -0.145,0.042 -0.29,0.083 -0.434,0.124 -0.146,0.041 -0.28,0.094 -0.403,0.156 -1.098,0.475 -1.883,1.272 -2.359,2.389 -0.083,0.165 -0.145,0.336 -0.187,0.512 -0.041,0.176 -0.083,0.346 -0.124,0.512 -0.02,0.083 -0.031,0.166 -0.031,0.248 0,0.083 -0.01,0.176 -0.031,0.28 -0.041,0.102 -0.041,0.212 0,0.325 0.042,0.114 0.082,0.202 0.125,0.264 0.082,0.124 0.165,0.207 0.248,0.249 0.103,0.061 0.237,0.097 0.402,0.108 0.167,0.01 0.332,0.015 0.498,0.015 h 7.944 c 0.187,0 0.404,-0.005 0.652,-0.015 0.248,-0.011 0.496,-0.015 0.745,-0.015 0.247,0 0.47,0.015 0.666,0.046 0.198,0.032 0.347,0.088 0.451,0.171 0.103,0.103 0.171,0.284 0.201,0.543 0.032,0.258 0.025,0.49 -0.015,0.698 -0.02,0.144 -0.036,0.289 -0.047,0.434 -0.011,0.145 -0.026,0.289 -0.047,0.435 -0.083,0.289 -0.149,0.578 -0.201,0.868 -0.053,0.29 -0.13,0.569 -0.232,0.839 -0.105,0.269 -0.197,0.538 -0.28,0.807 -0.083,0.268 -0.197,0.516 -0.341,0.745 -0.229,0.392 -0.507,0.806 -0.84,1.241 -0.122,0.165 -0.273,0.33 -0.448,0.496 -0.178,0.165 -0.347,0.31 -0.513,0.435 -0.082,0.041 -0.155,0.097 -0.216,0.17 C 4.19,-1.153 4.107,-1.097 4.003,-1.054 3.485,-0.725 2.906,-0.461 2.265,-0.263 1.684,-0.085 1.009,0.003 0.241,0.003 0.162,0.003 0.081,0.002 0,0 m -0.248,-2.296 h 0.527 c 0.186,0 0.362,-0.021 0.528,-0.063 0.165,-0.041 0.32,-0.077 0.465,-0.108 0.145,-0.031 0.289,-0.068 0.435,-0.108 0.558,-0.229 1.013,-0.507 1.365,-0.838 0.351,-0.332 0.672,-0.735 0.963,-1.211 0.227,-0.393 0.402,-0.817 0.527,-1.272 0.041,-0.145 0.041,-0.285 0,-0.419 C 4.52,-6.45 4.468,-6.558 4.407,-6.641 4.262,-6.807 3.972,-6.884 3.538,-6.874 3.104,-6.863 2.731,-6.858 2.42,-6.858 h -4.717 c -0.289,0 -0.636,-0.005 -1.04,-0.016 -0.403,-0.01 -0.687,0.047 -0.852,0.171 -0.125,0.082 -0.198,0.207 -0.217,0.372 -0.021,0.166 -0.012,0.342 0.031,0.528 0.041,0.186 0.091,0.357 0.155,0.512 0.062,0.156 0.122,0.285 0.186,0.388 0.289,0.559 0.615,1.023 0.978,1.396 0.36,0.373 0.842,0.683 1.441,0.932 0.146,0.04 0.296,0.077 0.451,0.108 0.155,0.031 0.316,0.067 0.481,0.108 0.062,0.022 0.134,0.027 0.217,0.016 0.017,-0.002 0.034,-0.003 0.049,-0.003 0.062,0 0.119,0.017 0.169,0.05"
             style="fill:#459fd8;fill-opacity:1;fill-rule:nonzero;stroke:none"
             id="path1240" />
        </g>
      </g>
    </g>
    <g
       id="g1242"
       transform="matrix(3.4788851,0,0,-3.231477,-625.59494,1059.2304)">
      <g
         id="g1244"
         clip-path="url(#clipPath1248)">
        <g
           id="g1250"
           transform="translate(417.2737,122.8753)">
          <path
             d="M 0,0 0.197,16.899 -14.779,17.073 -14.975,0.174 Z"
             style="fill:#459fd8;fill-opacity:1;fill-rule:nonzero;stroke:none"
             id="path1252" />
        </g>
      </g>
    </g>
    <text
       xml:space="preserve"
       style="font-variant:normal;font-weight:normal;font-stretch:normal;font-size:35.35px;font-family:'Alte Haas Grotesk';-inkscape-font-specification:AlteHaasGrotesk;writing-mode:lr-tb;fill:#026e9c;fill-opacity:1;fill-rule:nonzero;stroke:none;stroke-width:3.35289"
       id="text1256"
       x="259.29291"
       y="751.83221"
       transform="scale(1.037575,0.96378574)"><tspan
         x="259.29291 268.44855 293.97122 314.26208 341.12805 365.34277 396.13263 419.0394 444.56201 467.46878 494.33478 504.16208 525.76086 535.5882 558.495 581.40173 606.92444 631.81079 653.40961 663.23694 688.12329 697.27893 724.1095 733.26514 753.55603 776.46283"
         y="751.83221"
         sodipodi:role="line"
         id="tspan1254"
         style="stroke-width:3.35289">INFORMAÇÃO E SAÚDE DIGITAL</tspan></text>
    <g
       id="g1258"
       transform="matrix(3.4788851,0,0,-3.231477,-625.59494,1059.2304)">
      <g
         id="g1260"
         clip-path="url(#clipPath1264)">
        <g
           id="g1266"
           transform="translate(340.0666,203.5455)">
          <path
             d="m 0,0 v -31.289 c 1.363,-0.436 2.357,-1.699 2.357,-3.206 0,-1.868 -1.513,-3.382 -3.38,-3.382 -1.868,0 -3.381,1.514 -3.381,3.382 0,1.484 0.962,2.731 2.293,3.186 v 30.193 c -4.798,-2.708 -9.043,-6.248 -12.154,-10.869 -0.106,-0.145 -0.18,-0.316 -0.391,-0.574 -0.385,0.208 -0.34,0.194 -0.604,0.345 -2.243,1.295 -4.534,2.327 -6.843,3.147 v -21.787 c 1.364,-0.436 2.358,-1.698 2.358,-3.206 0,-1.867 -1.513,-3.381 -3.381,-3.381 -1.867,0 -3.381,1.514 -3.381,3.381 0,1.484 0.963,2.732 2.293,3.186 v 22.501 c -13.429,4 -27.205,1.024 -35.819,-1.858 1.205,-3.481 4.514,-6.001 8.392,-6.001 h 18.692 v -18.693 c 0,-4.885 3.997,-8.882 8.883,-8.882 h 11.124 v 18.015 c -1.331,0.455 -2.293,1.702 -2.293,3.186 0,1.867 1.514,3.381 3.381,3.381 1.867,0 3.381,-1.514 3.381,-3.381 0,-1.508 -0.994,-2.77 -2.358,-3.206 v -17.995 h 10.084 c 4.886,0 8.882,3.997 8.882,8.882 v 18.693 h 18.692 c 4.887,0 8.884,3.997 8.884,8.883 V -6.99 H 14.424 c -0.436,-1.363 -1.698,-2.358 -3.206,-2.358 -1.868,0 -3.382,1.514 -3.382,3.382 0,1.867 1.514,3.38 3.382,3.38 1.484,0 2.731,-0.962 3.186,-2.293 H 35.711 V 7.474 C 26.451,7.296 11.874,5.941 0,0"
             style="fill:#153a60;fill-opacity:1;fill-rule:nonzero;stroke:none"
             id="path1268" />
        </g>
      </g>
    </g>
    <g
       id="g1270"
       transform="matrix(3.4788851,0,0,-3.231477,-625.59494,1059.2304)">
      <g
         id="g1272"
         clip-path="url(#clipPath1276)">
        <g
           id="g1278"
           transform="translate(256.4578,195.459)">
          <path
             d="m 0,0 52.627,-79.738 90.269,59.577 -52.628,79.738 z"
             style="fill:#153a60;fill-opacity:1;fill-rule:nonzero;stroke:none"
             id="path1280" />
        </g>
      </g>
    </g>
  </g>
</svg>
